<svg width="8" height="9" viewBox="0 0 8 9" fill="none" xmlns="http://www.w3.org/2000/svg">
<path d="M0.654843 8.2633H1.13506L5.96999 2.82401L5.48977 2.28377L0.654843 7.72306V8.2633ZM7.35607 2.29604L5.95907 0.72442L6.41746 0.208731C6.54116 0.0695771 6.69395 0 6.87585 0C7.05775 0 7.21055 0.0695771 7.33424 0.208731L7.81446 0.748977C7.93815 0.888131 8 1.06003 8 1.26467C8 1.4693 7.93815 1.6412 7.81446 1.78035L7.35607 2.29604ZM6.89768 2.81173L1.397 9H0V7.42838L5.50068 1.24011L6.89768 2.81173ZM5.72988 2.55389L5.48977 2.28377L5.96999 2.82401L5.72988 2.55389Z" fill="#1F1C1C"/>
</svg>
