<svg width="19" height="16" viewBox="0 0 19 16" fill="none" xmlns="http://www.w3.org/2000/svg">
<path d="M3.8 9.62H11.2337V8.42H3.8V9.62ZM3.8 7.02H15.2V5.82H3.8V7.02ZM3.8 4.42H15.2V3.22H3.8V4.42ZM0 16V1.2C0 0.893333 0.1425 0.616667 0.4275 0.37C0.7125 0.123333 1.045 0 1.425 0H17.575C17.9392 0 18.2677 0.123333 18.5606 0.37C18.8535 0.616667 19 0.893333 19 1.2V11.6C19 11.9067 18.8535 12.1833 18.5606 12.43C18.2677 12.6767 17.9392 12.8 17.575 12.8H3.8L0 16ZM1.425 13.1L3.20625 11.6H17.575V1.2H1.425V13.1Z" fill="#1F1C1C"/>
</svg>
