<svg width="68" height="66" viewBox="0 0 68 66" fill="none" xmlns="http://www.w3.org/2000/svg">
<path d="M34 31.8841C29.325 31.8841 25.5 30.3961 22.525 27.4203C19.55 24.4444 18.0625 20.6184 18.0625 15.942C18.0625 11.2657 19.55 7.43961 22.525 4.46377C25.5 1.48792 29.325 0 34 0C38.675 0 42.5 1.48792 45.475 4.46377C48.45 7.43961 49.9375 11.2657 49.9375 15.942C49.9375 20.6184 48.45 24.4444 45.475 27.4203C42.5 30.3961 38.675 31.8841 34 31.8841ZM0 66V56.0097C0 53.3172 0.672916 51.0145 2.01875 49.1014C3.36458 47.1884 5.1 45.7359 7.225 44.744C11.9708 42.6184 16.5219 41.0242 20.8781 39.9614C25.2344 38.8985 29.6083 38.3671 34 38.3671C38.3917 38.3671 42.7479 38.9163 47.0687 40.0145C51.3896 41.1127 55.9229 42.6892 60.6687 44.744C62.8646 45.7359 64.6354 47.1884 65.9812 49.1014C67.3271 51.0145 68 53.3172 68 56.0097V66H0ZM6.375 59.6232H61.625V56.0097C61.625 54.876 61.2885 53.7955 60.6156 52.7681C59.9427 51.7407 59.1104 50.9791 58.1187 50.4831C53.5854 48.2866 49.4417 46.781 45.6875 45.9662C41.9333 45.1514 38.0375 44.744 34 44.744C29.9625 44.744 26.0313 45.1514 22.2063 45.9662C18.3813 46.781 14.2375 48.2866 9.775 50.4831C8.78333 50.9791 7.96875 51.7407 7.33125 52.7681C6.69375 53.7955 6.375 54.876 6.375 56.0097V59.6232ZM34 25.5072C36.7625 25.5072 39.0469 24.6039 40.8531 22.7971C42.6594 20.9903 43.5625 18.7053 43.5625 15.942C43.5625 13.1787 42.6594 10.8937 40.8531 9.08696C39.0469 7.28019 36.7625 6.37681 34 6.37681C31.2375 6.37681 28.9531 7.28019 27.1469 9.08696C25.3406 10.8937 24.4375 13.1787 24.4375 15.942C24.4375 18.7053 25.3406 20.9903 27.1469 22.7971C28.9531 24.6039 31.2375 25.5072 34 25.5072Z" fill="#E9E9E9"/>
</svg>
