<svg width="286" height="232" viewBox="0 0 286 232" fill="none" xmlns="http://www.w3.org/2000/svg">
<path d="M286 206.089H0V206.232H286V206.089Z" fill="#EBEBEB"/>
<path d="M257.343 215.292H238.398V215.435H257.343V215.292Z" fill="#EBEBEB"/>
<path d="M156.282 213.502H148.909V213.645H156.282V213.502Z" fill="#EBEBEB"/>
<path d="M200.011 214.108H184.487V214.251H200.011V214.108Z" fill="#EBEBEB"/>
<path d="M237.826 209.984H205.731V210.127H237.826V209.984Z" fill="#EBEBEB"/>
<path d="M45.1824 216.602H30.0072V216.745H45.1824V216.602Z" fill="#EBEBEB"/>
<path d="M63.4291 216.602H50.2731V216.745H63.4291V216.602Z" fill="#EBEBEB"/>
<path d="M109.715 213.433H74.932V213.576H109.715V213.433Z" fill="#EBEBEB"/>
<path d="M135.564 180.577H25.1165C24.2512 180.576 23.422 180.231 22.8107 179.619C22.1994 179.006 21.8561 178.177 21.8561 177.311V22.0534C21.8636 21.1931 22.2103 20.3705 22.8207 19.7644C23.4312 19.1582 24.2562 18.8173 25.1165 18.8159H135.564C136.43 18.8159 137.261 19.16 137.873 19.7725C138.486 20.385 138.83 21.2157 138.83 22.082V177.311C138.83 178.178 138.486 179.008 137.873 179.621C137.261 180.233 136.43 180.577 135.564 180.577ZM25.1165 18.9303C24.2892 18.9318 23.4963 19.2615 22.9118 19.847C22.3273 20.4326 21.9991 21.2261 21.9991 22.0534V177.311C21.9991 178.139 22.3273 178.932 22.9118 179.518C23.4963 180.103 24.2892 180.433 25.1165 180.434H135.564C136.392 180.433 137.185 180.103 137.771 179.518C138.356 178.933 138.686 178.139 138.687 177.311V22.0534C138.686 21.2255 138.356 20.432 137.771 19.8467C137.185 19.2613 136.392 18.9318 135.564 18.9303H25.1165Z" fill="#EBEBEB"/>
<path d="M259.293 180.577H148.84C147.974 180.576 147.144 180.231 146.532 179.619C145.92 179.007 145.575 178.177 145.574 177.311V22.0534C145.583 21.1926 145.931 20.37 146.542 19.764C147.154 19.158 147.979 18.8173 148.84 18.8159H259.293C260.153 18.8188 260.976 19.1603 261.585 19.7664C262.195 20.3724 262.54 21.1941 262.548 22.0534V177.311C262.548 178.176 262.205 179.005 261.595 179.617C260.985 180.229 260.158 180.574 259.293 180.577ZM148.84 18.9303C148.012 18.9318 147.219 19.2613 146.633 19.8467C146.048 20.432 145.718 21.2255 145.717 22.0534V177.311C145.718 178.139 146.048 178.933 146.633 179.518C147.219 180.103 148.012 180.433 148.84 180.434H259.293C260.121 180.433 260.915 180.103 261.5 179.518C262.085 178.933 262.415 178.139 262.416 177.311V22.0534C262.415 21.2255 262.085 20.432 261.5 19.8467C260.915 19.2613 260.121 18.9318 259.293 18.9303H148.84Z" fill="#EBEBEB"/>
<path d="M267.158 98.4211C268.951 92.2247 268.751 85.6216 266.586 79.5451C268.885 76.2545 270.409 72.4864 271.044 68.523C271.679 64.5596 271.408 60.504 270.253 56.66C269.097 52.8161 267.086 49.2836 264.371 46.3275C261.656 43.3714 258.307 41.0683 254.574 39.5909C253.483 31.7236 250.369 24.2741 245.536 17.9709C240.703 11.6677 234.318 6.72652 227.003 3.63048C219.689 0.534451 211.696 -0.610453 203.807 0.307719C195.917 1.22589 188.401 4.17571 181.993 8.86875C178.773 5.4865 174.615 3.14294 170.054 2.13838C165.493 1.13381 160.736 1.514 156.392 3.23021C152.048 4.94643 148.316 7.92051 145.673 11.7714C143.031 15.6222 141.598 20.1744 141.559 24.8447C135.523 26.0554 129.908 28.8183 125.266 32.8611C120.624 36.9039 117.116 42.0869 115.088 47.8989C113.06 53.7109 112.582 59.9511 113.701 66.0041C114.82 72.0572 117.498 77.7139 121.47 82.4165C119.527 85.9199 118.399 89.8161 118.17 93.8156C117.94 97.815 118.616 101.815 120.145 105.517C121.675 109.22 124.02 112.53 127.005 115.201C129.991 117.872 133.54 119.836 137.389 120.946C141.882 122.248 146.64 122.339 151.18 121.21C157.332 129.688 166.487 135.501 176.778 137.463C187.068 139.426 197.72 137.389 206.561 131.769C210.868 141.773 214.403 156.782 206.79 171.5C234.446 168.789 254.414 142.265 250.342 117.961C254.387 116.107 257.983 113.402 260.886 110.029C263.788 106.657 265.928 102.697 267.158 98.4211Z" fill="#EBEBEB"/>
<path d="M214.111 166.009C214.036 166.009 213.961 165.995 213.891 165.966C213.822 165.938 213.758 165.896 213.705 165.843C213.631 165.769 213.579 165.677 213.554 165.577C213.529 165.476 213.532 165.37 213.562 165.271C217.457 151.703 213.905 138.696 210.244 130.173L208.385 125.854L204.416 128.377C196.439 133.449 186.828 135.289 177.542 133.52C168.256 131.751 159.994 126.508 154.44 118.859L152.85 116.668L150.23 117.32C145.95 118.385 141.451 118.176 137.288 116.719C133.125 115.262 129.479 112.619 126.797 109.117C124.116 105.615 122.517 101.405 122.196 97.0057C121.876 92.6065 122.848 88.2096 124.993 84.3556L126.326 81.9417L124.547 79.8368C121.023 75.667 118.646 70.6507 117.652 65.2823C116.658 59.914 117.08 54.3792 118.877 49.2238C120.674 44.0683 123.784 39.4704 127.899 35.8833C132.015 32.2963 136.995 29.8441 142.348 28.7686L145.528 28.128L145.563 24.8905C145.592 21.0155 146.778 17.2377 148.969 14.0416C151.16 10.8454 154.256 8.37665 157.86 6.95193C161.463 5.5272 165.41 5.21147 169.195 6.04525C172.979 6.87902 176.428 8.82427 179.099 11.6315L181.524 14.1712L184.384 12.1005C190.232 7.81123 197.093 5.11359 204.296 4.27162C211.499 3.42965 218.797 4.4722 225.476 7.29724C232.155 10.1223 237.987 14.633 242.4 20.388C246.812 26.143 249.655 32.9451 250.65 40.1285L250.976 42.4165L253.144 43.2745C256.314 44.5294 259.159 46.486 261.465 48.9974C263.771 51.5089 265.478 54.5099 266.458 57.7754C267.438 61.0408 267.666 64.4859 267.125 67.852C266.583 71.2182 265.286 74.418 263.332 77.2113L262.153 78.8987L262.845 80.8435C265.099 87.188 264.893 94.1464 262.27 100.347C259.646 106.547 254.794 111.54 248.671 114.34L245.886 115.621L246.395 118.641C248.111 129.012 245.005 140.337 237.815 149.718C231.878 157.496 223.633 163.196 214.26 166.003C214.211 166.012 214.161 166.014 214.111 166.009ZM208.648 124.453C208.703 124.445 208.759 124.445 208.814 124.453C208.893 124.477 208.965 124.519 209.027 124.574C209.088 124.629 209.136 124.697 209.169 124.773L211.291 129.704C214.94 138.186 218.47 151.034 214.935 164.556C223.674 161.714 231.341 156.279 236.917 148.974C243.907 139.822 246.95 128.84 245.268 118.784L244.696 115.352C244.674 115.228 244.693 115.101 244.751 114.989C244.809 114.877 244.902 114.788 245.016 114.734L248.197 113.276C254.048 110.594 258.683 105.819 261.191 99.8908C263.699 93.9628 263.897 87.3108 261.747 81.2439L260.958 79.0245C260.928 78.9381 260.919 78.8458 260.932 78.7552C260.945 78.6646 260.979 78.5785 261.032 78.504L262.376 76.5707C264.233 73.9195 265.465 70.8823 265.98 67.6869C266.494 64.4915 266.278 61.221 265.348 58.121C264.418 55.021 262.798 52.172 260.609 49.7879C258.42 47.4038 255.719 45.5466 252.71 44.3556L250.227 43.3718C250.133 43.3344 250.051 43.2729 249.989 43.1936C249.927 43.1142 249.886 43.0198 249.872 42.9199L249.501 40.283C248.537 33.2927 245.773 26.6728 241.481 21.072C237.188 15.4711 231.515 11.0814 225.016 8.33295C218.516 5.5845 211.415 4.5716 204.406 5.3935C197.398 6.2154 190.723 8.8439 185.036 13.0215L181.793 15.3838C181.682 15.4656 181.544 15.5044 181.407 15.4928C181.269 15.4812 181.14 15.4202 181.044 15.3209L178.27 12.4209C176.556 10.6339 174.5 9.21121 172.223 8.23815C169.947 7.26509 167.498 6.76167 165.022 6.75805C160.196 6.75786 155.565 8.66352 152.137 12.0604C148.709 15.4573 146.762 20.0705 146.718 24.8962L146.678 28.6027C146.681 28.7366 146.636 28.8671 146.553 28.9716C146.469 29.0761 146.352 29.148 146.22 29.1747L142.588 29.9069C137.433 30.9437 132.636 33.3059 128.672 36.7607C124.707 40.2156 121.711 44.6438 119.979 49.6091C118.247 54.5743 117.839 59.9052 118.794 65.0763C119.75 70.2475 122.036 75.0804 125.428 79.0989L127.459 81.507C127.534 81.5957 127.58 81.705 127.591 81.8204C127.602 81.9358 127.578 82.0519 127.522 82.1534L126 84.9104C125.214 86.3254 124.589 87.8238 124.135 89.3777C123.089 93.0041 123.016 96.842 123.923 100.506C124.83 104.17 126.685 107.53 129.302 110.249C131.92 112.969 135.207 114.951 138.833 115.998C142.46 117.044 146.298 117.117 149.961 116.21L152.959 115.467C153.069 115.439 153.185 115.445 153.292 115.484C153.399 115.522 153.492 115.592 153.559 115.684L155.372 118.184C160.749 125.61 168.76 130.702 177.766 132.419C186.772 134.136 196.094 132.349 203.826 127.421L208.362 124.561C208.446 124.5 208.545 124.462 208.648 124.453Z" fill="white"/>
<path d="M173.997 70.9765L158.667 68.5798L158.902 67.0469C159.17 64.8829 159.804 62.7804 160.778 60.8292C161.632 59.2847 162.764 57.9117 164.118 56.7795C165.495 55.6355 168.492 53.6792 173.11 50.9107C175.564 49.4693 176.908 48.0164 177.114 46.5349C177.25 45.9057 177.251 45.2548 177.118 44.625C176.985 43.9952 176.72 43.4005 176.342 42.8799C175.598 41.9246 174.334 41.3069 172.561 41.0323C171.687 40.8665 170.789 40.8825 169.922 41.0793C169.055 41.2761 168.238 41.6496 167.522 42.1763C166.073 43.2478 164.929 45.3299 164.09 48.4225L148.737 44.0467C150.171 38.3763 152.985 34.0692 157.18 31.1253C161.375 28.1814 167.236 27.2967 174.763 28.4712C180.628 29.3826 185.172 31.3426 188.394 34.3513C192.772 38.424 194.532 43.2173 193.674 48.7314C193.289 51.0555 192.279 53.2308 190.751 55.0234C189.157 56.953 186.169 59.1456 181.787 61.6014C178.737 63.3365 176.754 64.7989 175.839 65.9887C174.815 67.4701 174.182 69.1855 173.997 70.9765ZM157.506 72.5838L173.928 75.1407L171.674 89.6237L155.252 87.0669L157.506 72.5838Z" fill="white"/>
<path d="M213.121 93.4161L204.61 86.5521L205.302 85.6998C206.233 84.4757 207.365 83.4178 208.648 82.571C209.718 81.9337 210.894 81.4975 212.12 81.284C214.634 80.9911 217.163 80.8593 219.694 80.8893C221.7 80.8893 223.034 80.4755 223.698 79.648C224.006 79.3136 224.239 78.917 224.382 78.4848C224.524 78.0525 224.571 77.5949 224.521 77.1427C224.308 76.1374 223.716 75.2526 222.868 74.6716C222.393 74.2615 221.839 73.9542 221.239 73.7691C220.64 73.584 220.008 73.5252 219.385 73.5963C218.119 73.7336 216.683 74.5973 215.078 76.1874L207.258 68.0707C210.141 65.1192 213.383 63.489 216.982 63.1801C220.582 62.8713 224.476 64.41 228.663 67.7962C231.919 70.4312 233.996 73.2397 234.892 76.2217C236.12 80.2601 235.496 83.8084 233.021 86.8667C231.968 88.155 230.584 89.132 229.017 89.6923C227.359 90.2987 224.758 90.577 221.215 90.5275C218.739 90.5275 217.011 90.6876 216.027 91.0995C214.883 91.6216 213.885 92.4172 213.121 93.4161ZM202.488 88.5483L211.606 95.9329L205.091 103.975L195.973 96.6078L202.488 88.5483Z" fill="white"/>
<path d="M215.501 43.8694L211.817 38.8358L212.321 38.464C213.01 37.9287 213.783 37.5112 214.609 37.2285C215.29 37.0323 216.002 36.9644 216.708 37.0283C218.133 37.2283 219.543 37.5226 220.929 37.9092C222.039 38.1952 222.834 38.1609 223.32 37.8062C223.538 37.6659 223.723 37.4813 223.864 37.2644C224.005 37.0476 224.098 36.8034 224.138 36.5478C224.16 35.9603 223.956 35.3868 223.566 34.9462C223.363 34.6526 223.102 34.4036 222.799 34.2147C222.496 34.0258 222.158 33.901 221.804 33.848C221.089 33.745 220.174 34.0082 219.059 34.6488L215.93 29.0489C217.725 27.8872 219.887 27.4308 221.999 27.7676C224.028 28.1223 225.948 29.5332 227.759 32.0004C229.166 33.93 229.902 35.7775 229.967 37.5431C230.058 38.6191 229.868 39.7004 229.416 40.6811C228.964 41.6617 228.265 42.5081 227.387 43.1373C226.627 43.6895 225.732 44.0256 224.796 44.1097C223.297 44.1392 221.803 43.9129 220.38 43.4404C219.434 43.1182 218.439 42.9671 217.44 42.9943C216.731 43.1209 216.065 43.4216 215.501 43.8694ZM210.353 39.6481L214.3 45.0363L209.547 48.5141L205.6 43.1316L210.353 39.6481Z" fill="white"/>
<path d="M73.4105 115.238C68.5754 115.229 63.8324 113.915 59.6825 111.434C53.8767 108.002 49.7754 102.614 48.3798 96.6822C44.332 96.4002 40.5272 94.6474 37.6824 91.7541C34.8376 88.8609 33.1494 85.027 32.9358 80.9751C31.7172 80.1296 30.64 79.0968 29.744 77.9149C27.5676 75.1416 26.4923 71.6621 26.7246 68.1444C26.9568 64.6268 28.4803 61.3189 31.0024 58.8558C30.0453 54.7886 30.1461 50.5441 31.2952 46.5269C32.4442 42.5098 34.6033 38.8539 37.5663 35.9081C40.5294 32.9622 44.1977 30.8245 48.2215 29.6989C52.2453 28.5732 56.4904 28.4972 60.5519 29.4779C61.438 27.454 62.8356 25.6954 64.6071 24.3752C66.3787 23.0549 68.4633 22.2183 70.6561 21.9477C72.8489 21.6771 75.0743 21.9817 77.1137 22.8316C79.1532 23.6815 80.9363 25.0475 82.2879 26.7952C82.9152 27.6065 83.4433 28.4898 83.8609 29.4264C87.059 28.9009 90.3385 29.2036 93.3864 30.3057C96.4342 31.4077 99.1489 33.2724 101.271 35.7218C103.394 38.1712 104.853 41.1235 105.51 44.2972C106.167 47.4709 106 50.7601 105.025 53.8508C107.119 55.6346 108.658 57.9812 109.459 60.6126C110.261 63.244 110.292 66.05 109.548 68.6983C108.804 71.3466 107.316 73.7262 105.262 75.5553C103.207 77.3844 100.672 78.5864 97.955 79.0188C96.7295 83.6555 94.0069 87.7576 90.2101 90.6876C87.8205 92.5428 85.0739 93.8854 82.1421 94.6314C79.2102 95.3774 76.156 95.5108 73.1702 95.0234C73.113 100.577 74.4 108.111 80.6062 113.499C80.6661 113.553 80.7109 113.621 80.736 113.697C80.7611 113.773 80.7657 113.855 80.7492 113.934C80.7322 114.012 80.6938 114.085 80.6384 114.144C80.5829 114.202 80.5124 114.244 80.4346 114.265C78.1507 114.919 75.786 115.246 73.4105 115.238ZM54.7576 29.6838C51.1879 29.6947 47.6673 30.516 44.4613 32.0857C41.2553 33.6555 38.4476 35.9327 36.2499 38.7456C34.0522 41.5586 32.5219 44.8338 31.7744 48.3244C31.0269 51.8149 31.0817 55.4296 31.9348 58.8959C31.9544 58.9734 31.9525 59.0549 31.9293 59.1315C31.9062 59.2081 31.8626 59.2769 31.8032 59.3306C29.3607 61.6228 27.8646 64.7463 27.6094 68.0862C27.3543 71.4261 28.3586 74.7406 30.4247 77.3772C31.3333 78.5445 32.4269 79.555 33.6622 80.3687C33.7221 80.4074 33.7719 80.4597 33.8077 80.5214C33.8435 80.583 33.8642 80.6522 33.8681 80.7234C34.0232 84.6469 35.6406 88.3705 38.4022 91.1618C41.1639 93.9531 44.87 95.6101 48.7916 95.807C48.8897 95.8125 48.9833 95.8503 49.0578 95.9144C49.1322 95.9785 49.1834 96.0655 49.2034 96.1617C50.4676 101.979 54.4658 107.264 60.163 110.662C65.9354 114.143 72.8505 115.2 79.3993 113.602C73.2618 107.882 72.1178 100.068 72.2665 94.4628C72.2689 94.3979 72.2851 94.3342 72.314 94.276C72.3429 94.2178 72.3839 94.1664 72.4342 94.1252C72.4846 94.0841 72.5431 94.0542 72.6059 94.0374C72.6687 94.0207 72.7343 94.0175 72.7984 94.0281C78.0715 95.0254 83.5264 93.9732 88.0503 91.0863C92.5742 88.1993 95.8261 83.6951 97.1428 78.4926C97.163 78.4052 97.2094 78.326 97.2759 78.2657C97.3423 78.2054 97.4256 78.1668 97.5146 78.1551C100.116 77.7954 102.557 76.6842 104.536 74.9578C106.516 73.2313 107.948 70.9647 108.658 68.4359C109.368 65.9071 109.324 63.226 108.533 60.7216C107.741 58.2172 106.236 55.9983 104.201 54.337C104.131 54.2801 104.08 54.203 104.054 54.1162C104.028 54.0294 104.03 53.9368 104.058 53.8508C105.053 50.87 105.254 47.6812 104.64 44.5992C104.026 41.5172 102.619 38.6486 100.558 36.2765C98.4964 33.9045 95.8521 32.1111 92.8859 31.0733C89.9197 30.0355 86.7341 29.7892 83.6436 30.3588C83.5423 30.3784 83.4374 30.3623 83.3467 30.3133C83.256 30.2643 83.185 30.1854 83.1459 30.0899C82.2499 27.9164 80.7269 26.059 78.7711 24.7546C76.8152 23.4501 74.5152 22.7578 72.1643 22.7657C69.8134 22.7737 67.5181 23.4817 65.5711 24.7994C63.6242 26.1171 62.1138 27.9848 61.2326 30.1643C61.1908 30.2641 61.115 30.3458 61.0187 30.3951C60.9224 30.4443 60.8117 30.4578 60.7064 30.4331C58.7628 29.9343 56.7641 29.6826 54.7576 29.6838Z" fill="#E6E6E6"/>
<path d="M57.5375 67.4358L49.6382 69.2948L49.4552 68.5055C49.1561 67.4033 49.0497 66.2577 49.1406 65.1192C49.249 64.2048 49.5263 63.3184 49.9585 62.5052C50.9257 60.8991 51.9957 59.3572 53.1617 57.8892C54.0712 56.7051 54.4373 55.7384 54.2542 54.9777C54.1981 54.6456 54.0715 54.3293 53.8831 54.0501C53.6946 53.7709 53.4487 53.5353 53.1617 53.3589C52.477 53.0255 51.6898 52.9701 50.9652 53.2045C50.5095 53.2967 50.0777 53.482 49.6968 53.7487C49.3159 54.0154 48.9941 54.3579 48.7516 54.7546C48.2597 55.5611 48.1167 56.7909 48.3169 58.4554L40.04 59.3363C39.5564 56.6002 40.0981 53.7818 41.5616 51.4198C43.0144 49.1662 45.6838 47.5836 49.5696 46.6722C52.5897 45.9591 55.1771 46.0144 57.3316 46.8381C60.2526 47.9478 62.0487 49.925 62.7198 52.7698C62.9988 53.9751 62.9394 55.234 62.5482 56.4077C62.1669 57.6546 61.1506 59.3058 59.4995 61.3612C58.3555 62.8026 57.6824 63.9009 57.4803 64.6559C57.2663 65.5727 57.286 66.5286 57.5375 67.4358ZM49.8613 71.4398L58.3269 69.4493L60.06 76.9082L51.623 78.8758L49.8613 71.4398Z" fill="#EBEBEB"/>
<path d="M77.649 50.7277L72.1692 49.0575L72.3351 48.4855C72.545 47.7073 72.8854 46.9705 73.3418 46.3062C73.7328 45.7859 74.2178 45.3435 74.7718 45.002C75.9318 44.3731 77.1318 43.8209 78.364 43.3489C79.3364 42.9676 79.9084 42.5043 80.08 41.959C80.1639 41.736 80.1992 41.4976 80.1834 41.2598C80.1676 41.022 80.1012 40.7904 79.9884 40.5804C79.687 40.135 79.2265 39.8219 78.7014 39.7053C78.3904 39.6016 78.0614 39.5628 77.7347 39.5913C77.4081 39.6198 77.0908 39.7151 76.8024 39.8712C76.0596 40.3807 75.5048 41.1203 75.2237 41.9761L69.8354 39.5794C70.5162 37.7381 71.8522 36.2127 73.5878 35.2952C75.2733 34.4295 77.4621 34.4086 80.1543 35.2322C81.9681 35.6887 83.6 36.6862 84.8333 38.0922C85.4962 38.8296 85.9547 39.7274 86.1634 40.6967C86.3721 41.666 86.3237 42.673 86.0231 43.6178C85.7644 44.4526 85.2817 45.2005 84.6274 45.7799C83.538 46.6265 82.314 47.284 81.0066 47.7247C80.1368 48.0127 79.3238 48.4502 78.6042 49.0174C78.1491 49.4997 77.8209 50.0873 77.649 50.7277ZM71.54 50.4589L77.4087 52.2435L75.8357 57.4258L69.9613 55.6412L71.54 50.4589Z" fill="#EBEBEB"/>
<path d="M143 231.92C204.251 231.92 253.905 229.021 253.905 225.445C253.905 221.869 204.251 218.97 143 218.97C81.7489 218.97 32.095 221.869 32.095 225.445C32.095 229.021 81.7489 231.92 143 231.92Z" fill="#C5F1FF"/>
<path d="M90.1529 128.891L89.6267 128.668C90.0403 127.76 90.3197 126.797 90.4561 125.808L91.0281 125.871C90.8848 126.915 90.59 127.933 90.1529 128.891ZM89.9298 122.348C89.3977 121.159 88.57 120.127 87.5257 119.349C86.4813 118.571 85.2551 118.073 83.9639 117.903L84.0554 117.331C85.4403 117.516 86.7551 118.051 87.8745 118.887C88.9939 119.723 89.8806 120.832 90.4504 122.108L89.9298 122.348Z" fill="#C5F1FF"/>
<path d="M86.9441 134.646L81.3042 137.22L81.0525 136.648C80.6668 135.87 80.4172 135.033 80.3146 134.171C80.2602 133.469 80.3359 132.763 80.5377 132.089C81.026 130.746 81.5991 129.435 82.2537 128.165C82.7571 127.147 82.8848 126.367 82.6369 125.826C82.545 125.586 82.4031 125.369 82.2206 125.188C82.0381 125.008 81.8193 124.868 81.5787 124.779C81.0171 124.636 80.4222 124.712 79.9142 124.99C79.5878 125.129 79.2931 125.333 79.0482 125.59C78.8033 125.847 78.6133 126.151 78.4899 126.483C78.2421 127.151 78.3183 128.093 78.7187 129.309L72.6441 131.208C71.8844 129.229 71.8844 127.038 72.6441 125.059C73.4068 123.152 75.1647 121.576 77.9179 120.329C80.0687 119.345 82.0135 119.007 83.7466 119.299C84.8086 119.427 85.8189 119.83 86.6784 120.466C87.5378 121.103 88.2168 121.953 88.6487 122.931C89.0348 123.791 89.1773 124.741 89.0605 125.677C88.7842 127.138 88.262 128.543 87.5161 129.83C87.0146 130.682 86.6697 131.618 86.4979 132.592C86.4739 133.303 86.6272 134.009 86.9441 134.646ZM81.7961 138.787L87.825 136.076L90.2445 141.39L84.2157 144.084L81.7961 138.787Z" fill="#C5F1FF"/>
<path d="M73.0101 147.361L70.1501 151.251L69.784 150.948C69.2262 150.561 68.7371 150.083 68.3369 149.535C68.0329 149.078 67.8176 148.567 67.7019 148.031C67.5172 146.932 67.4082 145.821 67.3759 144.707C67.3301 143.821 67.1185 143.243 66.7467 142.991C66.5904 142.859 66.4071 142.762 66.2095 142.708C66.0119 142.653 65.8048 142.643 65.6027 142.677C65.165 142.791 64.7881 143.07 64.5502 143.455C64.3799 143.672 64.256 143.923 64.1861 144.191C64.1163 144.458 64.102 144.737 64.1441 145.01C64.3428 145.742 64.7745 146.389 65.3739 146.852L61.9419 150.462C60.6711 149.402 59.8344 147.911 59.591 146.275C59.3812 144.696 59.9799 142.951 61.3871 141.041C62.2597 139.731 63.5079 138.717 64.9678 138.129C65.74 137.81 66.582 137.699 67.4107 137.805C68.2393 137.911 69.0259 138.232 69.6925 138.736C70.2843 139.175 70.7435 139.768 71.0195 140.452C71.3867 141.558 71.5646 142.718 71.5458 143.884C71.5261 144.661 71.6462 145.436 71.9004 146.172C72.165 146.655 72.5466 147.064 73.0101 147.361ZM71.0825 152.143L74.1484 147.979L77.8206 150.685L74.7547 154.849L71.0825 152.143Z" fill="#C5F1FF"/>
<path d="M133.899 223.386C133.427 223.386 132.964 223.257 132.56 223.012C132.157 222.767 131.829 222.415 131.611 221.996C129.323 217.557 126.423 212.346 121.23 206.706C120.93 206.383 120.72 205.987 120.62 205.558C120.52 205.129 120.533 204.681 120.658 204.258C122.585 197.56 125.617 188.402 125.645 188.311C125.742 187.98 125.905 187.672 126.123 187.405C126.342 187.138 126.612 186.918 126.917 186.758C127.222 186.598 127.557 186.501 127.9 186.473C128.244 186.445 128.59 186.486 128.917 186.594C129.245 186.703 129.547 186.876 129.806 187.103C130.065 187.331 130.275 187.609 130.425 187.919C130.574 188.23 130.659 188.568 130.676 188.912C130.692 189.256 130.639 189.601 130.519 189.924C130.49 190.01 127.876 197.898 125.983 204.31C130.019 208.965 133.445 214.116 136.176 219.639C136.377 220.031 136.473 220.469 136.457 220.909C136.44 221.349 136.311 221.778 136.081 222.153C135.852 222.529 135.529 222.84 135.145 223.056C134.761 223.272 134.328 223.385 133.888 223.386H133.899Z" fill="#C5F1FF"/>
<path d="M138.172 225.445H118.272L128.82 219.462L137.657 219.805L138.172 225.445Z" fill="#263238"/>
<path d="M136.272 201.337C145.33 198.505 150.77 190.124 148.423 182.616C146.076 175.108 136.831 171.317 127.773 174.149C118.716 176.98 113.276 185.362 115.623 192.87C117.97 200.377 127.215 204.168 136.272 201.337Z" fill="#263238"/>
<path d="M86.7438 178.404C86.1516 178.402 85.5783 178.195 85.1212 177.818C84.6641 177.441 84.3511 176.918 84.2353 176.338C84.1196 175.757 84.2081 175.154 84.486 174.631C84.7638 174.108 85.2139 173.697 85.76 173.468C86.2045 173.282 86.5949 172.987 86.8949 172.61C87.1949 172.233 87.3948 171.786 87.476 171.311C87.5273 170.753 87.7604 170.226 88.1396 169.813C88.5188 169.4 89.0232 169.122 89.5753 169.023C90.2123 168.893 90.8423 168.731 91.4628 168.537C94.9406 167.524 99.2478 166.249 112.804 170.058C126.178 162.582 126.332 148.557 126.332 147.951C126.332 147.271 126.601 146.619 127.08 146.137C127.559 145.654 128.209 145.381 128.889 145.377C129.566 145.377 130.216 145.644 130.697 146.121C131.178 146.597 131.451 147.245 131.457 147.922C131.457 148.671 131.377 166.277 114.297 175.092C113.715 175.394 113.039 175.459 112.409 175.275C99.4823 171.546 95.8215 172.609 92.9214 173.462L92.1321 173.691C91.7505 174.701 91.1659 175.623 90.4143 176.4C89.6627 177.176 88.76 177.79 87.762 178.204C87.4397 178.339 87.0933 178.407 86.7438 178.404Z" fill="#263238"/>
<path d="M116.734 160.037C111.866 140.692 98.8988 90.7906 140.455 87.7418C177.738 85.0019 187.965 134.646 190.453 151.806C191.699 160.489 192.375 169.244 192.478 178.015C192.526 182.452 191.022 186.766 188.227 190.212C185.433 193.659 181.522 196.021 177.171 196.891C156.86 201.021 137.64 201.604 124.69 196.496C122.989 195.81 121.556 194.592 120.605 193.024C119.653 191.455 119.234 189.622 119.411 187.796C119.908 182.259 119.92 172.684 116.734 160.037Z" fill="#C5F1FF"/>
<path opacity="0.1" d="M190.476 151.817C188.131 135.618 178.91 90.6133 146.626 87.7533C144.785 87.5666 142.929 87.9292 141.293 88.7954C139.658 89.6617 138.315 90.9928 137.434 92.621C135.993 95.4123 136.039 98.7929 138.195 102.139C145.288 113.196 162.259 151.331 159.697 172.112C158.553 181.567 152.598 189.117 157.758 199.745C164.279 199.174 170.762 198.219 177.171 196.885C181.522 196.015 185.433 193.653 188.227 190.206C191.022 186.76 192.525 182.446 192.478 178.009C192.382 169.244 191.713 160.495 190.476 151.817Z" fill="black"/>
<path d="M184.893 178.284C184.826 178.284 184.761 178.257 184.713 178.21C184.665 178.163 184.637 178.099 184.636 178.032C184.539 169.272 183.864 160.528 182.617 151.857C176.439 109.152 159.811 87.5588 134.512 89.4235C134.478 89.4258 134.444 89.4215 134.412 89.4106C134.38 89.3998 134.35 89.3827 134.324 89.3604C134.299 89.3381 134.278 89.3109 134.263 89.2805C134.248 89.2501 134.239 89.2171 134.237 89.1833C134.234 89.1153 134.257 89.0488 134.302 88.9976C134.347 88.9464 134.409 88.9145 134.477 88.9087C160.074 87.0211 176.902 108.769 183.097 151.783C184.344 160.477 185.02 169.244 185.122 178.026C185.122 178.095 185.095 178.16 185.047 178.208C184.998 178.257 184.933 178.284 184.865 178.284H184.893Z" fill="#263238"/>
<path d="M184.505 202.699C193.562 199.868 199.002 191.486 196.655 183.978C194.308 176.471 185.063 172.68 176.005 175.511C166.948 178.343 161.508 186.725 163.855 194.232C166.202 201.74 175.447 205.531 184.505 202.699Z" fill="#263238"/>
<path d="M186.072 223.386C185.599 223.387 185.136 223.258 184.732 223.013C184.329 222.767 184 222.416 183.784 221.996C181.496 217.557 178.596 212.346 173.396 206.706C173.099 206.381 172.891 205.986 172.791 205.557C172.691 205.128 172.702 204.681 172.824 204.258C174.757 197.56 177.783 188.402 177.818 188.311C177.924 187.991 178.091 187.696 178.312 187.441C178.532 187.186 178.8 186.977 179.101 186.826C179.402 186.675 179.729 186.585 180.065 186.56C180.401 186.536 180.738 186.578 181.058 186.684C181.378 186.789 181.673 186.957 181.928 187.177C182.183 187.398 182.392 187.666 182.543 187.967C182.694 188.268 182.784 188.595 182.809 188.931C182.833 189.267 182.791 189.604 182.685 189.924C182.657 190.01 180.048 197.898 178.155 204.31C182.192 208.963 185.615 214.115 188.342 219.639C188.543 220.031 188.64 220.469 188.623 220.909C188.607 221.349 188.477 221.778 188.248 222.153C188.018 222.529 187.696 222.84 187.312 223.056C186.928 223.272 186.495 223.385 186.054 223.386H186.072Z" fill="#C5F1FF"/>
<path d="M180.683 145.176C180.11 145.177 179.552 144.985 179.1 144.632C178.648 144.278 178.327 143.784 178.189 143.227C178.051 142.67 178.103 142.083 178.337 141.559C178.572 141.035 178.975 140.605 179.482 140.337C179.974 140.074 191.145 133.971 194.28 119.305C186.844 116.193 173.447 109.163 170.519 105.628C170.231 105.287 170.034 104.877 169.947 104.439C169.609 102.326 169.805 100.163 170.519 98.1466L169.169 95.5382C168.856 94.9314 168.798 94.2253 169.006 93.5752C169.214 92.9252 169.672 92.3844 170.279 92.0719C170.885 91.7594 171.592 91.7007 172.242 91.9089C172.892 92.117 173.432 92.5748 173.745 93.1816L175.684 96.9339C175.893 97.3266 175.995 97.7671 175.981 98.2115C175.967 98.656 175.837 99.0891 175.604 99.4679C175.08 100.513 174.859 101.684 174.963 102.848C178.264 105.829 191.551 112.881 198.089 115.301C198.643 115.506 199.11 115.897 199.409 116.407C199.708 116.916 199.822 117.514 199.731 118.098C196.831 136.842 182.491 144.564 181.884 144.885C181.514 145.078 181.101 145.179 180.683 145.176Z" fill="#263238"/>
<path d="M172.498 105.274C172.267 105.273 172.041 105.209 171.843 105.091C171.645 104.972 171.482 104.803 171.372 104.6C171.262 104.397 171.209 104.168 171.218 103.937C171.227 103.707 171.297 103.483 171.423 103.289C171.514 103.151 173.63 99.954 176.857 99.0903C177.019 99.0467 177.189 99.0356 177.356 99.0576C177.523 99.0796 177.684 99.1342 177.829 99.2184C177.975 99.3026 178.103 99.4147 178.205 99.5483C178.308 99.6818 178.383 99.8343 178.427 99.9969C178.47 100.16 178.481 100.329 178.459 100.496C178.437 100.663 178.383 100.824 178.299 100.97C178.214 101.116 178.102 101.243 177.969 101.346C177.835 101.448 177.683 101.523 177.52 101.567C175.272 102.173 173.585 104.667 173.573 104.69C173.457 104.869 173.298 105.017 173.11 105.119C172.922 105.22 172.712 105.274 172.498 105.274Z" fill="#263238"/>
<path d="M190.344 225.445H170.445L180.992 219.462L189.83 219.805L190.344 225.445Z" fill="#263238"/>
<path d="M148.673 148.805C156.2 148.138 161.815 142.106 161.215 135.331C160.616 128.556 154.027 123.604 146.5 124.27C138.973 124.937 133.358 130.969 133.958 137.744C134.558 144.519 141.146 149.471 148.673 148.805Z" fill="white"/>
<path d="M146.116 144.339C148.112 143.771 148.891 140.364 147.856 136.73C146.821 133.097 144.364 130.612 142.368 131.18C140.372 131.749 139.593 135.156 140.628 138.789C141.663 142.423 144.12 144.908 146.116 144.339Z" fill="#263238"/>
<path d="M132.018 138.856C140.655 137.746 157.758 132.867 160.578 130.899C158.358 124.401 147.994 118.841 138.773 121.976C130.416 124.796 132.018 138.856 132.018 138.856Z" fill="#263238"/>
<path d="M133.693 143.031C144.418 140.995 158.358 137.574 162.345 135.384C162.099 142.374 160.057 149.461 149.12 151.857C140.174 153.808 133.693 143.031 133.693 143.031Z" fill="#263238"/>
<path d="M124.859 149.75C128.737 147.184 129.249 141.125 126.001 136.217C122.754 131.309 116.977 129.41 113.099 131.976C109.221 134.542 108.71 140.601 111.957 145.509C115.205 150.417 120.981 152.316 124.859 149.75Z" fill="white"/>
<path d="M119.17 141.041C119.817 144.107 119.256 146.664 117.912 146.761C116.568 146.858 114.955 144.438 114.303 141.373C113.651 138.307 114.217 135.755 115.555 135.653C116.894 135.55 118.518 137.975 119.17 141.041Z" fill="#263238"/>
<path d="M108.537 139.868C114.331 140.549 125.84 139.788 127.75 138.724C126.338 133.216 119.485 126.924 113.256 127.725C107.639 128.445 108.537 139.868 108.537 139.868Z" fill="#263238"/>
<path d="M109.612 143.477C116.814 143.804 126.2 143.62 128.877 142.608C128.631 148.105 127.19 153.344 119.834 153.259C113.828 153.19 109.612 143.477 109.612 143.477Z" fill="#263238"/>
<path d="M151.059 118.515C144.514 118.551 138.113 116.596 132.704 112.91C132.162 112.5 131.804 111.891 131.711 111.217C131.618 110.543 131.796 109.86 132.206 109.318C132.617 108.775 133.226 108.418 133.899 108.325C134.573 108.232 135.256 108.41 135.798 108.82C141.852 112.768 149.197 114.225 156.299 112.887C156.63 112.824 156.97 112.827 157.3 112.896C157.629 112.965 157.942 113.098 158.22 113.287C158.499 113.477 158.737 113.719 158.922 114.001C159.106 114.283 159.233 114.598 159.296 114.929C159.359 115.26 159.356 115.6 159.287 115.93C159.219 116.259 159.086 116.572 158.896 116.851C158.706 117.129 158.464 117.367 158.182 117.552C157.9 117.736 157.585 117.864 157.254 117.926C155.212 118.315 153.138 118.512 151.059 118.515Z" fill="#263238"/>
<path d="M105.179 114.094C104.769 114.092 104.364 113.991 104 113.801C103.636 113.611 103.323 113.337 103.087 113.001C102.85 112.665 102.698 112.277 102.642 111.87C102.586 111.463 102.628 111.049 102.765 110.662C104.121 106.875 106.38 104.421 109.469 103.357C115.063 101.43 121.092 105.176 121.35 105.337C121.912 105.706 122.306 106.281 122.449 106.937C122.592 107.594 122.471 108.281 122.113 108.85C121.755 109.419 121.189 109.825 120.535 109.981C119.881 110.137 119.192 110.03 118.615 109.684C117.471 108.957 113.828 107.276 111.122 108.214C109.566 108.757 108.411 110.124 107.593 112.401C107.413 112.897 107.085 113.325 106.653 113.628C106.221 113.931 105.707 114.094 105.179 114.094Z" fill="#263238"/>
<path d="M125.399 157.383C125.328 157.383 125.256 157.371 125.188 157.349C124.994 157.294 124.829 157.164 124.73 156.988C124.632 156.812 124.607 156.605 124.662 156.41C124.889 155.792 125.236 155.224 125.684 154.74C126.132 154.256 126.671 153.865 127.27 153.59C130.21 152.075 134.706 152.389 140.603 154.523C140.699 154.557 140.786 154.61 140.861 154.679C140.936 154.747 140.996 154.83 141.039 154.922C141.081 155.014 141.105 155.114 141.109 155.215C141.113 155.316 141.096 155.417 141.061 155.512C141.027 155.608 140.975 155.695 140.907 155.77C140.839 155.844 140.756 155.905 140.665 155.947C140.573 155.99 140.474 156.014 140.373 156.018C140.272 156.022 140.172 156.005 140.077 155.97C133.31 153.522 129.781 154.048 128.065 154.929C127.208 155.292 126.527 155.976 126.166 156.834C126.117 156.997 126.015 157.139 125.876 157.239C125.738 157.338 125.57 157.389 125.399 157.383Z" fill="#263238"/>
<path d="M101.175 154.563C92.2251 155.358 83.5203 157.914 75.5612 162.085C79.977 161.25 95.7814 180.806 99.8426 195.884C107.341 193.11 116.082 191.217 125.4 189.735C119.754 174.194 109.429 156.582 101.175 154.563Z" fill="#C5F1FF"/>
<path opacity="0.6" d="M101.175 154.563C92.2251 155.358 83.5203 157.914 75.5612 162.085C79.977 161.25 95.7814 180.806 99.8426 195.884C107.341 193.11 116.082 191.217 125.4 189.735C119.754 174.194 109.429 156.582 101.175 154.563Z" fill="white"/>
<path d="M101.175 154.563C91.4055 153.459 75.544 161.639 75.544 161.639C72.7355 163.429 73.4962 166.786 75.0292 168.211C76.4992 166.1 92.8927 160.609 99.0532 159.871C95.993 157.034 98.8415 154.952 101.175 154.563Z" fill="#C5F1FF"/>
<path opacity="0.2" d="M101.175 154.563C91.4055 153.459 75.544 161.639 75.544 161.639C72.7355 163.429 73.4962 166.786 75.0292 168.211C76.4992 166.1 92.8927 160.609 99.0532 159.871C95.993 157.034 98.8415 154.952 101.175 154.563Z" fill="white"/>
<path d="M86.7494 178.404C86.3235 178.405 85.9039 178.302 85.5277 178.102C85.1515 177.903 84.8304 177.613 84.593 177.26C82.734 174.4 83.8951 170.058 84.1468 169.212C84.3612 168.584 84.8102 168.063 85.3999 167.759C85.9896 167.455 86.6741 167.391 87.3101 167.58C87.946 167.769 88.484 168.197 88.8113 168.775C89.1387 169.352 89.2299 170.033 89.066 170.676C88.6484 172.112 88.5626 173.948 88.8944 174.451C89.2657 175.022 89.3954 175.716 89.2549 176.382C89.1144 177.048 88.7152 177.632 88.1451 178.003C87.7296 178.272 87.2439 178.411 86.7494 178.404Z" fill="#263238"/>
</svg>
