<svg width="151" height="13" viewBox="0 0 151 13" fill="none" xmlns="http://www.w3.org/2000/svg">
<path d="M2.84 1.06C3.58667 1.87333 4.36 2.75333 5.16 3.7C5.96 4.64667 6.84 5.70667 7.8 6.88C8.76 8.05333 9.50667 8.95333 10.04 9.58L10.22 9.94V1.08H11.16V12H10.88L3.34 3L3.18 2.66V10.64C3.18 11.04 3.03333 11.38 2.74 11.66C2.44667 11.9267 2.08667 12.06 1.66 12.06C1.27333 12.06 0.933333 11.92 0.64 11.64C0.36 11.3467 0.22 11.0067 0.22 10.62H1.12C1.12 10.7667 1.17333 10.8933 1.28 11C1.38667 11.1067 1.51333 11.16 1.66 11.16C1.80667 11.16 1.93333 11.1133 2.04 11.02C2.16 10.9133 2.22 10.7867 2.22 10.64V1.06H2.84ZM17.1205 3.88C18.3338 3.88 19.2938 4.26 20.0005 5.02C20.7205 5.78 21.0805 6.77333 21.0805 8C21.0805 9.24 20.7205 10.2467 20.0005 11.02C19.2805 11.78 18.3205 12.16 17.1205 12.16C15.9071 12.16 14.9405 11.78 14.2205 11.02C13.5005 10.26 13.1405 9.26667 13.1405 8.04C13.1405 6.81333 13.5005 5.81333 14.2205 5.04C14.9538 4.26667 15.9205 3.88 17.1205 3.88ZM19.3605 5.58C18.8271 4.99333 18.0805 4.7 17.1205 4.7C16.1605 4.7 15.4071 5.00667 14.8605 5.62C14.3138 6.22 14.0405 7.01333 14.0405 8C14.0405 9 14.3138 9.80667 14.8605 10.42C15.4071 11.02 16.1605 11.32 17.1205 11.32C18.0805 11.32 18.8271 11.0133 19.3605 10.4C19.9071 9.78667 20.1805 8.97333 20.1805 7.96C20.1805 6.96 19.9071 6.16667 19.3605 5.58ZM28.68 9.38C28.9333 9.98 29.3333 10.4867 29.88 10.9C30.4267 11.3133 31.0533 11.52 31.76 11.52C32.52 11.52 33.1533 11.2867 33.66 10.82C34.1667 10.3533 34.42 9.75333 34.42 9.02C34.42 8.48667 34.28 8.06667 34 7.76C33.7333 7.44 33.3467 7.14667 32.84 6.88L31.94 6.44C30.6867 5.96 29.8 5.30667 29.28 4.48C29.0667 4.12 28.96 3.74 28.96 3.34C28.96 2.55333 29.2333 1.92 29.78 1.44C30.34 0.946667 31.0333 0.7 31.86 0.7C32.5533 0.7 33.14 0.873333 33.62 1.22C34.1133 1.55333 34.36 2.01333 34.36 2.6C34.36 3.02667 34.2267 3.36667 33.96 3.62C33.7067 3.87333 33.3733 4 32.96 4C32.9467 4 32.92 4 32.88 4C32.8533 3.98667 32.8333 3.98 32.82 3.98L32.88 3.16C32.9067 3.17333 32.9467 3.18 33 3.18C33.1333 3.18 33.2467 3.11333 33.34 2.98C33.4333 2.84667 33.48 2.70667 33.48 2.56C33.48 2.24 33.3067 2 32.96 1.84C32.6267 1.66667 32.26 1.58 31.86 1.58C31.3 1.58 30.82 1.74 30.42 2.06C30.0333 2.38 29.84 2.80667 29.84 3.34C29.84 3.82 30.12 4.27333 30.68 4.7C30.96 4.92667 31.3267 5.15333 31.78 5.38C32.2333 5.59333 32.6467 5.79333 33.02 5.98C33.3933 6.15333 33.76 6.36667 34.12 6.62C34.4933 6.87333 34.78 7.20667 34.98 7.62C35.1933 8.02 35.3 8.5 35.3 9.06C35.3 10.02 34.96 10.82 34.28 11.46C33.6 12.0867 32.7667 12.4 31.78 12.4C30.5133 12.4 29.4267 11.8733 28.52 10.82C28.24 10.4867 28.02 10.1133 27.86 9.7L28.68 9.38ZM40.7453 11.32C41.492 11.32 42.3253 11.0667 43.2453 10.56L43.6653 11.24C42.812 11.8533 41.8386 12.16 40.7453 12.16C38.3186 12.16 37.1053 10.7867 37.1053 8.04C37.1053 6.88 37.4186 5.9 38.0453 5.1C38.672 4.28667 39.512 3.88 40.5653 3.88C41.4053 3.88 42.0986 4.09333 42.6453 4.52C43.192 4.93333 43.4653 5.52667 43.4653 6.3C43.4653 7.18 43.132 7.82 42.4653 8.22C41.812 8.60667 40.972 8.8 39.9453 8.8H38.0653C38.2786 10.48 39.172 11.32 40.7453 11.32ZM38.0053 7.96H39.9453C41.692 7.96 42.5653 7.40667 42.5653 6.3C42.5653 5.75333 42.3786 5.34667 42.0053 5.08C41.6453 4.8 41.1653 4.66 40.5653 4.66C39.7786 4.66 39.152 4.99333 38.6853 5.66C38.232 6.31333 38.0053 7.08 38.0053 7.96ZM49.9689 4.84C49.5556 4.76 49.2022 4.72 48.9089 4.72C48.0822 4.72 47.3756 5.24 46.7889 6.28V12H45.9089V6.36C45.9089 5.50667 45.6956 4.86667 45.2689 4.44L45.8089 3.92C46.2222 4.22667 46.5156 4.69333 46.6889 5.32C47.2356 4.36 48.0156 3.88 49.0289 3.88C49.2556 3.88 49.5689 3.92 49.9689 4V4.84ZM51.4175 4.46L51.8775 3.74C52.4642 4.12667 52.8842 4.70667 53.1375 5.48L54.8375 10.66L57.0175 4.02H57.8975L55.2975 12H54.3975L52.1975 5.36C52.0242 4.97333 51.7642 4.67333 51.4175 4.46ZM59.4286 1.84C59.2953 1.70667 59.2286 1.54667 59.2286 1.36C59.2286 1.17333 59.2886 1.01333 59.4086 0.879999C59.5419 0.746666 59.7019 0.679999 59.8886 0.679999C60.0753 0.679999 60.2353 0.746666 60.3686 0.879999C60.5153 1.01333 60.5886 1.17333 60.5886 1.36C60.5886 1.53333 60.5153 1.69333 60.3686 1.84C60.2353 1.97333 60.0753 2.04 59.8886 2.04C59.7153 2.04 59.5619 1.97333 59.4286 1.84ZM60.9286 12.16C60.5286 12.16 60.1886 12.02 59.9086 11.74C59.6286 11.46 59.4886 11.12 59.4886 10.72V4H60.3686V10.72C60.3686 10.8667 60.4219 11 60.5286 11.12C60.6486 11.2267 60.7819 11.28 60.9286 11.28C61.1153 11.28 61.2686 11.2 61.3886 11.04L62.1286 11.52C61.8219 11.9467 61.4219 12.16 60.9286 12.16ZM66.8977 11.26C67.6443 11.26 68.4777 11.0067 69.3977 10.5L69.8177 11.16C68.8977 11.7867 67.9243 12.1 66.8977 12.1C64.471 12.1 63.2577 10.7267 63.2577 7.98C63.2577 6.80667 63.5643 5.82 64.1777 5.02C64.8043 4.20667 65.651 3.8 66.7177 3.8C67.5577 3.8 68.251 4.02 68.7977 4.46C69.3443 4.88667 69.6177 5.48 69.6177 6.24H68.7177C68.7177 5.73333 68.5243 5.33333 68.1377 5.04C67.7643 4.74667 67.291 4.6 66.7177 4.6C65.8777 4.6 65.2377 4.95333 64.7977 5.66C64.371 6.36667 64.1577 7.22 64.1577 8.22C64.1577 9.16667 64.391 9.91333 64.8577 10.46C65.3377 10.9933 66.0177 11.26 66.8977 11.26ZM75.218 11.32C75.9646 11.32 76.798 11.0667 77.718 10.56L78.138 11.24C77.2846 11.8533 76.3113 12.16 75.218 12.16C72.7913 12.16 71.578 10.7867 71.578 8.04C71.578 6.88 71.8913 5.9 72.518 5.1C73.1446 4.28667 73.9846 3.88 75.038 3.88C75.878 3.88 76.5713 4.09333 77.118 4.52C77.6646 4.93333 77.938 5.52667 77.938 6.3C77.938 7.18 77.6046 7.82 76.938 8.22C76.2846 8.60667 75.4446 8.8 74.418 8.8H72.538C72.7513 10.48 73.6446 11.32 75.218 11.32ZM72.478 7.96H74.418C76.1646 7.96 77.038 7.40667 77.038 6.3C77.038 5.75333 76.8513 5.34667 76.478 5.08C76.118 4.8 75.638 4.66 75.038 4.66C74.2513 4.66 73.6246 4.99333 73.158 5.66C72.7046 6.31333 72.478 7.08 72.478 7.96ZM85.3778 9.84C85.3778 10.6267 85.1111 11.2133 84.5778 11.6C84.0445 11.9733 83.3378 12.16 82.4578 12.16C81.4578 12.16 80.5578 11.8533 79.7578 11.24L80.1978 10.56C81.0111 11.0667 81.8045 11.32 82.5778 11.32C83.8311 11.32 84.4578 10.8267 84.4578 9.84C84.4578 9.21333 84.0911 8.74667 83.3578 8.44C83.1845 8.36 82.9111 8.26 82.5378 8.14C82.1778 8.00667 81.8845 7.89333 81.6578 7.8C81.4445 7.69333 81.2111 7.55333 80.9578 7.38C80.7045 7.20667 80.5111 6.99333 80.3778 6.74C80.2578 6.47333 80.1978 6.16 80.1978 5.8C80.1978 5.2 80.4178 4.73333 80.8578 4.4C81.3111 4.05333 81.8711 3.88 82.5378 3.88C82.8978 3.88 83.2845 3.92667 83.6978 4.02C84.1111 4.11333 84.4111 4.22667 84.5978 4.36L84.4178 5.18C83.6045 4.86 82.9378 4.7 82.4178 4.7C82.0445 4.7 81.7378 4.8 81.4978 5C81.2578 5.2 81.1378 5.46667 81.1378 5.8C81.1378 6.02667 81.1978 6.23333 81.3178 6.42C81.4378 6.59333 81.5645 6.72667 81.6978 6.82C81.8311 6.9 82.0111 6.98667 82.2378 7.08C82.3845 7.14667 82.6378 7.25333 82.9978 7.4C83.3711 7.54667 83.6645 7.67333 83.8778 7.78C84.1045 7.88667 84.3445 8.04 84.5978 8.24C84.8645 8.42667 85.0578 8.65333 85.1778 8.92C85.3111 9.18667 85.3778 9.49333 85.3778 9.84ZM93.5206 1.96C93.3073 1.96 93.1273 2.04 92.9806 2.2C92.834 2.34667 92.7606 2.53333 92.7606 2.76H91.8606C91.8606 2.04 92.2006 1.52 92.8806 1.2C93.0806 1.12 93.294 1.08 93.5206 1.08H100.881V1.96H94.7006V5.78H98.9606V6.68H94.7006V12.02H93.7206V1.96H93.5206ZM106.007 3.88C107.221 3.88 108.181 4.26 108.887 5.02C109.607 5.78 109.967 6.77333 109.967 8C109.967 9.24 109.607 10.2467 108.887 11.02C108.167 11.78 107.207 12.16 106.007 12.16C104.794 12.16 103.827 11.78 103.107 11.02C102.387 10.26 102.027 9.26667 102.027 8.04C102.027 6.81333 102.387 5.81333 103.107 5.04C103.841 4.26667 104.807 3.88 106.007 3.88ZM108.247 5.58C107.714 4.99333 106.967 4.7 106.007 4.7C105.047 4.7 104.294 5.00667 103.747 5.62C103.201 6.22 102.927 7.01333 102.927 8C102.927 9 103.201 9.80667 103.747 10.42C104.294 11.02 105.047 11.32 106.007 11.32C106.967 11.32 107.714 11.0133 108.247 10.4C108.794 9.78667 109.067 8.97333 109.067 7.96C109.067 6.96 108.794 6.16667 108.247 5.58ZM112.317 5.78C112.317 5.44667 112.024 5.05333 111.437 4.6L111.917 3.88C112.464 4.24 112.85 4.66667 113.077 5.16C113.157 5.36 113.197 5.56667 113.197 5.78V9.38C113.197 10.66 113.797 11.3 114.997 11.3C115.597 11.3 116.084 11.1667 116.457 10.9C116.83 10.6333 117.217 10.2333 117.617 9.7V4H118.477V10.74C118.477 10.8867 118.537 11.02 118.657 11.14C118.777 11.2467 118.904 11.3 119.037 11.3C119.224 11.3 119.377 11.22 119.497 11.06L120.237 11.56C119.877 11.9733 119.477 12.18 119.037 12.18C118.637 12.18 118.304 12.0467 118.037 11.78C117.77 11.5 117.624 11.16 117.597 10.76C116.93 11.6667 116.064 12.12 114.997 12.12C113.304 12.12 112.41 11.3467 112.317 9.8V5.78ZM126.967 6.62C126.967 5.95333 126.82 5.46667 126.527 5.16C126.247 4.85333 125.787 4.7 125.147 4.7C124.734 4.7 124.354 4.78667 124.007 4.96C123.66 5.13333 123.394 5.32 123.207 5.52C123.034 5.70667 122.814 5.97333 122.547 6.32V12H121.667V6.36C121.667 5.50667 121.454 4.86667 121.027 4.44L121.567 3.92C122.02 4.22667 122.314 4.72 122.447 5.4C123.14 4.38667 124.04 3.88 125.147 3.88C126.947 3.88 127.847 4.73333 127.847 6.44V10.76C127.847 10.8933 127.9 11.02 128.007 11.14C128.127 11.26 128.26 11.32 128.407 11.32C128.594 11.32 128.747 11.24 128.867 11.08L129.587 11.56C129.307 11.9867 128.914 12.2 128.407 12.2C128.007 12.2 127.667 12.06 127.387 11.78C127.107 11.5 126.967 11.16 126.967 10.76V6.62ZM134.673 3.88C135.393 3.88 136.093 3.92667 136.773 4.02V0.36H137.653V10.72C137.653 10.8533 137.713 10.98 137.833 11.1C137.953 11.22 138.08 11.28 138.213 11.28C138.4 11.28 138.553 11.1933 138.673 11.02L139.393 11.52C139.153 11.9467 138.76 12.16 138.213 12.16C137.84 12.16 137.52 12.04 137.253 11.8C137 11.56 136.846 11.2667 136.793 10.92C136.313 11.7467 135.5 12.16 134.353 12.16C133.273 12.16 132.433 11.7733 131.833 11C131.246 10.2267 130.953 9.24 130.953 8.04C130.953 6.82667 131.286 5.83333 131.953 5.06C132.62 4.27333 133.526 3.88 134.673 3.88ZM136.773 4.86C136.44 4.75333 135.746 4.7 134.693 4.7C133.786 4.7 133.086 5.00667 132.593 5.62C132.1 6.23333 131.853 7.02667 131.853 8C131.853 8.93333 132.066 9.72 132.493 10.36C132.92 11 133.54 11.32 134.353 11.32C135.046 11.32 135.62 11.1067 136.073 10.68C136.54 10.2533 136.773 9.69333 136.773 9V4.86ZM147.091 9.46H146.191L146.031 0.74H147.251L147.091 9.46ZM145.831 11.26C145.831 11.0467 145.904 10.8667 146.051 10.72C146.211 10.56 146.398 10.48 146.611 10.48C146.824 10.48 147.004 10.56 147.151 10.72C147.311 10.8667 147.391 11.0467 147.391 11.26C147.391 11.4733 147.311 11.6533 147.151 11.8C147.004 11.9467 146.824 12.02 146.611 12.02C146.398 12.02 146.211 11.9467 146.051 11.8C145.904 11.64 145.831 11.46 145.831 11.26ZM150.118 9.46H149.218L149.058 0.74H150.278L150.118 9.46ZM148.858 11.26C148.858 11.0467 148.932 10.8667 149.078 10.72C149.238 10.56 149.425 10.48 149.638 10.48C149.852 10.48 150.032 10.56 150.178 10.72C150.338 10.8667 150.418 11.0467 150.418 11.26C150.418 11.4733 150.338 11.6533 150.178 11.8C150.032 11.9467 149.852 12.02 149.638 12.02C149.425 12.02 149.238 11.9467 149.078 11.8C148.932 11.64 148.858 11.46 148.858 11.26Z" fill="#1F1C1C"/>
</svg>
