<svg width="19" height="18" viewBox="0 0 19 18" fill="none" xmlns="http://www.w3.org/2000/svg">
<path d="M9.5 8.69565C8.19375 8.69565 7.125 8.28986 6.29375 7.47826C5.4625 6.66667 5.04688 5.62319 5.04688 4.34783C5.04688 3.07246 5.4625 2.02899 6.29375 1.21739C7.125 0.405797 8.19375 0 9.5 0C10.8062 0 11.875 0.405797 12.7063 1.21739C13.5375 2.02899 13.9531 3.07246 13.9531 4.34783C13.9531 5.62319 13.5375 6.66667 12.7063 7.47826C11.875 8.28986 10.8062 8.69565 9.5 8.69565ZM0 18V15.2754C0 14.5411 0.188021 13.913 0.564062 13.3913C0.940104 12.8696 1.425 12.4734 2.01875 12.2029C3.34479 11.6232 4.61641 11.1884 5.83359 10.8986C7.05078 10.6087 8.27292 10.4638 9.5 10.4638C10.7271 10.4638 11.9443 10.6135 13.1516 10.913C14.3589 11.2126 15.6255 11.6425 16.9516 12.2029C17.5651 12.4734 18.0599 12.8696 18.4359 13.3913C18.812 13.913 19 14.5411 19 15.2754V18H0ZM1.78125 16.2609H17.2188V15.2754C17.2188 14.9662 17.1247 14.6715 16.9367 14.3913C16.7487 14.1111 16.5161 13.9034 16.2391 13.7681C14.9724 13.1691 13.8146 12.7585 12.7656 12.5362C11.7167 12.314 10.6281 12.2029 9.5 12.2029C8.37187 12.2029 7.27344 12.314 6.20469 12.5362C5.13594 12.7585 3.97813 13.1691 2.73125 13.7681C2.45417 13.9034 2.22656 14.1111 2.04844 14.3913C1.87031 14.6715 1.78125 14.9662 1.78125 15.2754V16.2609ZM9.5 6.95652C10.2719 6.95652 10.9102 6.71014 11.4148 6.21739C11.9195 5.72464 12.1719 5.10145 12.1719 4.34783C12.1719 3.5942 11.9195 2.97101 11.4148 2.47826C10.9102 1.98551 10.2719 1.73913 9.5 1.73913C8.72812 1.73913 8.08984 1.98551 7.58516 2.47826C7.08047 2.97101 6.82812 3.5942 6.82812 4.34783C6.82812 5.10145 7.08047 5.72464 7.58516 6.21739C8.08984 6.71014 8.72812 6.95652 9.5 6.95652Z" fill="#1F1C1C"/>
</svg>
