<svg width="286" height="284" viewBox="0 0 286 284" fill="none" xmlns="http://www.w3.org/2000/svg">
<path d="M145.914 0.0842956C145.914 0.0842956 96.6478 1.63228 63.7913 42.7301C30.9349 83.8278 28.5221 140.841 25.3607 186.939C22.1994 233.037 48.2897 268.524 87.7596 273.895C127.229 279.266 138.85 244.033 183.807 224.948C228.764 205.864 243.517 207.572 271.199 167.106C298.881 126.641 281.955 63.3407 234.636 30.1064C187.317 -3.12795 145.914 0.0842956 145.914 0.0842956Z" fill="#C5F1FF"/>
<path opacity="0.7" d="M145.914 0.0842956C145.914 0.0842956 96.6478 1.63228 63.7913 42.7301C30.9349 83.8278 28.5221 140.841 25.3607 186.939C22.1994 233.037 48.2897 268.524 87.7596 273.895C127.229 279.266 138.85 244.033 183.807 224.948C228.764 205.864 243.517 207.572 271.199 167.106C298.881 126.641 281.955 63.3407 234.636 30.1064C187.317 -3.12795 145.914 0.0842956 145.914 0.0842956Z" fill="#C5F1FF"/>
<path d="M128.756 15.6004V21.8941H154.432" stroke="#263238" stroke-linecap="round" stroke-linejoin="round"/>
<path d="M141.35 23.3476V30.6151H125.362" stroke="#263238" stroke-linecap="round" stroke-linejoin="round"/>
<path d="M129.242 33.0425V38.8565H150.071" stroke="#263238" stroke-linecap="round" stroke-linejoin="round"/>
<path d="M148.138 31.1021H159.766" stroke="#263238" stroke-linecap="round" stroke-linejoin="round"/>
<path d="M157.339 20.9275V14.6266" stroke="#263238" stroke-linecap="round" stroke-linejoin="round"/>
<path d="M142.324 12.6862V5.90558" stroke="#263238" stroke-linecap="round" stroke-linejoin="round"/>
<path d="M151.045 13.66H166.06" stroke="#263238" stroke-linecap="round" stroke-linejoin="round"/>
<path d="M128.756 56.2985V62.5922H154.432" stroke="#263238" stroke-linecap="round" stroke-linejoin="round"/>
<path d="M141.35 64.0457V71.3132H125.362" stroke="#263238" stroke-linecap="round" stroke-linejoin="round"/>
<path d="M129.242 73.7405V79.5545H150.071" stroke="#263238" stroke-linecap="round" stroke-linejoin="round"/>
<path d="M148.138 71.8001H159.766" stroke="#263238" stroke-linecap="round" stroke-linejoin="round"/>
<path d="M157.339 61.6256V55.3247" stroke="#263238" stroke-linecap="round" stroke-linejoin="round"/>
<path d="M142.324 53.3842V46.6037" stroke="#263238" stroke-linecap="round" stroke-linejoin="round"/>
<path d="M151.045 54.3581H166.06" stroke="#263238" stroke-linecap="round" stroke-linejoin="round"/>
<path d="M128.756 96.9966V103.29H154.432" stroke="#263238" stroke-linecap="round" stroke-linejoin="round"/>
<path d="M141.35 104.744V112.011H125.362" stroke="#263238" stroke-linecap="round" stroke-linejoin="round"/>
<path d="M129.242 114.439V120.253H150.071" stroke="#263238" stroke-linecap="round" stroke-linejoin="round"/>
<path d="M148.138 112.498H159.766" stroke="#263238" stroke-linecap="round" stroke-linejoin="round"/>
<path d="M157.339 102.324V96.0227" stroke="#263238" stroke-linecap="round" stroke-linejoin="round"/>
<path d="M142.324 94.0823V87.3017" stroke="#263238" stroke-linecap="round" stroke-linejoin="round"/>
<path d="M151.045 95.0562H166.06" stroke="#263238" stroke-linecap="round" stroke-linejoin="round"/>
<path d="M128.756 137.695V143.988H154.432" stroke="#263238" stroke-linecap="round" stroke-linejoin="round"/>
<path d="M141.35 145.442V152.709H125.362" stroke="#263238" stroke-linecap="round" stroke-linejoin="round"/>
<path d="M129.242 155.129V160.943H150.071" stroke="#263238" stroke-linecap="round" stroke-linejoin="round"/>
<path d="M148.138 153.196H159.766" stroke="#263238" stroke-linecap="round" stroke-linejoin="round"/>
<path d="M157.339 143.022V136.721" stroke="#263238" stroke-linecap="round" stroke-linejoin="round"/>
<path d="M142.324 134.78V128" stroke="#263238" stroke-linecap="round" stroke-linejoin="round"/>
<path d="M151.045 135.754H166.06" stroke="#263238" stroke-linecap="round" stroke-linejoin="round"/>
<path d="M128.756 178.385V184.686H154.432" stroke="#263238" stroke-linecap="round" stroke-linejoin="round"/>
<path d="M141.35 186.14V193.407H125.362" stroke="#263238" stroke-linecap="round" stroke-linejoin="round"/>
<path d="M129.242 195.827V201.641H150.071" stroke="#263238" stroke-linecap="round" stroke-linejoin="round"/>
<path d="M148.138 193.894H159.766" stroke="#263238" stroke-linecap="round" stroke-linejoin="round"/>
<path d="M157.339 183.72V177.419" stroke="#263238" stroke-linecap="round" stroke-linejoin="round"/>
<path d="M142.324 175.478V168.698" stroke="#263238" stroke-linecap="round" stroke-linejoin="round"/>
<path d="M151.045 176.452H166.06" stroke="#263238" stroke-linecap="round" stroke-linejoin="round"/>
<path d="M128.756 219.083V225.384H154.432" stroke="#263238" stroke-linecap="round" stroke-linejoin="round"/>
<path d="M141.35 226.838V234.105H125.362" stroke="#263238" stroke-linecap="round" stroke-linejoin="round"/>
<path d="M129.242 236.525V242.34H150.071" stroke="#263238" stroke-linecap="round" stroke-linejoin="round"/>
<path d="M148.138 234.592H159.766" stroke="#263238" stroke-linecap="round" stroke-linejoin="round"/>
<path d="M157.339 224.418V218.117" stroke="#263238" stroke-linecap="round" stroke-linejoin="round"/>
<path d="M142.324 216.176V209.396" stroke="#263238" stroke-linecap="round" stroke-linejoin="round"/>
<path d="M151.045 217.15H166.06" stroke="#263238" stroke-linecap="round" stroke-linejoin="round"/>
<path d="M128.756 259.782V266.082H154.432" stroke="#263238" stroke-linecap="round" stroke-linejoin="round"/>
<path d="M141.35 267.536V274.804H125.362" stroke="#263238" stroke-linecap="round" stroke-linejoin="round"/>
<path d="M129.242 277.224V283.038H150.071" stroke="#263238" stroke-linecap="round" stroke-linejoin="round"/>
<path d="M148.138 275.29H159.766" stroke="#263238" stroke-linecap="round" stroke-linejoin="round"/>
<path d="M157.339 265.116V258.815" stroke="#263238" stroke-linecap="round" stroke-linejoin="round"/>
<path d="M142.324 256.875V250.094" stroke="#263238" stroke-linecap="round" stroke-linejoin="round"/>
<path d="M151.045 257.848H166.06" stroke="#263238" stroke-linecap="round" stroke-linejoin="round"/>
<path d="M227.972 45.637C227.972 45.637 237.986 102.418 275.21 120.107L270.559 211.336H278.466" stroke="#263238" stroke-linecap="round" stroke-linejoin="round"/>
<path d="M278.474 45.637H227.972V210.406H278.474V45.637Z" stroke="#263238" stroke-linecap="round" stroke-linejoin="round"/>
<path d="M275.218 120.107C275.218 120.107 251.17 95.3977 249.156 62.3959" stroke="#263238" stroke-linecap="round" stroke-linejoin="round"/>
<path d="M263.473 59.2636C263.473 57.8537 263.51 56.4148 263.582 54.9467" stroke="#263238" stroke-linecap="round" stroke-linejoin="round"/>
<path d="M276.613 113.588C276.613 113.588 264.258 97.7596 263.532 64.1692" stroke="#263238" stroke-linecap="round" stroke-linejoin="round"/>
<path d="M272.892 83.806L246.358 120.572" stroke="#263238" stroke-linecap="round" stroke-linejoin="round"/>
<path d="M276.148 71.2332L249.622 108.007" stroke="#263238" stroke-linecap="round" stroke-linejoin="round"/>
<path d="M225.181 45.637H174.679V210.406H225.181V45.637Z" fill="#4C4C4C" stroke="#263238" stroke-linecap="round" stroke-linejoin="round"/>
<path d="M281.431 32.1849H170.173V46.2039H281.431V32.1849Z" fill="#263238" stroke="#263238" stroke-linecap="round" stroke-linejoin="round"/>
<path d="M178.298 34.1253V45.1211" stroke="#6B6B6B" stroke-linecap="round" stroke-linejoin="round"/>
<path d="M185.13 34.1253V45.1211" stroke="#6B6B6B" stroke-linecap="round" stroke-linejoin="round"/>
<path d="M191.954 34.1253V45.1211" stroke="#6B6B6B" stroke-linecap="round" stroke-linejoin="round"/>
<path d="M198.778 34.1253V45.1211" stroke="#6B6B6B" stroke-linecap="round" stroke-linejoin="round"/>
<path d="M205.61 34.1253V45.1211" stroke="#6B6B6B" stroke-linecap="round" stroke-linejoin="round"/>
<path d="M212.434 34.1253V45.1211" stroke="#6B6B6B" stroke-linecap="round" stroke-linejoin="round"/>
<path d="M219.265 34.1253V45.1211" stroke="#6B6B6B" stroke-linecap="round" stroke-linejoin="round"/>
<path d="M226.089 34.1253V45.1211" stroke="#6B6B6B" stroke-linecap="round" stroke-linejoin="round"/>
<path d="M232.921 34.1253V45.1211" stroke="#6B6B6B" stroke-linecap="round" stroke-linejoin="round"/>
<path d="M239.745 34.1253V45.1211" stroke="#6B6B6B" stroke-linecap="round" stroke-linejoin="round"/>
<path d="M246.576 34.1253V45.1211" stroke="#6B6B6B" stroke-linecap="round" stroke-linejoin="round"/>
<path d="M253.401 34.1253V45.1211" stroke="#6B6B6B" stroke-linecap="round" stroke-linejoin="round"/>
<path d="M260.232 34.1253V45.1211" stroke="#6B6B6B" stroke-linecap="round" stroke-linejoin="round"/>
<path d="M267.056 34.1253V45.1211" stroke="#6B6B6B" stroke-linecap="round" stroke-linejoin="round"/>
<path d="M273.888 34.1253V45.1211" stroke="#6B6B6B" stroke-linecap="round" stroke-linejoin="round"/>
<path d="M182.899 187.768C182.693 187.157 182.366 186.594 181.937 186.112C181.509 185.63 180.988 185.239 180.406 184.962C179.077 184.538 177.657 184.485 176.3 184.81C173.814 185.246 171.641 186.263 169.286 187.077C169.286 187.077 170.289 186.707 174.425 188.72C175.968 189.532 177.681 189.97 179.425 189.999C180.82 189.97 182.964 189.57 182.899 187.768Z" fill="#C5F1FF"/>
<path d="M183.117 181.699C183.098 181.055 182.95 180.421 182.68 179.835C182.41 179.249 182.025 178.724 181.547 178.291C180.395 177.503 179.051 177.044 177.659 176.961C175.151 176.663 172.789 176.961 170.289 177.106C170.289 177.106 171.358 177.041 174.73 180.166C175.973 181.389 177.487 182.303 179.148 182.833C180.5 183.204 182.666 183.444 183.117 181.699Z" fill="#C5F1FF"/>
<path d="M187.39 189.723C186.897 189.307 186.493 188.796 186.202 188.22C185.911 187.644 185.739 187.016 185.697 186.372C185.794 184.982 186.272 183.644 187.077 182.506C188.393 180.326 190.115 178.698 191.772 176.816C191.772 176.816 191.045 177.615 191.402 182.201C191.584 183.924 191.36 185.667 190.747 187.288C190.202 188.604 189.076 190.449 187.39 189.723Z" fill="#C5F1FF"/>
<path d="M193.357 193.044C193.303 192.401 193.379 191.754 193.58 191.141C193.781 190.528 194.103 189.962 194.527 189.476C195.578 188.561 196.86 187.95 198.233 187.71C200.689 187.114 203.073 187.157 205.573 186.983C205.573 186.983 204.505 187.041 201.511 190.529C200.421 191.891 199.024 192.974 197.434 193.691C196.14 194.236 194.018 194.723 193.357 193.044Z" fill="#C5F1FF"/>
<path d="M192.971 185.384C192.334 185.281 191.724 185.051 191.178 184.706C190.632 184.361 190.162 183.91 189.795 183.378C189.165 182.134 188.887 180.742 188.989 179.352C188.989 176.83 189.643 174.526 190.093 172.084C190.093 172.084 189.89 173.138 192.543 176.888C193.593 178.282 194.302 179.902 194.614 181.619C194.803 182.986 194.759 185.159 192.971 185.384Z" fill="#C5F1FF"/>
<path d="M199.127 181.539C199.597 181.981 200.152 182.323 200.757 182.546C201.363 182.768 202.007 182.866 202.652 182.833C204.024 182.574 205.299 181.943 206.336 181.009C208.32 179.446 209.767 177.55 211.424 175.682C211.424 175.682 210.697 176.489 206.118 176.678C204.375 176.699 202.66 177.127 201.111 177.928C199.912 178.618 198.218 179.984 199.127 181.539Z" fill="#C5F1FF"/>
<path d="M197.346 180.042C197.989 180.092 198.636 180.01 199.247 179.803C199.858 179.596 200.42 179.267 200.9 178.836C201.805 177.774 202.403 176.485 202.63 175.108C203.197 172.651 203.131 170.268 203.262 167.768C203.262 167.768 203.219 168.836 199.759 171.859C198.414 172.969 197.347 174.378 196.641 175.973C196.125 177.281 195.66 179.403 197.346 180.042Z" fill="#C5F1FF"/>
<path d="M189.672 200.973L185.958 191.83L181.678 181.271" stroke="#263238" stroke-linecap="round" stroke-linejoin="round"/>
<path d="M190.529 199.403L194.236 186.692L198.233 178.843" stroke="#263238" stroke-linecap="round" stroke-linejoin="round"/>
<path d="M191.954 194.403L195.668 192.259" stroke="#263238" stroke-linecap="round" stroke-linejoin="round"/>
<path d="M194.236 186.692L192.383 182.557" stroke="#263238" stroke-linecap="round" stroke-linejoin="round"/>
<path d="M196.561 182.579L201.089 180.558" stroke="#263238" stroke-linecap="round" stroke-linejoin="round"/>
<path d="M186.67 193.545L188.24 187.266" stroke="#263238" stroke-linecap="round" stroke-linejoin="round"/>
<path d="M184.592 188.771L180.965 186.838" stroke="#263238" stroke-linecap="round" stroke-linejoin="round"/>
<path d="M193.371 205.537H186.678L185.246 197.971H194.81L193.371 205.537Z" fill="#263238" stroke="#263238" stroke-linecap="round" stroke-linejoin="round"/>
<path d="M224.607 189.04C224.607 189.04 224.52 196.307 225.217 198.727C225.915 201.147 229.839 213.916 230.188 215.922C230.378 216.881 230.494 217.853 230.537 218.829C230.537 218.829 228.531 219.701 225.741 221.097C222.95 222.492 220.849 223.807 221.547 224.069C222.245 224.331 226.525 224.331 227.136 224.331C227.746 224.331 236.736 223.604 236.736 223.604C236.736 223.604 237.085 221.765 237.172 220.697C237.26 219.629 236.3 217.732 236.3 217.296C236.3 216.86 236.911 211.184 236.475 207.521C236.039 203.858 233.248 197.31 233.248 196.263V191.467L233.073 189.541L224.607 189.04Z" fill="white" stroke="#263238" stroke-linecap="round" stroke-linejoin="round"/>
<path d="M236.736 223.604C236.736 223.604 237.085 221.765 237.172 220.697C237.18 220.452 237.156 220.208 237.1 219.97C235.733 220.145 231.671 220.799 231.671 220.799C231.653 220.266 231.565 219.738 231.409 219.229C231.148 218.357 230.537 218.793 230.537 218.793C230.537 218.793 228.531 219.665 225.741 221.06C222.95 222.456 220.849 223.771 221.547 224.033C222.245 224.294 226.525 224.294 227.136 224.294C227.746 224.294 236.736 223.604 236.736 223.604Z" fill="white" stroke="#263238" stroke-linecap="round" stroke-linejoin="round"/>
<path d="M224.52 134.402C224.52 134.402 217.979 132.484 213.785 129.257C209.592 126.03 208.894 124.715 207.848 123.232C206.801 121.75 205.144 121.662 203.662 121.837C202.179 122.011 200.864 121.662 201.387 122.447C201.91 123.232 203.567 123.174 203.923 123.174C204.216 123.184 204.507 123.213 204.796 123.261L199.817 126.052C199.817 126.052 197.288 125.18 197.724 126.401C198.16 127.622 201.743 128.32 202.964 128.32C204.635 128.155 206.295 127.893 207.935 127.535C207.935 127.535 213.785 134.344 217.012 137.658C220.239 140.972 223.233 141.743 223.233 141.743L225.937 136.655L224.52 134.402Z" fill="white" stroke="#263238" stroke-linecap="round" stroke-linejoin="round"/>
<path d="M207.376 126.045C207.376 126.045 205.966 125.042 205.159 125.042C204.352 125.042 200.937 126.648 200.937 126.648" stroke="#263238" stroke-linecap="round" stroke-linejoin="round"/>
<path d="M230.363 191.663C230.363 191.663 230.566 194.89 231.089 198.291C231.613 201.692 235.341 215.05 235.341 216.969C235.341 218.887 235.254 219.672 235.254 219.672C234.208 220.641 232.994 221.41 231.671 221.94C229.491 222.819 226.177 223.953 226.177 224.65C226.177 225.348 227.63 225.377 229.752 225.377H242.579C242.579 225.377 243.372 225.116 243.372 223.284C243.372 221.453 241.918 219.44 241.918 219.004C241.918 218.567 243.233 211.147 243.233 208.444C243.233 205.74 241.133 200.326 240.697 197.71C240.448 195.506 240.419 193.284 240.61 191.074L230.312 190.638L230.363 191.663Z" fill="white" stroke="#263238" stroke-linecap="round" stroke-linejoin="round"/>
<path d="M243.372 223.255C243.349 222.626 243.216 222.006 242.979 221.424L242.492 221.591C240.902 222.02 239.249 222.168 237.608 222.027C236.931 221.734 236.355 221.249 235.951 220.631C235.225 219.585 234.818 220.37 234.818 220.37H234.462C233.61 221.029 232.67 221.567 231.671 221.969C229.491 222.848 226.177 223.982 226.177 224.679C226.177 225.377 227.63 225.406 229.752 225.406H242.579C242.579 225.406 243.372 225.086 243.372 223.255Z" fill="white" stroke="#263238" stroke-linecap="round" stroke-linejoin="round"/>
<path d="M220.762 172.288C220.762 172.288 219.454 185.9 219.367 187.47C219.373 188.182 219.255 188.891 219.018 189.563C221.853 190.085 224.717 190.434 227.594 190.609H230.297V173.422L220.762 172.288Z" fill="#263238" stroke="#263238" stroke-linecap="round" stroke-linejoin="round"/>
<path d="M225.217 174.032C225.217 174.032 225.392 187.906 225.13 189.294C224.868 190.682 224.781 191.569 224.781 191.569C224.781 191.569 228.095 193.226 234.033 193.836C239.97 194.447 247.216 192.186 247.216 192.186C247.216 192.186 245.646 183.633 245.646 180.929C245.646 178.226 245.733 172.288 245.733 172.288L225.05 172.375L225.217 174.032Z" fill="#263238" stroke="#263238" stroke-linecap="round" stroke-linejoin="round"/>
<path d="M224.171 129.788C224.171 129.788 224.781 136.154 221.896 140.609C219.011 145.064 217.361 152.477 217.012 156.488C216.663 160.5 216.402 172.724 216.402 172.724C216.402 172.724 218.844 174.119 228.095 175.34C237.347 176.561 248.517 172.811 248.517 172.811C248.517 172.811 246.947 157.448 246.686 155.703C246.424 153.959 246.162 140.522 244.854 135.282C243.546 130.042 240.835 125.333 238.742 123.501C237.607 122.452 236.228 121.703 234.73 121.321L224.171 129.788Z" fill="#C5F1FF" stroke="#263238" stroke-linecap="round" stroke-linejoin="round"/>
<path d="M225.159 124.569L222.405 127.404L223.11 131.415L227.129 126.612L225.159 124.569Z" fill="#C5F1FF" stroke="#263238" stroke-linecap="round" stroke-linejoin="round"/>
<path d="M220.203 103.552C220.203 103.552 217.448 108.276 217.521 109.141C217.594 110.005 218.153 110.478 217.921 111.11C217.688 111.742 215.239 113.472 215.639 114.337C216.091 115.012 216.716 115.554 217.448 115.907C217.448 115.907 218.313 121.575 219.018 122.208C219.723 122.84 221.693 122.44 221.693 122.44L225.326 126.299L233.822 120.005L231.932 116.459C231.932 116.459 234.374 112.287 234.214 109.3C234.082 107.671 233.515 106.106 232.573 104.769C231.631 103.432 230.349 102.372 228.858 101.699C225.711 100.325 221.62 100.245 220.203 103.552Z" fill="white" stroke="#263238" stroke-linecap="round" stroke-linejoin="round"/>
<path d="M231.954 116.459C231.954 116.459 234.396 112.287 234.236 109.3C234.102 107.668 233.532 106.102 232.586 104.765C231.64 103.428 230.353 102.369 228.858 101.699C226.097 100.529 222.616 100.325 220.864 102.513C221.458 102.12 222.154 101.911 222.866 101.911C223.578 101.911 224.274 102.12 224.868 102.513C226.911 104.01 226.322 105.5 224.941 106.524C223.56 107.549 222.034 107.941 222.819 108.705C223.604 109.468 224.999 110.361 224.868 111.306C224.738 112.251 224.396 112.956 225.341 112.876C226.286 112.796 226.678 111.539 227.223 111.306C227.768 111.074 229.403 111.539 229.113 113.428C228.987 114.005 228.723 114.543 228.344 114.995C227.964 115.447 227.479 115.8 226.932 116.023C226.932 116.023 227.405 117.52 228.662 117.68C229.563 117.789 231.148 116.953 231.976 116.51L231.954 116.459Z" fill="#263238" stroke="#263238" stroke-linecap="round" stroke-linejoin="round"/>
<path d="M220.595 111.27C220.595 111.699 220.384 112.055 220.123 112.055C219.861 112.055 219.65 111.699 219.65 111.27C219.65 110.841 219.861 110.478 220.123 110.478C220.384 110.478 220.595 110.834 220.595 111.27Z" fill="#263238"/>
<path d="M218.873 109.533C218.873 109.533 220.21 108.356 221.307 109.533" stroke="#263238" stroke-linecap="round" stroke-linejoin="round"/>
<path d="M219.098 116.539C220.046 116.363 220.936 115.959 221.693 115.362" stroke="#263238" stroke-linecap="round" stroke-linejoin="round"/>
<path d="M219.338 116.779C219.338 116.779 220.123 118.116 221.068 117.723C222.012 117.331 221.794 115.674 221.794 115.674L219.338 116.779Z" fill="#263238"/>
<path d="M223.19 126.772L225.472 131.415L235.937 121.103L233.735 118.036L223.19 126.772Z" fill="#C5F1FF" stroke="#263238" stroke-linecap="round" stroke-linejoin="round"/>
<path d="M229.047 144.097C229.047 144.097 215.871 140.347 214.563 139.824C213.874 139.572 213.227 139.216 212.644 138.77C212.644 138.77 212.034 135.195 211.416 134.671C210.799 134.148 208.8 133.886 208.015 133.218C207.23 132.549 206.794 132.956 207.056 133.945C207.393 134.692 207.938 135.328 208.626 135.776L208.8 136.386C208.8 136.386 206.009 135.34 205.224 134.933C204.439 134.526 202.317 133.363 202.259 134.206C202.201 135.049 203.131 135.776 203.131 135.776C203.131 135.776 204.178 137.869 204.963 139.09C205.748 140.311 207.579 141.016 209.149 141.452C209.987 141.671 210.804 141.963 211.591 142.324C211.591 142.324 217.005 145.958 220.929 148.429C224.854 150.9 233.241 154.192 234.2 153.32C235.159 152.448 236.119 148.959 236.119 148.959L229.047 144.097Z" fill="white" stroke="#263238" stroke-linecap="round" stroke-linejoin="round"/>
<path d="M231.671 128.472C231.671 128.472 229.665 131.532 229.491 133.712C229.316 135.892 228.357 141.045 228.357 141.045C228.357 141.045 227.136 141.655 227.049 142.179C226.961 142.702 226.874 143.748 226.874 143.748C227.897 145.048 229.101 146.193 230.45 147.15C233.161 149.243 238.219 150.994 238.219 150.994C238.219 150.994 240.922 144.708 241.358 141.394C241.794 138.08 243.372 135.369 242.318 132.578" fill="#C5F1FF"/>
<path d="M231.671 128.472C231.671 128.472 229.665 131.532 229.491 133.712C229.316 135.892 228.357 141.045 228.357 141.045C228.357 141.045 227.136 141.655 227.049 142.179C226.961 142.702 226.874 143.748 226.874 143.748C227.897 145.048 229.101 146.193 230.45 147.15C233.161 149.243 238.219 150.994 238.219 150.994C238.219 150.994 240.922 144.708 241.358 141.394C241.794 138.08 243.372 135.369 242.318 132.578" stroke="#263238" stroke-linecap="round" stroke-linejoin="round"/>
<path opacity="0.2" d="M264.556 160.682H189.279V202.099H264.556V160.682Z" fill="#263238" stroke="#263238" stroke-width="3" stroke-linecap="round" stroke-linejoin="round"/>
<path d="M171.765 207.71V151.852H280.915V208.865" stroke="#263238" stroke-width="3" stroke-linecap="round" stroke-linejoin="round"/>
<path d="M172.339 159.919H279.186" stroke="#263238" stroke-width="3" stroke-linecap="round" stroke-linejoin="round"/>
<path d="M172.339 202.797H279.186" stroke="#263238" stroke-width="3" stroke-linecap="round" stroke-linejoin="round"/>
<path opacity="0.19" d="M282.006 230.363H168.414V258.917H282.006V230.363Z" fill="black"/>
<path d="M283.227 208.291H168.887V242.87H283.227V208.291Z" fill="#A6A6A6" stroke="#263238" stroke-linecap="round" stroke-linejoin="round"/>
<path d="M270.319 208.291H181.779V242.87H270.319V208.291Z" fill="#C9C9C9" stroke="#263238" stroke-linecap="round" stroke-linejoin="round"/>
<path d="M283.227 208.291H168.887V217.012H283.227V208.291Z" fill="#263238" stroke="#263238" stroke-linecap="round" stroke-linejoin="round"/>
<path d="M285.341 204.832H166.772V214.629H285.341V204.832Z" fill="#A6A6A6" stroke="#263238" stroke-linecap="round" stroke-linejoin="round"/>
<path d="M271.475 204.832H180.624V214.629H271.475V204.832Z" fill="#C9C9C9" stroke="#263238" stroke-linecap="round" stroke-linejoin="round"/>
<path d="M189.279 160.682V202.092" stroke="#263238" stroke-width="3" stroke-linecap="round" stroke-linejoin="round"/>
<path d="M264.556 160.682V202.092" stroke="#263238" stroke-width="3" stroke-linecap="round" stroke-linejoin="round"/>
<path d="M63.4497 45.637C63.4497 45.637 73.4571 102.418 110.689 120.107L106.037 211.336H113.944" stroke="#263238" stroke-linecap="round" stroke-linejoin="round"/>
<path d="M113.952 45.637H63.4497V210.406H113.952V45.637Z" stroke="#263238" stroke-linecap="round" stroke-linejoin="round"/>
<path d="M110.696 120.107C110.696 120.107 86.6476 95.3977 84.6273 62.3959" stroke="#263238" stroke-linecap="round" stroke-linejoin="round"/>
<path d="M98.9588 59.2636C98.9588 57.8537 98.9951 56.4148 99.0678 54.9467" stroke="#263238" stroke-linecap="round" stroke-linejoin="round"/>
<path d="M112.091 113.588C112.091 113.588 99.7364 97.7596 99.0097 64.1692" stroke="#263238" stroke-linecap="round" stroke-linejoin="round"/>
<path d="M106.975 83.806L80.4412 120.572" stroke="#263238" stroke-linecap="round" stroke-linejoin="round"/>
<path d="M110.231 71.2332L83.697 108.007" stroke="#263238" stroke-linecap="round" stroke-linejoin="round"/>
<path d="M60.659 45.637H10.1571V210.406H60.659V45.637Z" fill="#4C4C4C" stroke="#263238" stroke-linecap="round" stroke-linejoin="round"/>
<path d="M25.5715 67.6939H12.2938C11.5673 67.6939 10.9783 68.2829 10.9783 69.0094V73.2463C10.9783 73.9728 11.5673 74.5617 12.2938 74.5617H25.5715C26.298 74.5617 26.8869 73.9728 26.8869 73.2463V69.0094C26.8869 68.2829 26.298 67.6939 25.5715 67.6939Z" fill="#808080" stroke="#263238" stroke-linecap="round" stroke-linejoin="round"/>
<path d="M13.1512 68.4134L18.9362 46.0004L23.8127 68.239" stroke="#828282" stroke-miterlimit="10"/>
<path d="M17.6644 66.0878C17.6644 66.0878 15.862 63.9076 14.5975 63.9076C13.333 63.9076 14.7719 65.1794 14.7719 65.1794C14.1412 64.9005 13.4726 64.7169 12.7879 64.6343C12.0611 64.6343 10.4332 65.7172 10.4332 65.7172L13.1513 66.6256L10.971 67.1634C10.7064 67.5574 10.4073 67.9271 10.0771 68.2681C9.53204 68.8131 9.53204 71.5239 9.53204 71.5239L10.4478 70.3757L10.9783 69.7143L11.3417 74.4164L11.5233 76.9455L12.9768 72.069L12.4318 77.6722L13.5146 76.9455L12.4318 81.6476L13.8853 80.9208C13.7176 81.639 13.5963 82.3673 13.5219 83.1011C13.7052 84.1987 13.9478 85.2855 14.2487 86.3569L15.3315 81.8365L16.2327 82.1999L15.1498 78.7624L16.0583 78.9441L16.2327 75.8699L15.6949 74.9687L15.1498 73.8859C15.1498 73.8859 16.6033 75.3394 16.7778 74.242C16.9522 73.1446 15.3243 70.4483 15.3243 70.4483C15.3243 70.4483 16.9522 70.4483 16.7778 69.9033C16.5732 69.4008 16.3302 68.9149 16.051 68.4498H17.8533L19.3068 68.2681L17.6644 66.0878Z" fill="#C5F1FF"/>
<path d="M19.8374 66.0878C19.8374 66.0878 21.647 63.9076 22.9116 63.9076C24.1761 63.9076 22.7299 65.1794 22.7299 65.1794C23.3629 64.8997 24.034 64.716 24.7212 64.6343C25.4479 64.6343 27.0686 65.7172 27.0686 65.7172L24.3578 66.6256L26.538 67.1634C26.8016 67.5582 27.1008 67.928 27.432 68.2681C27.9697 68.8131 27.9697 71.5239 27.9697 71.5239L27.054 70.3757L26.5235 69.7143L26.1601 74.4164L25.9857 76.9455L24.5322 72.069L25.07 77.6722L23.9871 76.9455L25.07 81.6476L23.6165 80.9208C23.7841 81.639 23.9055 82.3673 23.9799 83.1011C23.7961 84.1986 23.5535 85.2854 23.2531 86.3569L22.163 81.8365L21.2618 82.1999L22.3447 78.7624L21.4435 78.9441L21.2618 75.8699L21.8069 74.9687L22.3447 73.8859C22.3447 73.8859 20.8912 75.3394 20.7168 74.242C20.5423 73.1446 22.1703 70.4483 22.1703 70.4483C22.1703 70.4483 20.5423 70.4483 20.7168 69.9033C20.9204 69.4004 21.1634 68.9144 21.4435 68.4498H19.6557L18.2022 68.2681L19.8374 66.0878Z" fill="#C5F1FF"/>
<path d="M117.469 32.1849H6.21082V46.2039H117.469V32.1849Z" fill="#263238" stroke="#263238" stroke-linecap="round" stroke-linejoin="round"/>
<path d="M12.9187 34.1253V45.1211" stroke="#6B6B6B" stroke-linecap="round" stroke-linejoin="round"/>
<path d="M19.7502 34.1253V45.1211" stroke="#6B6B6B" stroke-linecap="round" stroke-linejoin="round"/>
<path d="M26.5744 34.1253V45.1211" stroke="#6B6B6B" stroke-linecap="round" stroke-linejoin="round"/>
<path d="M33.4058 34.1253V45.1211" stroke="#6B6B6B" stroke-linecap="round" stroke-linejoin="round"/>
<path d="M40.23 34.1253V45.1211" stroke="#6B6B6B" stroke-linecap="round" stroke-linejoin="round"/>
<path d="M47.0615 34.1253V45.1211" stroke="#6B6B6B" stroke-linecap="round" stroke-linejoin="round"/>
<path d="M53.8857 34.1253V45.1211" stroke="#6B6B6B" stroke-linecap="round" stroke-linejoin="round"/>
<path d="M60.7171 34.1253V45.1211" stroke="#6B6B6B" stroke-linecap="round" stroke-linejoin="round"/>
<path d="M67.5413 34.1253V45.1211" stroke="#6B6B6B" stroke-linecap="round" stroke-linejoin="round"/>
<path d="M74.3655 34.1253V45.1211" stroke="#6B6B6B" stroke-linecap="round" stroke-linejoin="round"/>
<path d="M81.197 34.1253V45.1211" stroke="#6B6B6B" stroke-linecap="round" stroke-linejoin="round"/>
<path d="M88.0212 34.1253V45.1211" stroke="#6B6B6B" stroke-linecap="round" stroke-linejoin="round"/>
<path d="M94.8527 34.1253V45.1211" stroke="#6B6B6B" stroke-linecap="round" stroke-linejoin="round"/>
<path d="M101.677 34.1253V45.1211" stroke="#6B6B6B" stroke-linecap="round" stroke-linejoin="round"/>
<path d="M108.508 34.1253V45.1211" stroke="#6B6B6B" stroke-linecap="round" stroke-linejoin="round"/>
<path d="M101.386 110.42C102.027 110.028 102.573 109.498 102.986 108.87C103.398 108.242 103.666 107.53 103.77 106.786C103.981 104.417 101.103 102.927 97.7887 101.699C94.4747 100.47 89.3802 100.659 86.5604 104.46C83.7406 108.261 84.947 115.928 84.9616 119.351C84.9761 122.774 83.6171 131.357 83.6171 131.357C83.6171 131.357 83.2101 133.603 87.2 135.398C91.1898 137.193 96.7713 132.6 97.6652 129.468C98.2389 126.939 98.4976 124.349 98.4355 121.757C98.4355 121.757 98.3192 117.084 98.6317 113.487C98.9442 109.889 100.129 109.366 100.129 109.366L101.386 110.42Z" fill="#263238" stroke="#263238" stroke-linecap="round" stroke-linejoin="round"/>
<path d="M106.008 167.172C106.096 170.723 105.962 174.276 105.609 177.811C105.013 184.701 101.924 201.227 101.204 204.788C100.438 209.604 99.9142 214.455 99.6346 219.323C99.7364 219.629 99.9399 220.457 99.9399 220.457C99.9399 220.457 100.565 220.871 102.731 222.419C104.896 223.967 107.375 224.483 106.968 224.999C106.561 225.515 103.661 225.413 101.597 225.21C99.5329 225.006 96.6404 224.796 96.0227 224.687C95.405 224.578 95.2959 222.935 95.2959 222.005C95.2959 221.075 95.8119 220.973 95.6084 218.495C95.405 216.017 95.2305 200.777 95.3323 196.024C95.434 191.271 96.2843 187.397 97.2509 185.849C98.2175 184.301 98.1303 180.435 97.2073 177.971C96.2843 175.507 94.3003 169.534 94.3003 169.534C94.3003 169.534 99.6274 169.061 101.313 168.691C102.541 168.378 103.729 167.924 104.853 167.339L106.008 167.172Z" fill="white" stroke="#263238" stroke-linecap="round" stroke-linejoin="round"/>
<path d="M100.282 210.21C100.623 208.03 100.965 205.973 101.204 204.788C101.931 201.227 105.013 184.701 105.609 177.811C105.962 174.276 106.096 170.723 106.008 167.172L104.86 167.281C103.736 167.866 102.549 168.319 101.321 168.632C99.6347 169.003 94.3076 169.475 94.3076 169.475C94.3076 169.475 96.2771 175.449 97.2146 177.913C98.1521 180.377 98.2175 184.221 97.2582 185.791C96.2989 187.361 95.4413 191.234 95.3396 195.966C95.2815 198.531 95.2015 204.243 95.1288 209.345C96.7323 210.108 98.5169 210.407 100.282 210.21Z" fill="white" stroke="#263238" stroke-linecap="round" stroke-linejoin="round"/>
<path d="M102.731 222.39C100.55 220.842 99.9399 220.428 99.9399 220.428C99.9399 220.428 99.9399 220.326 99.8818 220.181C99.7444 220.2 99.6134 220.251 99.4988 220.329C99.3842 220.408 99.2889 220.511 99.2204 220.631C99.0169 221.147 98.8062 221.874 98.8062 221.874L95.4122 221.256C95.3359 221.491 95.2966 221.736 95.296 221.983C95.296 222.913 95.3977 224.563 96.0227 224.665C96.6477 224.767 99.5329 224.977 101.597 225.188C103.661 225.399 106.553 225.493 106.968 224.977C107.382 224.461 104.896 223.938 102.731 222.39Z" fill="white" stroke="#263238" stroke-linecap="round" stroke-linejoin="round"/>
<path d="M86.8221 169.759C86.8221 169.759 89.7291 175.711 92.0111 179.207C93.6401 181.825 95.0967 184.546 96.3716 187.353C96.3716 187.353 91.5532 190.355 90.2087 193.894C88.8643 197.434 84.9834 211.162 84.0532 213.567C83.1229 215.973 81.2406 219.498 81.7566 221.147C82.2726 222.797 86.2988 224.556 87.1273 224.781C87.9558 225.006 92.8033 225.508 93.2175 224.985C93.6317 224.461 90.3105 222.717 89.3948 221.474C88.5985 220.262 87.908 218.983 87.3308 217.652C87.3308 217.652 92.2146 205.479 94.7073 201.859C97.2001 198.24 103.428 188.931 104.111 187.753C104.842 186.641 105.103 185.285 104.838 183.981C104.518 182.913 99.86 169.664 99.86 169.664C97.693 169.967 95.4985 170.021 93.3192 169.824C91.1887 169.644 89.0687 169.355 86.9674 168.959L86.8221 169.759Z" fill="white" stroke="#263238" stroke-linecap="round" stroke-linejoin="round"/>
<path d="M104.867 183.967C104.548 182.899 99.889 169.65 99.889 169.65C97.722 169.953 95.5275 170.006 93.3483 169.81C91.2177 169.629 89.0977 169.341 86.9965 168.945L86.8221 169.759C86.8221 169.759 89.7291 175.711 92.0111 179.207C93.6401 181.825 95.0967 184.546 96.3716 187.354C96.3716 187.354 91.5532 190.355 90.2087 193.894C89.4384 195.922 87.8104 201.373 86.4005 206.082C87.127 206.742 87.9871 207.238 88.9224 207.535C89.7097 207.756 90.5249 207.861 91.3425 207.848C92.3485 205.775 93.4719 203.761 94.7073 201.816C97.1928 198.182 103.428 188.887 104.111 187.71C104.844 186.609 105.116 185.265 104.867 183.967Z" fill="white" stroke="#263238" stroke-linecap="round" stroke-linejoin="round"/>
<path d="M89.4092 221.46C88.613 220.247 87.9225 218.968 87.3453 217.637C87.3453 217.637 87.3889 217.528 87.4616 217.317C87.2079 217.319 86.9591 217.387 86.7398 217.514C86.5205 217.642 86.3384 217.825 86.2115 218.044C85.7463 218.792 85.3661 219.589 85.0778 220.421L82.2435 218.706C81.8151 219.451 81.6536 220.32 81.7856 221.169C82.3016 222.826 86.3278 224.578 87.1563 224.803C87.9848 225.028 92.8322 225.53 93.2465 225.006C93.6607 224.483 90.3395 222.703 89.4092 221.46Z" fill="white" stroke="#263238" stroke-linecap="round" stroke-linejoin="round"/>
<path d="M84.9979 165.653C84.9979 165.653 85.6011 168.291 85.9354 169.148C86.2697 170.006 87.3889 171.147 91.0226 171.663C94.1816 172.095 97.3979 171.779 100.412 170.74C103.181 169.839 106.393 168.661 106.764 167.971C107.135 167.281 107.069 163.225 107.069 163.225C107.069 163.225 102.898 167.113 97.1273 166.721C91.3569 166.329 86.4514 164.345 85.8336 164.294C85.2159 164.243 84.9979 165.653 84.9979 165.653Z" fill="#C5F1FF" stroke="#263238" stroke-linecap="round" stroke-linejoin="round"/>
<path d="M91.7349 118.886C91.7349 118.886 91.9602 122.324 90.6738 123.974C89.3875 125.623 83.4063 130.391 82.5197 131.968C81.633 133.545 82.4179 142.738 83.1301 146.503C83.8423 150.267 83.7624 155.987 83.8569 159.417C83.9514 162.847 84.1985 163.778 84.9761 165.631C85.7537 167.484 91.1317 168.749 94.8526 168.865C98.5736 168.981 102.789 166.961 104.3 166.467C105.812 165.972 107.302 164.141 107.585 161.983C107.869 159.824 106.779 152.171 106.691 150.82C106.604 149.468 106.255 141.452 105.071 135.965C103.886 130.478 101.859 128.741 100.819 127.615C99.78 126.488 97.6215 126.161 96.546 125.485C95.4704 124.809 97.0256 121.168 97.0256 121.168C97.0256 121.168 91.6913 119.192 91.7349 118.886Z" fill="#C5F1FF" stroke="#263238" stroke-linecap="round" stroke-linejoin="round"/>
<path d="M98.4937 136.67C99.9108 135.216 98.4355 127.462 98.3628 126.306C97.7334 126.11 97.1267 125.847 96.5532 125.522C95.4776 124.795 97.0329 121.205 97.0329 121.205C97.0329 121.205 91.7131 119.192 91.7349 118.886C91.7349 118.886 91.9602 122.324 90.6738 123.974C89.7886 124.96 88.8393 125.888 87.8322 126.75C88.9851 127.304 89.9576 128.173 90.6375 129.257C92.1055 131.495 97.0111 138.203 98.4937 136.67Z" fill="white" stroke="#263238" stroke-linecap="round" stroke-linejoin="round"/>
<path d="M102.694 129.991C102.694 129.991 104.279 130.849 105.754 134.192C107.229 137.535 110.216 143.698 110.725 144.984C111.234 146.27 110.725 148.305 108.167 149.424C105.609 150.544 97.7015 150.594 97.7015 150.594L99.2495 147.099L104.141 144.417C104.499 143.359 104.767 142.272 104.94 141.168C105.042 140.035 103.05 133.131 103.05 133.131" fill="#C5F1FF"/>
<path d="M102.694 129.991C102.694 129.991 104.279 130.849 105.754 134.192C107.229 137.535 110.216 143.698 110.725 144.984C111.234 146.27 110.725 148.305 108.167 149.424C105.609 150.544 97.7015 150.594 97.7015 150.594L99.2495 147.099L104.141 144.417C104.499 143.359 104.767 142.272 104.94 141.168C105.042 140.035 103.05 133.131 103.05 133.131" stroke="#263238" stroke-linecap="round" stroke-linejoin="round"/>
<path d="M89.402 147.077C89.402 147.077 87.6433 148.276 87.5706 149.097C87.4979 149.919 87.4979 151.161 88.0866 151.525C88.6753 151.888 91.2189 150.035 91.5314 150.071C91.8439 150.108 91.3933 146.837 89.402 147.077Z" fill="white" stroke="#263238" stroke-linecap="round" stroke-linejoin="round"/>
<path d="M99.5402 143.705C100.578 143.559 101.603 143.336 102.607 143.036C103.465 142.702 105.616 144.126 105.892 144.57C106.168 145.013 103.712 145.936 103.181 146.023C102.651 146.11 99.5402 143.705 99.5402 143.705Z" fill="white" stroke="#263238" stroke-linecap="round" stroke-linejoin="round"/>
<path d="M83.5735 134.243C83.298 135.513 83.3254 136.83 83.6534 138.087C84.2057 140.1 88.8788 147.135 89.9253 149.403C90.9718 151.67 93.5954 153.763 95.2596 153.698C96.9239 153.632 98.8425 150.587 99.3004 150.115C99.7582 149.642 103.428 145.493 103.428 145.493C103.428 145.493 102.702 143.879 101.299 143.756C100.3 143.682 99.2981 143.665 98.2974 143.705L96.4224 143.85C96.4224 143.85 92.7015 135.34 91.5023 133.581C90.3032 131.822 87.8686 131.401 87.8686 131.401" fill="#C5F1FF"/>
<path d="M83.5735 134.243C83.298 135.513 83.3254 136.83 83.6534 138.087C84.2057 140.1 88.8788 147.135 89.9253 149.403C90.9718 151.67 93.5954 153.763 95.2596 153.698C96.9239 153.632 98.8425 150.587 99.3004 150.115C99.7582 149.642 103.428 145.493 103.428 145.493C103.428 145.493 102.702 143.879 101.299 143.756C100.3 143.682 99.2981 143.665 98.2974 143.705L96.4224 143.85C96.4224 143.85 92.7015 135.34 91.5023 133.581C90.3032 131.822 87.8686 131.401 87.8686 131.401" stroke="#263238" stroke-linecap="round" stroke-linejoin="round"/>
<path d="M99.4239 106.699C98.6049 108.523 97.5519 110.233 96.2916 111.786C94.4457 113.908 90.9136 117.644 90.9136 117.644C90.9136 117.644 91.6404 119.678 92.8541 120.296C94.0677 120.914 97.3817 123.072 98.966 122.796C100.55 122.52 101.422 117.106 101.422 117.106C101.633 117.066 101.832 116.98 102.005 116.855C102.179 116.729 102.322 116.567 102.425 116.379C102.68 115.783 101.568 113.094 101.59 112.789C101.611 112.484 102.098 110.55 101.59 109.155C101.105 108.154 100.356 107.305 99.4239 106.699Z" fill="white" stroke="#263238" stroke-linecap="round" stroke-linejoin="round"/>
<path d="M100.063 113.697C100.027 114.133 99.7873 114.46 99.5257 114.424C99.2641 114.388 99.0824 114.032 99.126 113.603C99.1696 113.174 99.4021 112.832 99.6638 112.876C99.9254 112.92 100.1 113.261 100.063 113.697Z" fill="#263238"/>
<path d="M98.3483 118.036C98.9573 118.455 99.7031 118.627 100.434 118.516" stroke="#263238" stroke-linecap="round" stroke-linejoin="round"/>
<path d="M98.5446 112.353C98.7879 112.078 99.1211 111.899 99.4845 111.847C99.8479 111.795 100.218 111.874 100.529 112.069" stroke="#263238" stroke-linecap="round" stroke-linejoin="round"/>
<path d="M40.8187 165.493L43.4568 193.356C43.4568 193.356 27.7953 215.951 28.6165 216.772C29.4378 217.594 31.4509 219.432 31.9451 219.432C32.4392 219.432 44.2998 205.413 47.1196 203.604C48.6425 202.575 49.9295 201.234 50.8954 199.671C51.8614 198.107 52.4843 196.356 52.7229 194.534C53.0499 190.9 53.3842 170.464 53.3842 165.682C53.3842 160.9 53.0499 157.927 53.3842 157.106C53.617 156.079 53.7268 155.027 53.7113 153.974C53.7113 153.974 41.1821 156.939 40.0265 156.772" fill="white"/>
<path d="M40.8187 165.493L43.4568 193.356C43.4568 193.356 27.7953 215.951 28.6165 216.772C29.4378 217.594 31.4509 219.432 31.9451 219.432C32.4392 219.432 44.2998 205.413 47.1196 203.604C48.6425 202.575 49.9295 201.234 50.8954 199.671C51.8614 198.107 52.4843 196.356 52.7229 194.534C53.0499 190.9 53.3842 170.464 53.3842 165.682C53.3842 160.9 53.0499 157.927 53.3842 157.106C53.617 156.079 53.7268 155.027 53.7113 153.974C53.7113 153.974 41.1821 156.939 40.0265 156.772" stroke="#263238" stroke-linecap="round" stroke-linejoin="round"/>
<path d="M28.6456 216.772C28.6456 216.772 25.1863 220.406 25.1863 221.227C25.1863 222.049 28.9799 224.193 29.8011 224.52C30.6224 224.847 33.7619 225.014 35.0774 225.014C36.3928 225.014 38.3768 224.687 37.8826 223.698C37.3884 222.71 33.4276 221.387 33.4276 221.387L31.9741 219.411L28.6456 216.772Z" fill="white" stroke="#263238" stroke-linecap="round" stroke-linejoin="round"/>
<path d="M29.1907 151.801C27.9572 155.148 27.1656 158.642 26.836 162.193C26.5017 167.281 28.9799 185.609 29.4741 186.598C29.9683 187.586 29.8012 219.738 29.6413 220.755C29.4814 221.772 29.307 223.727 29.8012 223.727C30.2953 223.727 35.0774 224.549 35.7387 223.233C36.4001 221.918 36.0657 218.284 36.0657 217.296C36.0657 216.307 37.5556 194.374 37.8826 193.059C38.2097 191.743 39.8594 172.775 39.8594 172.775L40.6879 168.327L41.5091 166.837L45.7969 159.911C45.7969 159.911 40.3536 156.779 36.7271 154.824C33.1006 152.869 30.3898 150.98 29.1907 151.801Z" fill="white" stroke="#263238" stroke-linecap="round" stroke-linejoin="round"/>
<path d="M31.618 221.387C31.618 221.387 35.7387 219.738 37.5556 220.726C39.3725 221.714 41.0149 224.52 41.0149 225.348H29.6413C29.5288 224.565 29.6578 223.767 30.0109 223.059C30.3641 222.351 30.9248 221.768 31.618 221.387Z" fill="white" stroke="#263238" stroke-linecap="round" stroke-linejoin="round"/>
<path d="M49.5397 124.388C47.9896 123.954 46.4038 123.66 44.8013 123.508C43.7408 123.466 42.6931 123.752 41.8009 124.327C40.9087 124.902 40.2155 125.738 39.8158 126.721C38.9291 128.654 34.3506 142.637 33.7038 144.163C33.057 145.689 30.3317 149.868 29.2052 151.794C28.0787 153.719 31.211 158.065 33.7038 159.679C36.1965 161.292 46.6472 162.164 48.6603 161.445C50.0276 160.868 51.2637 160.02 52.2941 158.952C52.5412 158.792 57.9264 145.929 58.486 144.323C59.0456 142.716 63.1517 136.205 63.1517 136.205C63.1517 136.205 65.0776 131.939 64.3582 129.446C63.6387 126.953 60.1721 125.812 58.8058 125.812C57.4395 125.812 54.1473 125.892 52.9409 125.565C51.7345 125.238 49.5397 124.388 49.5397 124.388Z" fill="#C5F1FF" stroke="#263238" stroke-linecap="round" stroke-linejoin="round"/>
<path d="M47.7592 117.476L47.8392 117.796C48.2187 119.322 48.4067 120.889 48.3988 122.462C48.3188 124.795 48.6459 127.447 50.252 129.613C51.8581 131.779 53.704 130.42 54.0311 128.734C54.3581 127.048 55.957 121.735 55.957 121.735C55.957 121.735 52.5049 121.335 51.2185 119.729C50.2491 118.603 49.1404 117.604 47.9191 116.757L47.7592 117.476Z" fill="white" stroke="#263238" stroke-linecap="round" stroke-linejoin="round"/>
<path d="M58.5296 111.771L59.9831 109.199L61.4366 110.405C61.5628 108.439 61.3162 106.466 60.7099 104.591C59.7433 102.098 55.5645 101.299 53.1517 100.957C51.695 100.76 50.2122 100.929 48.837 101.448C47.4617 101.967 46.2371 102.82 45.2737 103.93C42.701 106.662 43.3405 109.795 43.9074 111.568C44.4743 113.341 45.2737 116.226 45.7533 116.713C46.233 117.2 47.8464 117.92 48.9729 116.793C50.0993 115.667 49.7723 113.654 50.2592 112.774C50.7461 111.895 54.438 112.607 55.4845 112.367C56.2445 112.107 56.9132 111.632 57.4104 111.001L58.5296 111.771Z" fill="#C5F1FF" stroke="#263238" stroke-linecap="round" stroke-linejoin="round"/>
<path d="M46.9525 114.78C46.9525 114.78 45.906 112.287 44.9467 113.494C43.9873 114.7 45.1865 117.513 45.9932 118C46.2287 118.134 46.4983 118.198 46.7692 118.182C47.0401 118.167 47.3007 118.073 47.5194 117.912C47.5194 117.912 50.5717 122.178 51.2985 122.898C52.0252 123.617 53.5441 124.831 55.3973 123.705C57.2505 122.578 58.5296 118.959 58.8494 115.747C59.0151 113.201 58.9616 110.645 58.6895 108.109L54.6706 110.761L54.9104 109.308C54.1757 109.872 53.3661 110.332 52.5049 110.674C51.4583 110.994 49.9322 111.401 49.9322 111.401L50.4918 109.548C50.0298 110.348 49.4919 111.103 48.8856 111.8C48.3528 112.46 48.0674 113.285 48.079 114.133V115.507L47.3522 114.78L46.9452 115.347L46.9525 114.78Z" fill="white" stroke="#263238" stroke-linecap="round" stroke-linejoin="round"/>
<path d="M53.3697 115.02C53.7109 115.02 53.9874 114.603 53.9874 114.09C53.9874 113.576 53.7109 113.159 53.3697 113.159C53.0285 113.159 52.752 113.576 52.752 114.09C52.752 114.603 53.0285 115.02 53.3697 115.02Z" fill="#263238"/>
<path d="M57.4613 113.748C57.4613 114.264 57.1851 114.678 56.8436 114.678C56.502 114.678 56.2258 114.264 56.2258 113.748C56.2258 113.232 56.502 112.818 56.8436 112.818C57.1851 112.818 57.4613 113.239 57.4613 113.748Z" fill="#263238"/>
<path d="M55.7898 114.053C55.7898 114.053 55.877 115.58 56.3857 116.088C56.8945 116.597 56.7273 117.106 55.877 117.28C55.3984 117.379 54.912 117.435 54.4235 117.447" stroke="#263238" stroke-linecap="round" stroke-linejoin="round"/>
<path d="M52.5703 118.625C53.1275 118.983 53.7691 119.188 54.4307 119.221" stroke="#263238" stroke-linecap="round" stroke-linejoin="round"/>
<path d="M51.8871 112.353C52.1989 112.128 52.5521 111.967 52.9263 111.88C53.3006 111.793 53.6884 111.781 54.0674 111.844" stroke="#263238" stroke-linecap="round" stroke-linejoin="round"/>
<path d="M56.2186 111.924C56.4652 111.735 56.771 111.64 57.0813 111.656C57.3915 111.672 57.686 111.798 57.9119 112.011" stroke="#263238" stroke-linecap="round" stroke-linejoin="round"/>
<path opacity="0.2" d="M98.7917 160.682H23.5148V202.099H98.7917V160.682Z" fill="#263238" stroke="#263238" stroke-width="3" stroke-linecap="round" stroke-linejoin="round"/>
<path d="M5.99274 207.71V151.852H115.144V208.865" stroke="#263238" stroke-width="3" stroke-linecap="round" stroke-linejoin="round"/>
<path d="M6.57416 159.919H113.414" stroke="#263238" stroke-width="3" stroke-linecap="round" stroke-linejoin="round"/>
<path d="M6.57416 202.797H113.414" stroke="#263238" stroke-width="3" stroke-linecap="round" stroke-linejoin="round"/>
<path opacity="0.19" d="M116.837 230.363H3.24567V258.917H116.837V230.363Z" fill="black"/>
<path d="M117.455 208.291H3.11487V242.87H117.455V208.291Z" fill="#A6A6A6" stroke="#263238" stroke-linecap="round" stroke-linejoin="round"/>
<path d="M104.547 208.291H16.0074V242.87H104.547V208.291Z" fill="#C9C9C9" stroke="#263238" stroke-linecap="round" stroke-linejoin="round"/>
<path d="M117.455 208.291H3.11487V217.012H117.455V208.291Z" fill="#263238" stroke="#263238" stroke-linecap="round" stroke-linejoin="round"/>
<path d="M119.569 204.832H1V214.629H119.569V204.832Z" fill="#A6A6A6" stroke="#263238" stroke-linecap="round" stroke-linejoin="round"/>
<path d="M105.71 204.832H14.8591V214.629H105.71V204.832Z" fill="#C9C9C9" stroke="#263238" stroke-linecap="round" stroke-linejoin="round"/>
<path d="M23.5148 160.682V202.092" stroke="#263238" stroke-width="3" stroke-linecap="round" stroke-linejoin="round"/>
<path d="M98.7916 160.682V202.092" stroke="#263238" stroke-width="3" stroke-linecap="round" stroke-linejoin="round"/>
<path d="M47.1705 124.104C46.3643 123.635 45.4714 123.335 44.5457 123.221C43.62 123.108 42.6809 123.183 41.7852 123.443C38.7038 124.322 38.3768 126.524 37.4974 128.61C36.618 130.696 32.0032 146.859 32.0032 148.4C32.0032 149.94 33.3186 150.929 34.9683 150.82C35.6948 150.752 36.3781 150.444 36.9108 149.946C37.4436 149.447 37.7956 148.786 37.9117 148.065C38.2387 146.612 42.9626 130.921 42.9626 130.921" fill="#C5F1FF"/>
<path d="M47.1705 124.104C46.3643 123.635 45.4714 123.335 44.5457 123.221C43.62 123.108 42.6809 123.183 41.7852 123.443C38.7038 124.322 38.3768 126.524 37.4974 128.61C36.618 130.696 32.0032 146.859 32.0032 148.4C32.0032 149.94 33.3186 150.929 34.9683 150.82C35.6948 150.752 36.3781 150.444 36.9108 149.946C37.4436 149.447 37.7956 148.786 37.9117 148.065C38.2387 146.612 42.9626 130.921 42.9626 130.921" stroke="#263238" stroke-linecap="round" stroke-linejoin="round"/>
<path d="M54.8668 153.233L56.9526 154.751C57.3959 155.086 59.1328 159.039 59.2636 159.839C59.3945 160.638 59.5907 162.477 59.5907 162.477C58.9708 162.831 58.2697 163.019 57.5558 163.022C56.6764 162.913 56.6328 163.102 56.6328 163.102C56.1967 162.113 53.3842 157.092 53.3842 157.092L51.2403 154.228L53.9874 153.131L54.8668 153.233Z" fill="white" stroke="#263238" stroke-linecap="round" stroke-linejoin="round"/>
<path d="M53.7185 157.172C53.7185 157.172 54.1328 159.352 54.3799 160.173C54.6269 160.994 55.1066 163.182 55.1066 163.182H55.8334L55.4191 159.337" fill="white"/>
<path d="M53.7185 157.172C53.7185 157.172 54.1328 159.352 54.3799 160.173C54.6269 160.994 55.1066 163.182 55.1066 163.182H55.8334L55.4191 159.337" stroke="#263238" stroke-linecap="round" stroke-linejoin="round"/>
<path d="M56.72 158.843L57.5558 163.015" stroke="#263238" stroke-linecap="round" stroke-linejoin="round"/>
<path d="M57.8901 158.589L58.8857 162.513" stroke="#263238" stroke-linecap="round" stroke-linejoin="round"/>
<path d="M36.8361 145.762L53.9874 153.124L52.2287 154.991C52.2287 154.991 42.0033 153.676 38.2678 152.578C34.5323 151.481 32.0032 151.038 32.0032 148.4" fill="#C5F1FF"/>
<path d="M36.8361 145.762L53.9874 153.124L52.2287 154.991C52.2287 154.991 42.0033 153.676 38.2678 152.578C34.5323 151.481 32.0032 151.038 32.0032 148.4" stroke="#263238" stroke-linecap="round" stroke-linejoin="round"/>
<path d="M61.1678 132.019L63.6969 150.914C63.9787 151.428 64.4215 151.835 64.9572 152.073C65.493 152.31 66.0919 152.366 66.662 152.23C68.755 151.794 69.6344 150.689 69.0821 148.167C68.5298 145.645 66.5167 132.222 65.5283 129.824C64.5399 127.426 62.6213 125.667 60.6954 125.754C58.7695 125.841 57.614 125.972 57.614 125.972" fill="#C5F1FF"/>
<path d="M61.1678 132.019L63.6969 150.914C63.9787 151.428 64.4215 151.835 64.9572 152.073C65.493 152.31 66.0919 152.366 66.662 152.23C68.755 151.794 69.6344 150.689 69.0821 148.167C68.5298 145.645 66.5167 132.222 65.5283 129.824C64.5399 127.426 62.6213 125.667 60.6954 125.754C58.7695 125.841 57.614 125.972 57.614 125.972" stroke="#263238" stroke-linecap="round" stroke-linejoin="round"/>
<path d="M52.3377 153.124C52.3377 153.124 50.47 153.589 49.874 154.25C49.2781 154.911 46.5092 160.384 46.2911 160.791C46.0731 161.198 46.2911 165.515 46.7345 165.631C47.1778 165.747 48.188 164.97 48.8202 164.09C49.3781 163.054 49.7844 161.943 50.0266 160.791C50.0266 160.791 51.8944 159.141 52.2069 158.153C52.5194 157.164 52.8682 155.406 52.8682 155.406L54.0747 154.526L52.3377 153.124Z" fill="white" stroke="#263238" stroke-linecap="round" stroke-linejoin="round"/>
<path d="M46.8725 160.929L47.2867 165.013" stroke="#263238" stroke-linecap="round" stroke-linejoin="round"/>
<path d="M47.9554 160.842L48.2897 164.432" stroke="#263238" stroke-linecap="round" stroke-linejoin="round"/>
<path d="M66.1896 147.52L51.4583 153.233L53.4351 155.544C53.4351 155.544 63.3334 153.894 65.2012 153.233C67.0689 152.571 69.489 152.244 69.816 150.376C70.1431 148.509 68.8277 146.641 68.8277 146.641" fill="#C5F1FF"/>
<path d="M66.1896 147.52L51.4583 153.233L53.4351 155.544C53.4351 155.544 63.3334 153.894 65.2012 153.233C67.0689 152.571 69.489 152.244 69.816 150.376C70.1431 148.509 68.8277 146.641 68.8277 146.641" stroke="#263238" stroke-linecap="round" stroke-linejoin="round"/>
</svg>
