<svg width="335" height="275" viewBox="0 0 335 275" fill="none" xmlns="http://www.w3.org/2000/svg">
<path d="M51.8731 246.164C115.721 284.175 219.231 284.175 283.079 246.164C346.927 208.154 346.92 146.523 283.079 108.512C219.239 70.5017 115.721 70.5017 51.8731 108.512C-11.9749 146.523 -11.9672 208.171 51.8731 246.164Z" fill="#C5F1FF"/>
<path d="M284.26 200.01C280.691 201.473 276.689 201.473 273.12 200.01C270.072 198.539 270.072 196.2 273.12 194.676C276.688 193.205 280.692 193.205 284.26 194.676C287.339 196.162 287.339 198.562 284.26 200.01Z" fill="#E0E0E0"/>
<path d="M39.8564 195.773C43.4884 197.267 47.5631 197.267 51.195 195.773C54.3268 194.249 54.3268 191.856 51.195 190.363C47.5615 188.877 43.49 188.877 39.8564 190.363C36.7246 191.856 36.7246 194.279 39.8564 195.773Z" fill="#E0E0E0"/>
<path d="M232.086 178.75C233.991 178.994 236.193 178.338 237.146 177.074C238.266 175.588 237.771 173.264 238.312 172.022C238.853 170.779 240.598 170.978 241.413 169.926C242.228 168.874 240.963 166.36 241.413 165.026C241.863 163.693 243.158 162.42 243.745 161.506C244.331 160.592 243.745 159.22 241.741 159.913C239.737 160.607 238.693 163.007 236.75 162.603C234.806 162.199 233.145 163.365 233.115 165.293C233.17 166.047 233.023 166.802 232.688 167.48C232.322 168.074 231.347 168.41 230.905 169.332L232.086 178.75Z" fill="#C5F1FF"/>
<path opacity="0.2" d="M232.086 178.75C233.991 178.994 236.193 178.338 237.146 177.074C238.266 175.588 237.771 173.264 238.312 172.022C238.853 170.779 240.598 170.978 241.413 169.926C242.228 168.874 240.963 166.36 241.413 165.026C241.863 163.693 243.158 162.42 243.745 161.506C244.331 160.592 243.745 159.22 241.741 159.913C239.737 160.607 238.693 163.007 236.75 162.603C234.806 162.199 233.145 163.365 233.115 165.293C233.17 166.047 233.023 166.802 232.688 167.48C232.322 168.074 231.347 168.41 230.905 169.332L232.086 178.75Z" fill="black"/>
<path d="M242.853 160.462C240.057 161.986 232.467 170.703 231.842 175.336" stroke="white" stroke-width="0.5" stroke-miterlimit="10" stroke-linecap="round"/>
<path d="M59.1426 155.478L93.1888 135.819V51.8236L59.1426 71.4832V155.478Z" fill="#37474F"/>
<path d="M59.1426 71.4832L21.9951 50.0405V134.028L59.1426 155.478V71.4832Z" fill="#455A64"/>
<path d="M93.1888 51.8236L56.0489 30.3809L21.9951 50.0405L59.1426 71.4832L93.1888 51.8236Z" fill="#37474F"/>
<path d="M35.9016 142.075V127.772L45.5257 133.304V147.599L35.9016 142.075Z" fill="#E0E0E0"/>
<path d="M40.1002 130.188L41.0375 130.729V145.024L40.1002 144.483V130.188Z" fill="#263238"/>
<path d="M55.2488 131.773V123.802L48.8785 120.122V128.092L55.2488 131.773Z" fill="#E0E0E0"/>
<path d="M48.8785 128.092L50.4711 127.178V121.044L48.8785 120.122V128.092Z" fill="#263238"/>
<path d="M55.2488 129.936L50.4711 127.178L48.8785 128.092L55.2488 131.773V129.936Z" fill="#37474F"/>
<path d="M55.2488 147.043V139.073L48.8785 135.4V143.37L55.2488 147.043Z" fill="#E0E0E0"/>
<path d="M48.8785 143.37L50.4711 142.448V136.314L48.8785 135.4V143.37Z" fill="#263238"/>
<path d="M55.2488 145.207L50.4711 142.448L48.8785 143.37L55.2488 147.043V145.207Z" fill="#37474F"/>
<path d="M55.2488 116.822V108.852L48.8785 105.179V113.149L55.2488 116.822Z" fill="#E0E0E0"/>
<path d="M48.8785 113.149L50.4711 112.227V106.093L48.8785 105.179V113.149Z" fill="#263238"/>
<path d="M55.2488 114.986L50.4711 112.227L48.8785 113.149L55.2488 116.822V114.986Z" fill="#37474F"/>
<path d="M55.2488 101.872V93.9013L48.8785 90.2284V98.1989L55.2488 101.872Z" fill="#E0E0E0"/>
<path d="M48.8785 98.1989L50.4711 97.2769V91.1428L48.8785 90.2284V98.1989Z" fill="#263238"/>
<path d="M55.2488 100.035L50.4711 97.2769L48.8785 98.1989L55.2488 101.872V100.035Z" fill="#37474F"/>
<path d="M55.2488 86.929V78.9508L48.8785 75.278V83.2485L55.2488 86.929Z" fill="#E0E0E0"/>
<path d="M48.8785 83.2485L50.4711 82.3265V76.2L48.8785 75.278V83.2485Z" fill="#263238"/>
<path d="M55.2488 85.0849L50.4711 82.3265L48.8785 83.2485L55.2488 86.929V85.0849Z" fill="#37474F"/>
<path d="M32.2669 118.506V110.536L25.8965 106.855V114.826L32.2669 118.506Z" fill="#E0E0E0"/>
<path d="M25.8965 114.826L27.4891 113.911V107.777L25.8965 106.855V114.826Z" fill="#263238"/>
<path d="M32.2669 116.67L27.4891 113.911L25.8965 114.826L32.2669 118.506V116.67Z" fill="#37474F"/>
<path d="M32.2669 133.777V125.806L25.8965 122.133V130.096L32.2669 133.777Z" fill="#E0E0E0"/>
<path d="M25.8965 130.096L27.4891 129.182V123.048L25.8965 122.133V130.096Z" fill="#263238"/>
<path d="M32.2669 131.94L27.4891 129.182L25.8965 130.096L32.2669 133.777V131.94Z" fill="#37474F"/>
<path d="M32.2669 103.426V95.4557L25.8965 91.7829V99.7534L32.2669 103.426Z" fill="#E0E0E0"/>
<path d="M25.8965 99.7534L27.4891 98.8314V92.6973L25.8965 91.7829V99.7534Z" fill="#263238"/>
<path d="M32.2669 101.59L27.4891 98.8314L25.8965 99.7534L32.2669 103.426V101.59Z" fill="#37474F"/>
<path d="M32.2669 88.3539V80.3834L25.8965 76.7029V84.6734L32.2669 88.3539Z" fill="#E0E0E0"/>
<path d="M25.8965 84.6734L27.4891 83.759V77.6249L25.8965 76.7029V84.6734Z" fill="#263238"/>
<path d="M32.2669 86.5175L27.4891 83.759L25.8965 84.6734L32.2669 88.3539V86.5175Z" fill="#37474F"/>
<path d="M32.2669 73.2739V65.3034L25.8965 61.6306V69.6011L32.2669 73.2739Z" fill="#FAFAFA"/>
<path d="M25.8965 69.6011L27.4891 68.6791V62.545L25.8965 61.6306V69.6011Z" fill="#263238"/>
<path d="M32.2669 71.4375L27.4891 68.6791L25.8965 69.6011L32.2669 73.2739V71.4375Z" fill="#37474F"/>
<path d="M35.9016 67.0027L39.6125 69.1439V122.751L35.9016 120.617V67.0027Z" fill="#FAFAFA"/>
<path d="M35.9016 67.0027L37.4713 67.9094V119.733L35.9016 120.617V67.0027Z" fill="#263238"/>
<path d="M37.4713 119.733L39.6125 120.922V122.751L35.9016 120.617L37.4713 119.733Z" fill="#37474F"/>
<path d="M41.8071 70.3783L45.5257 72.5119V126.126L41.8071 123.985V70.3783Z" fill="#FAFAFA"/>
<path d="M41.8071 70.3783L43.3768 71.2851V123.101L41.8071 123.985V70.3783Z" fill="#263238"/>
<path d="M43.3768 123.101L45.5257 124.29V126.126L41.8071 123.985L43.3768 123.101Z" fill="#37474F"/>
<path d="M63.0822 131.773V123.802L69.4449 120.122V128.092L63.0822 131.773Z" fill="#E0E0E0"/>
<path d="M69.4449 128.092L67.8523 127.178L67.8599 121.044L69.4449 120.122V128.092Z" fill="#455A64"/>
<path d="M63.0822 129.936L67.8523 127.178L69.4449 128.092L63.0822 131.773V129.936Z" fill="#263238"/>
<path d="M72.9805 126.081V118.11L79.3509 114.437V122.408L72.9805 126.081Z" fill="#E0E0E0"/>
<path d="M79.3508 122.408L77.7582 121.486V115.352L79.3508 114.437V122.408Z" fill="#455A64"/>
<path d="M72.9805 124.244L77.7583 121.486L79.3509 122.408L72.9805 126.081V124.244Z" fill="#263238"/>
<path d="M82.8789 120.396V112.425L89.2492 108.745V116.716L82.8789 120.396Z" fill="#E0E0E0"/>
<path d="M89.2492 116.716L87.6566 115.801V109.667L89.2492 108.745V116.716Z" fill="#455A64"/>
<path d="M82.8789 118.552L87.6566 115.801L89.2492 116.716L82.8789 120.396V118.552Z" fill="#263238"/>
<path d="M63.0822 147.043V139.073L69.4449 135.4V143.37L63.0822 147.043Z" fill="#E0E0E0"/>
<path d="M69.4449 143.37L67.8523 142.448L67.8599 136.314L69.4449 135.4V143.37Z" fill="#455A64"/>
<path d="M63.0822 145.207L67.8523 142.448L69.4449 143.37L63.0822 147.043V145.207Z" fill="#263238"/>
<path d="M72.9805 141.359V133.38L79.3509 129.708V137.678L72.9805 141.359Z" fill="#E0E0E0"/>
<path d="M79.3508 137.678L77.7582 136.756V130.63L79.3508 129.708V137.678Z" fill="#455A64"/>
<path d="M72.9805 139.515L77.7583 136.756L79.3509 137.678L72.9805 141.359V139.515Z" fill="#263238"/>
<path d="M82.8789 135.666V127.696L89.2492 124.015V131.986L82.8789 135.666Z" fill="#E0E0E0"/>
<path d="M89.2492 131.986L87.6566 131.072V124.938L89.2492 124.015V131.986Z" fill="#455A64"/>
<path d="M82.8789 133.83L87.6566 131.072L89.2492 131.986L82.8789 135.666V133.83Z" fill="#263238"/>
<path d="M63.0822 116.822V108.852L69.4449 105.179V113.149L63.0822 116.822Z" fill="#E0E0E0"/>
<path d="M69.4449 113.149L67.8523 112.227L67.8599 106.093L69.4449 105.179V113.149Z" fill="#455A64"/>
<path d="M63.0822 114.986L67.8523 112.227L69.4449 113.149L63.0822 116.822V114.986Z" fill="#263238"/>
<path d="M72.9805 111.069V103.099L79.3509 99.4258V107.396L72.9805 111.069Z" fill="#E0E0E0"/>
<path d="M79.3508 107.396L77.7582 106.474V100.34L79.3508 99.4258V107.396Z" fill="#455A64"/>
<path d="M72.9805 109.233L77.7583 106.474L79.3509 107.396L72.9805 111.069V109.233Z" fill="#263238"/>
<path d="M82.8789 105.316V97.3455L89.2492 93.6727V101.643L82.8789 105.316Z" fill="#E0E0E0"/>
<path d="M89.2492 101.643L87.6566 100.721V94.5871L89.2492 93.6727V101.643Z" fill="#455A64"/>
<path d="M82.8789 103.48L87.6566 100.721L89.2492 101.643L82.8789 105.316V103.48Z" fill="#263238"/>
<path d="M63.0822 101.872V93.9013L69.4449 90.2284V98.1989L63.0822 101.872Z" fill="#E0E0E0"/>
<path d="M69.4449 98.1989L67.8523 97.2769L67.8599 91.1428L69.4449 90.2284V98.1989Z" fill="#455A64"/>
<path d="M63.0822 100.035L67.8523 97.2769L69.4449 98.1989L63.0822 101.872V100.035Z" fill="#263238"/>
<path d="M72.9805 96.0577V88.0872L79.3509 84.4067V92.3849L72.9805 96.0577Z" fill="#E0E0E0"/>
<path d="M79.3508 92.3849L77.7582 91.4628V85.3287L79.3508 84.4067V92.3849Z" fill="#455A64"/>
<path d="M72.9805 94.2213L77.7583 91.4629L79.3509 92.3849L72.9805 96.0577V94.2213Z" fill="#263238"/>
<path d="M82.8789 90.2437V82.2731L89.2492 78.5927V86.5632L82.8789 90.2437Z" fill="#E0E0E0"/>
<path d="M89.2492 86.5632L87.6566 85.6488V79.5147L89.2492 78.5927V86.5632Z" fill="#455A64"/>
<path d="M82.8789 88.4072L87.6566 85.6488L89.2492 86.5632L82.8789 90.2437V88.4072Z" fill="#263238"/>
<path d="M63.0822 86.929V78.9508L69.4449 75.278V83.2485L63.0822 86.929Z" fill="#E0E0E0"/>
<path d="M69.4449 83.2485L67.8523 82.3265L67.8599 76.2L69.4449 75.278V83.2485Z" fill="#455A64"/>
<path d="M63.0822 85.0849L67.8523 82.3265L69.4449 83.2485L63.0822 86.929V85.0849Z" fill="#263238"/>
<path d="M72.9805 81.0463V73.0758L79.3509 69.3953V77.3659L72.9805 81.0463Z" fill="#E0E0E0"/>
<path d="M79.3508 77.3659L77.7582 76.4515V70.3174L79.3508 69.3953V77.3659Z" fill="#455A64"/>
<path d="M72.9805 79.2099L77.7583 76.4515L79.3509 77.3659L72.9805 81.0463V79.2099Z" fill="#263238"/>
<path d="M82.8789 75.1637V67.1932L89.2492 63.5203V71.4908L82.8789 75.1637Z" fill="#E0E0E0"/>
<path d="M89.2492 71.4908L87.6566 70.5688V64.4347L89.2492 63.5203V71.4908Z" fill="#455A64"/>
<path d="M82.8789 73.3272L87.6566 70.5688L89.2492 71.4908L82.8789 75.1637V73.3272Z" fill="#263238"/>
<path d="M28.1902 50.0405L56.0489 33.9547L86.9937 51.8236L59.1426 67.9094L28.1902 50.0405Z" fill="#F0F0F0"/>
<path d="M56.0489 33.9547V37.5285L83.9 53.6143L86.9937 51.8236L56.0489 33.9547Z" fill="#455A64"/>
<path d="M56.0489 33.9547L28.1902 50.0405L31.2839 51.8236L56.0489 37.5285V33.9547Z" fill="#263238"/>
<path d="M273.973 155.478L239.927 135.819V51.8236L273.981 71.4832L273.973 155.478Z" fill="#455A64"/>
<path d="M273.981 71.4832L311.121 50.0405V134.028L273.973 155.478L273.981 71.4832Z" fill="#37474F"/>
<path d="M239.927 51.8236L277.075 30.3809L311.121 50.0405L273.981 71.4832L239.927 51.8236Z" fill="#37474F"/>
<path d="M297.222 142.075V127.772L287.59 133.304L287.598 147.599L297.222 142.075Z" fill="#E0E0E0"/>
<path d="M293.016 130.188L292.086 130.729V145.024L293.016 144.483V130.188Z" fill="#263238"/>
<path d="M277.867 131.773V123.802L284.237 120.122V128.092L277.867 131.773Z" fill="#E0E0E0"/>
<path d="M284.237 128.092L282.645 127.178V121.044L284.237 120.122V128.092Z" fill="#263238"/>
<path d="M277.867 129.936L282.645 127.178L284.237 128.092L277.867 131.773V129.936Z" fill="#455A64"/>
<path d="M277.867 147.043V139.073L284.237 135.4V143.37L277.867 147.043Z" fill="#E0E0E0"/>
<path d="M284.237 143.37L282.645 142.448V136.314L284.237 135.4V143.37Z" fill="#263238"/>
<path d="M277.867 145.207L282.645 142.448L284.237 143.37L277.867 147.043V145.207Z" fill="#455A64"/>
<path d="M277.867 116.822V108.852L284.237 105.179V113.149L277.867 116.822Z" fill="#E0E0E0"/>
<path d="M284.237 113.149L282.645 112.227V106.093L284.237 105.179V113.149Z" fill="#263238"/>
<path d="M277.867 114.986L282.645 112.227L284.237 113.149L277.867 116.822V114.986Z" fill="#455A64"/>
<path d="M277.867 101.872V93.9013L284.237 90.2284V98.1989L277.867 101.872Z" fill="#E0E0E0"/>
<path d="M284.237 98.1989L282.645 97.2769V91.1428L284.237 90.2284V98.1989Z" fill="#263238"/>
<path d="M277.867 100.035L282.645 97.2769L284.237 98.1989L277.867 101.872V100.035Z" fill="#455A64"/>
<path d="M277.867 86.929V78.9508L284.237 75.278V83.2485L277.867 86.929Z" fill="#E0E0E0"/>
<path d="M284.237 83.2485L282.645 82.3265V76.2L284.237 75.278V83.2485Z" fill="#263238"/>
<path d="M277.867 85.0849L282.645 82.3265L284.237 83.2485L277.867 86.929V85.0849Z" fill="#455A64"/>
<path d="M300.857 118.506V110.536L307.219 106.855V114.826L300.857 118.506Z" fill="#E0E0E0"/>
<path d="M307.219 114.826L305.634 113.911V107.777L307.219 106.855V114.826Z" fill="#263238"/>
<path d="M300.857 116.67L305.634 113.911L307.219 114.826L300.857 118.506V116.67Z" fill="#455A64"/>
<path d="M300.857 133.777V125.806L307.219 122.133V130.096L300.857 133.777Z" fill="#E0E0E0"/>
<path d="M307.219 130.096L305.634 129.182V123.048L307.219 122.133V130.096Z" fill="#263238"/>
<path d="M300.857 131.94L305.634 129.182L307.219 130.096L300.857 133.777V131.94Z" fill="#455A64"/>
<path d="M300.857 103.426V95.4557L307.219 91.7829V99.7534L300.857 103.426Z" fill="#E0E0E0"/>
<path d="M307.219 99.7534L305.634 98.8314V92.6973L307.219 91.7829V99.7534Z" fill="#263238"/>
<path d="M300.857 101.59L305.634 98.8314L307.219 99.7534L300.857 103.426V101.59Z" fill="#455A64"/>
<path d="M300.857 88.3539V80.3834L307.219 76.7029V84.6734L300.857 88.3539Z" fill="#E0E0E0"/>
<path d="M307.219 84.6734L305.634 83.759V77.6249L307.219 76.7029V84.6734Z" fill="#263238"/>
<path d="M300.857 86.5175L305.634 83.759L307.219 84.6734L300.857 88.3539V86.5175Z" fill="#455A64"/>
<path d="M300.857 73.2739V65.3034L307.219 61.6306V69.6011L300.857 73.2739Z" fill="#FAFAFA"/>
<path d="M307.219 69.6011L305.634 68.6791V62.545L307.219 61.6306V69.6011Z" fill="#263238"/>
<path d="M300.857 71.4375L305.634 68.6791L307.219 69.6011L300.857 73.2739V71.4375Z" fill="#455A64"/>
<path d="M297.222 67.0027L293.503 69.1439V122.751L297.222 120.617V67.0027Z" fill="#FAFAFA"/>
<path d="M297.222 67.0027L295.645 67.9094V119.733L297.222 120.617V67.0027Z" fill="#263238"/>
<path d="M295.645 119.733L293.503 120.922V122.751L297.222 120.617L295.645 119.733Z" fill="#455A64"/>
<path d="M291.309 70.3783L287.598 72.5119V126.126L291.309 123.985V70.3783Z" fill="#FAFAFA"/>
<path d="M291.309 70.3783L289.739 71.2851V123.101L291.309 123.985V70.3783Z" fill="#263238"/>
<path d="M289.739 123.101L287.598 124.29V126.126L291.309 123.985L289.739 123.101Z" fill="#455A64"/>
<path d="M270.041 131.773V123.802L263.671 120.122V128.092L270.041 131.773Z" fill="#E0E0E0"/>
<path d="M263.671 128.092L265.264 127.178V121.044L263.671 120.122V128.092Z" fill="#37474F"/>
<path d="M270.041 129.936L265.264 127.178L263.671 128.092L270.041 131.773V129.936Z" fill="#263238"/>
<path d="M260.135 126.081V118.11L253.773 114.437V122.408L260.135 126.081Z" fill="#E0E0E0"/>
<path d="M253.773 122.408L255.358 121.486V115.352L253.773 114.437V122.408Z" fill="#37474F"/>
<path d="M260.135 124.244L255.358 121.486L253.773 122.408L260.135 126.081V124.244Z" fill="#263238"/>
<path d="M250.237 120.396V112.425L243.867 108.745V116.716L250.237 120.396Z" fill="#E0E0E0"/>
<path d="M243.867 116.716L245.459 115.801V109.667L243.867 108.745V116.716Z" fill="#37474F"/>
<path d="M250.237 118.552L245.459 115.801L243.867 116.716L250.237 120.396V118.552Z" fill="#263238"/>
<path d="M270.041 147.043V139.073L263.671 135.4V143.37L270.041 147.043Z" fill="#E0E0E0"/>
<path d="M263.671 143.37L265.264 142.448V136.314L263.671 135.4V143.37Z" fill="#37474F"/>
<path d="M270.041 145.207L265.264 142.448L263.671 143.37L270.041 147.043V145.207Z" fill="#263238"/>
<path d="M260.135 141.359V133.38L253.773 129.708V137.678L260.135 141.359Z" fill="#E0E0E0"/>
<path d="M253.773 137.678L255.358 136.756V130.63L253.773 129.708V137.678Z" fill="#37474F"/>
<path d="M260.135 139.515L255.358 136.756L253.773 137.678L260.135 141.359V139.515Z" fill="#263238"/>
<path d="M250.237 135.666V127.696L243.867 124.015V131.986L250.237 135.666Z" fill="#E0E0E0"/>
<path d="M243.867 131.986L245.459 131.072V124.938L243.867 124.015V131.986Z" fill="#37474F"/>
<path d="M250.237 133.83L245.459 131.072L243.867 131.986L250.237 135.666V133.83Z" fill="#263238"/>
<path d="M270.041 116.822V108.852L263.671 105.179V113.149L270.041 116.822Z" fill="#E0E0E0"/>
<path d="M263.671 113.149L265.264 112.227V106.093L263.671 105.179V113.149Z" fill="#37474F"/>
<path d="M270.041 114.986L265.264 112.227L263.671 113.149L270.041 116.822V114.986Z" fill="#263238"/>
<path d="M260.135 111.069V103.099L253.773 99.4258V107.396L260.135 111.069Z" fill="#E0E0E0"/>
<path d="M253.773 107.396L255.358 106.474V100.34L253.773 99.4258V107.396Z" fill="#37474F"/>
<path d="M260.135 109.233L255.358 106.474L253.773 107.396L260.135 111.069V109.233Z" fill="#263238"/>
<path d="M250.237 105.316V97.3455L243.867 93.6727V101.643L250.237 105.316Z" fill="#E0E0E0"/>
<path d="M243.867 101.643L245.459 100.721V94.5871L243.867 93.6727V101.643Z" fill="#37474F"/>
<path d="M250.237 103.48L245.459 100.721L243.867 101.643L250.237 105.316V103.48Z" fill="#263238"/>
<path d="M270.041 101.872V93.9013L263.671 90.2284V98.1989L270.041 101.872Z" fill="#E0E0E0"/>
<path d="M263.671 98.1989L265.264 97.2769V91.1428L263.671 90.2284V98.1989Z" fill="#37474F"/>
<path d="M270.041 100.035L265.264 97.2769L263.671 98.1989L270.041 101.872V100.035Z" fill="#263238"/>
<path d="M260.135 96.0577V88.0872L253.773 84.4067V92.3849L260.135 96.0577Z" fill="#E0E0E0"/>
<path d="M253.773 92.3849L255.358 91.4628V85.3287L253.773 84.4067V92.3849Z" fill="#37474F"/>
<path d="M260.135 94.2213L255.358 91.4629L253.773 92.3849L260.135 96.0577V94.2213Z" fill="#263238"/>
<path d="M250.237 90.2437V82.2731L243.867 78.5927V86.5632L250.237 90.2437Z" fill="#E0E0E0"/>
<path d="M243.867 86.5632L245.459 85.6488V79.5147L243.867 78.5927V86.5632Z" fill="#37474F"/>
<path d="M250.237 88.4072L245.459 85.6488L243.867 86.5632L250.237 90.2437V88.4072Z" fill="#263238"/>
<path d="M270.041 86.929V78.9508L263.671 75.278V83.2485L270.041 86.929Z" fill="#E0E0E0"/>
<path d="M263.671 83.2485L265.264 82.3265V76.2L263.671 75.278V83.2485Z" fill="#37474F"/>
<path d="M270.041 85.0849L265.264 82.3265L263.671 83.2485L270.041 86.929V85.0849Z" fill="#263238"/>
<path d="M260.135 81.0463V73.0758L253.773 69.3953V77.3659L260.135 81.0463Z" fill="#E0E0E0"/>
<path d="M253.773 77.3659L255.358 76.4515V70.3174L253.773 69.3953V77.3659Z" fill="#37474F"/>
<path d="M260.135 79.2099L255.358 76.4515L253.773 77.3659L260.135 81.0463V79.2099Z" fill="#263238"/>
<path d="M250.237 75.1637V67.1932L243.867 63.5203V71.4908L250.237 75.1637Z" fill="#E0E0E0"/>
<path d="M243.867 71.4908L245.459 70.5688V64.4347L243.867 63.5203V71.4908Z" fill="#37474F"/>
<path d="M250.237 73.3272L245.459 70.5688L243.867 71.4908L250.237 75.1637V73.3272Z" fill="#263238"/>
<path d="M304.933 50.0405L277.075 33.9547L246.122 51.8236L273.981 67.9094L304.933 50.0405Z" fill="#F0F0F0"/>
<path d="M277.075 33.9547V37.5285L249.216 53.6143L246.122 51.8236L277.075 33.9547Z" fill="#263238"/>
<path d="M277.075 33.9547L304.933 50.0405L301.832 51.8236L277.075 37.5285V33.9547Z" fill="#455A64"/>
<path d="M223.476 233.972C219.602 235.565 215.256 235.565 211.383 233.972C208.045 232.38 208.045 229.804 211.383 228.211C215.256 226.619 219.602 226.619 223.476 228.211C226.821 229.804 226.821 232.38 223.476 233.972Z" fill="#E0E0E0"/>
<path d="M98.4085 228.722C102.285 230.315 106.633 230.315 110.509 228.722C113.847 227.129 113.847 224.554 110.509 222.961C106.633 221.368 102.285 221.368 98.4085 222.961C95.0862 224.554 95.0862 227.129 98.4085 228.722Z" fill="#E0E0E0"/>
<path d="M169.13 227.792L243.211 185.021C243.709 184.757 244.125 184.363 244.415 183.88C244.705 183.397 244.859 182.845 244.859 182.282C244.859 181.719 244.705 181.166 244.415 180.684C244.125 180.201 243.709 179.806 243.211 179.542L169.122 136.771C168.611 136.512 168.046 136.377 167.472 136.377C166.899 136.377 166.334 136.512 165.823 136.771L91.741 179.512C91.2436 179.776 90.8274 180.17 90.5372 180.653C90.247 181.136 90.0936 181.688 90.0936 182.251C90.0936 182.814 90.247 183.367 90.5372 183.85C90.8274 184.332 91.2436 184.727 91.741 184.991L165.83 227.762C166.339 228.026 166.903 228.166 167.476 228.171C168.05 228.176 168.616 228.047 169.13 227.792Z" fill="#C5F1FF"/>
<path d="M169.13 227.792L243.211 185.021C243.709 184.757 244.125 184.363 244.415 183.88C244.705 183.397 244.859 182.845 244.859 182.282C244.859 181.719 244.705 181.166 244.415 180.684C244.125 180.201 243.709 179.806 243.211 179.542L169.122 136.771C168.611 136.512 168.046 136.377 167.472 136.377C166.899 136.377 166.334 136.512 165.823 136.771L91.741 179.512C91.2436 179.776 90.8274 180.17 90.5372 180.653C90.247 181.136 90.0936 181.688 90.0936 182.251C90.0936 182.814 90.247 183.367 90.5372 183.85C90.8274 184.332 91.2436 184.727 91.741 184.991L165.83 227.762C166.339 228.026 166.903 228.166 167.476 228.171C168.05 228.176 168.616 228.047 169.13 227.792Z" fill="#C5F1FF"/>
<path d="M169.13 227.792L243.211 185.021C243.709 184.757 244.125 184.363 244.415 183.88C244.705 183.397 244.859 182.845 244.859 182.282C244.859 181.719 244.705 181.166 244.415 180.684C244.125 180.201 243.709 179.806 243.211 179.542L169.122 136.771C168.611 136.512 168.046 136.377 167.472 136.377C166.899 136.377 166.334 136.512 165.823 136.771L91.741 179.512C91.2436 179.776 90.8274 180.17 90.5372 180.653C90.247 181.136 90.0936 181.688 90.0936 182.251C90.0936 182.814 90.247 183.367 90.5372 183.85C90.8274 184.332 91.2436 184.727 91.741 184.991L165.83 227.762C166.339 228.026 166.903 228.166 167.476 228.171C168.05 228.176 168.616 228.047 169.13 227.792Z" fill="#C5F1FF"/>
<path opacity="0.2" d="M169.13 227.792L243.211 185.021C243.709 184.757 244.125 184.363 244.415 183.88C244.705 183.397 244.859 182.845 244.859 182.282C244.859 181.719 244.705 181.166 244.415 180.684C244.125 180.201 243.709 179.806 243.211 179.542L169.122 136.771C168.611 136.512 168.046 136.377 167.472 136.377C166.899 136.377 166.334 136.512 165.823 136.771L91.741 179.512C91.2436 179.776 90.8274 180.17 90.5372 180.653C90.247 181.136 90.0936 181.688 90.0936 182.251C90.0936 182.814 90.247 183.367 90.5372 183.85C90.8274 184.332 91.2436 184.727 91.741 184.991L165.83 227.762C166.339 228.026 166.903 228.166 167.476 228.171C168.05 228.176 168.616 228.047 169.13 227.792Z" fill="black"/>
<path d="M91.741 181.447L165.83 224.219C166.342 224.478 166.907 224.613 167.48 224.613C168.053 224.613 168.618 224.478 169.13 224.219L243.211 181.447C243.41 181.38 243.583 181.252 243.706 181.081C243.828 180.91 243.894 180.705 243.894 180.495C243.894 180.285 243.828 180.08 243.706 179.909C243.583 179.738 243.41 179.61 243.211 179.542L169.122 136.771C168.611 136.512 168.046 136.377 167.472 136.377C166.899 136.377 166.334 136.512 165.823 136.771L91.741 179.512C91.5303 179.572 91.3449 179.698 91.2128 179.873C91.0808 180.048 91.0093 180.261 91.0093 180.48C91.0093 180.699 91.0808 180.912 91.2128 181.086C91.3449 181.261 91.5303 181.388 91.741 181.447Z" fill="#C5F1FF"/>
<path d="M179.859 209.085L232.475 178.704V51.8236L179.859 82.2046V209.085Z" fill="#37474F"/>
<path d="M167.476 218.023V89.3521L102.478 51.8236V180.495L167.476 218.023Z" fill="#455A64"/>
<path d="M167.476 164.409L102.478 126.881V123.307L96.2825 126.881L167.476 167.983V164.409Z" fill="#C5F1FF"/>
<path opacity="0.5" d="M167.476 164.409L102.478 126.881V123.307L96.2825 126.881L167.476 167.983V164.409Z" fill="white"/>
<path d="M96.2825 126.881L167.476 167.983V171.557L96.2825 130.454V126.881Z" fill="#C5F1FF"/>
<path d="M167.476 164.409L179.859 157.262L182.952 159.052L167.476 167.983V164.409Z" fill="#C5F1FF"/>
<path opacity="0.5" d="M167.476 164.409L179.859 157.262L182.952 159.052L167.476 167.983V164.409Z" fill="white"/>
<path d="M167.476 171.557L182.952 162.626V159.052L167.476 167.983V171.557Z" fill="#C5F1FF"/>
<path opacity="0.2" d="M167.476 171.557L182.952 162.626V159.052L167.476 167.983V171.557Z" fill="black"/>
<path d="M167.476 89.3521L179.859 82.2046V157.262L167.476 164.409V89.3521Z" fill="#263238"/>
<path d="M167.476 171.557L179.859 164.409V210.876L167.476 218.023V171.557Z" fill="#263238"/>
<path d="M161.289 153.688V135.819L148.906 128.671V146.54L161.289 153.688Z" fill="#C5F1FF"/>
<path opacity="0.5" d="M161.289 153.688V135.819L148.906 128.671V146.54L161.289 153.688Z" fill="white"/>
<path d="M148.906 146.54L152 144.757V130.454L148.906 128.671V146.54Z" fill="#263238"/>
<path d="M161.289 150.114L152 144.757L148.906 146.54L161.289 153.688V150.114Z" fill="#263238"/>
<path d="M142.711 142.966V125.098L127.235 116.159V134.028L142.711 142.966Z" fill="#C5F1FF"/>
<path opacity="0.5" d="M142.711 142.966V125.098L127.235 116.159V134.028L142.711 142.966Z" fill="white"/>
<path d="M130.329 132.245L130.336 117.95L127.235 116.159V134.028L130.329 132.245Z" fill="#263238"/>
<path d="M142.711 139.393V142.966L127.235 134.028L130.329 132.245L142.711 139.393Z" fill="#263238"/>
<path d="M187.593 192.108V174.239L203.069 165.308V183.177L187.593 192.108Z" fill="#C5F1FF"/>
<path d="M199.975 181.386V167.091L203.069 165.308V183.177L199.975 181.386Z" fill="#263238"/>
<path d="M187.593 188.534V192.108L203.069 183.177L199.975 181.386L187.593 188.534Z" fill="#263238"/>
<path d="M187.593 162.329V144.46L203.069 135.522V153.391L187.593 162.329Z" fill="#C5F1FF"/>
<path d="M199.975 151.608V137.305L203.069 135.522V153.391L199.975 151.608Z" fill="#263238"/>
<path d="M187.593 158.755V162.329L203.069 153.391L199.975 151.608L187.593 158.755Z" fill="#263238"/>
<path d="M187.593 132.542V114.673L203.069 105.735V123.604L187.593 132.542Z" fill="#C5F1FF"/>
<path d="M199.975 121.821V107.526L203.069 105.735V123.604L199.975 121.821Z" fill="#263238"/>
<path d="M187.593 128.969V132.542L203.069 123.604L199.975 121.821L187.593 128.969Z" fill="#263238"/>
<path d="M187.593 102.756V84.8868L203.069 75.9485V93.8251L187.593 102.756Z" fill="#C5F1FF"/>
<path d="M199.975 92.0344V77.7392L203.069 75.9485V93.8251L199.975 92.0344Z" fill="#263238"/>
<path d="M187.593 99.1819V102.756L203.069 93.8251L199.975 92.0344L187.593 99.1819Z" fill="#263238"/>
<path d="M209.6 179.405V161.536L225.083 152.606L225.076 170.475L209.6 179.405Z" fill="#C5F1FF"/>
<path d="M221.982 168.684V154.389L225.083 152.606L225.076 170.475L221.982 168.684Z" fill="#263238"/>
<path d="M209.6 175.839V179.405L225.076 170.475L221.982 168.684L209.6 175.839Z" fill="#263238"/>
<path d="M209.6 149.626V131.75L225.083 122.819L225.076 140.688L209.6 149.626Z" fill="#C5F1FF"/>
<path d="M221.982 138.905V124.602L225.083 122.819L225.076 140.688L221.982 138.905Z" fill="#263238"/>
<path d="M209.6 146.053V149.626L225.076 140.688L221.982 138.905L209.6 146.053Z" fill="#263238"/>
<path d="M209.6 119.84V101.971L225.083 93.0326L225.076 110.909L209.6 119.84Z" fill="#C5F1FF"/>
<path d="M221.982 109.118V94.8233L225.083 93.0326L225.076 110.909L221.982 109.118Z" fill="#263238"/>
<path d="M209.6 116.266V119.84L225.076 110.909L221.982 109.118L209.6 116.266Z" fill="#263238"/>
<path d="M209.6 90.0532V72.1842L225.083 63.2536L225.076 81.1225L209.6 90.0532Z" fill="#C5F1FF"/>
<path d="M221.982 79.3318V65.0367L225.083 63.2536L225.076 81.1225L221.982 79.3318Z" fill="#263238"/>
<path d="M209.6 86.4794V90.0532L225.076 81.1225L221.982 79.3318L209.6 86.4794Z" fill="#263238"/>
<path d="M121.047 130.454V112.585L108.665 105.438V123.307L121.047 130.454Z" fill="#C5F1FF"/>
<path opacity="0.5" d="M121.047 130.454V112.585L108.665 105.438V123.307L121.047 130.454Z" fill="white"/>
<path d="M111.759 121.524L108.665 123.307V105.438L111.759 107.229V121.524Z" fill="#263238"/>
<path d="M121.047 126.881L111.759 121.524L108.665 123.307L121.047 130.454V126.881Z" fill="#263238"/>
<path d="M127.235 164.584C127.235 159.54 130.702 157.444 134.977 159.913C139.252 162.382 142.711 168.471 142.711 173.523V203.728L127.235 194.79V164.584Z" fill="#263238"/>
<path d="M142.711 173.523C142.711 168.471 139.252 162.375 134.977 159.913C133.888 159.224 132.623 158.866 131.334 158.885C130.627 160.065 130.28 161.426 130.336 162.801V193.007L142.711 200.155V173.523Z" fill="#455A64"/>
<path d="M142.711 173.523C142.711 168.471 139.252 162.375 134.977 159.913C133.888 159.224 132.623 158.866 131.334 158.885C130.627 160.065 130.28 161.426 130.336 162.801V193.007L142.711 200.155V173.523Z" fill="#C5F1FF"/>
<path opacity="0.5" d="M142.711 173.523C142.711 168.471 139.252 162.375 134.977 159.913C133.888 159.224 132.623 158.866 131.334 158.885C130.627 160.065 130.28 161.426 130.336 162.801V193.007L142.711 200.155V173.523Z" fill="white"/>
<path d="M137.21 161.597C136.734 161.149 136.225 160.739 135.686 160.371V168.402L130.352 165.308V167.16L135.686 170.261V193.418L137.21 194.295V171.13L142.711 174.307V173.545C142.711 173.18 142.711 172.783 142.658 172.441L137.21 169.301V161.597Z" fill="#455A64"/>
<path d="M167.476 89.3521V78.6308L99.3762 39.3192V50.0405L167.476 89.3521Z" fill="#C5F1FF"/>
<path opacity="0.5" d="M167.476 89.3521V78.6308L99.3762 39.3192V50.0405L167.476 89.3521Z" fill="white"/>
<path d="M167.476 89.3521V78.6308L235.576 39.3192V50.0405L167.476 89.3521Z" fill="#C5F1FF"/>
<path opacity="0.2" d="M167.476 89.3521V78.6308L235.576 39.3192V50.0405L167.476 89.3521Z" fill="black"/>
<path d="M108.665 70.165C108.665 65.9587 111.439 64.1452 114.852 66.1187C118.266 68.0923 121.047 73.1063 121.047 77.3125V105.438L108.665 98.2904V70.165Z" fill="#263238"/>
<path d="M114.852 66.1111C114.116 65.6697 113.286 65.4086 112.429 65.3491C111.958 66.2943 111.728 67.3414 111.759 68.3971V96.5225L121.047 101.857V77.3049C121.047 73.0986 118.274 68.0847 114.852 66.1111Z" fill="#C5F1FF"/>
<path opacity="0.5" d="M114.852 66.1111C114.116 65.6697 113.286 65.4086 112.429 65.3491C111.958 66.2943 111.728 67.3414 111.759 68.3971V96.5225L121.047 101.857V77.3049C121.047 73.0986 118.274 68.0847 114.852 66.1111Z" fill="white"/>
<path d="M108.665 98.2904L111.759 96.4997L121.047 101.857V105.438L108.665 98.2904Z" fill="#263238"/>
<path d="M127.235 82.4103C127.235 77.3582 130.702 75.2704 134.977 77.7392C139.252 80.2081 142.711 86.2965 142.711 91.3486V117.95L127.235 109.012V82.4103Z" fill="#263238"/>
<path d="M142.711 91.3485C142.711 86.2965 139.252 80.2005 134.977 77.7392C133.888 77.0497 132.623 76.6922 131.334 76.7105C130.627 77.891 130.28 79.2523 130.336 80.6272V107.221L142.711 114.376V91.3485Z" fill="#C5F1FF"/>
<path opacity="0.5" d="M142.711 91.3485C142.711 86.2965 139.252 80.2005 134.977 77.7392C133.888 77.0497 132.623 76.6922 131.334 76.7105C130.627 77.891 130.28 79.2523 130.336 80.6272V107.221L142.711 114.376V91.3485Z" fill="white"/>
<path d="M130.336 107.221L127.235 109.012L142.711 117.95V114.376L130.336 107.221Z" fill="#263238"/>
<path d="M148.906 93.406C148.906 89.1997 151.672 87.3862 155.094 89.3597C158.515 91.3333 161.289 96.3473 161.289 100.554V128.679L148.906 121.531V93.406Z" fill="#263238"/>
<path d="M155.094 89.3521C154.357 88.9118 153.527 88.6508 152.671 88.5901C152.198 89.5349 151.968 90.5823 152 91.6381V119.764L161.289 125.098V100.546C161.289 96.3397 158.515 91.3257 155.094 89.3521Z" fill="#C5F1FF"/>
<path opacity="0.5" d="M155.094 89.3521C154.357 88.9118 153.527 88.6508 152.671 88.5901C152.198 89.5349 151.968 90.5823 152 91.6381V119.764L161.289 125.098V100.546C161.289 96.3397 158.515 91.3257 155.094 89.3521Z" fill="white"/>
<path d="M152 119.733L148.906 121.524L161.289 128.671V125.098L152 119.733Z" fill="#263238"/>
<path d="M148.906 175.572C148.906 171.366 151.672 169.553 155.094 171.526C158.515 173.5 161.289 178.514 161.289 182.72V214.45L148.906 207.302V175.572Z" fill="#263238"/>
<path d="M155.094 171.526C154.357 171.086 153.527 170.825 152.671 170.764C152.199 171.709 151.969 172.756 152 173.812V205.534L161.289 210.868V182.674C161.289 178.514 158.515 173.5 155.094 171.526Z" fill="#C5F1FF"/>
<path opacity="0.5" d="M155.094 171.526C154.357 171.086 153.527 170.825 152.671 170.764C152.199 171.709 151.969 172.756 152 173.812V205.534L161.289 210.868V182.674C161.289 178.514 158.515 173.5 155.094 171.526Z" fill="white"/>
<path d="M148.906 207.302V196.581L161.289 203.728V214.45L148.906 207.302Z" fill="#37474F"/>
<path d="M148.906 196.581L152 194.79L161.281 200.155L161.289 203.728L148.906 196.581Z" fill="#263238"/>
<path d="M108.665 152.339C108.665 148.133 111.439 146.319 114.852 148.293C118.266 150.266 121.047 155.28 121.047 159.487V191.216L108.665 184.084V152.339Z" fill="#263238"/>
<path d="M114.852 148.27C114.115 147.832 113.285 147.571 112.429 147.508C111.958 148.453 111.728 149.5 111.759 150.556V182.286L121.047 187.62V159.426C121.047 155.273 118.274 150.259 114.852 148.27Z" fill="#C5F1FF"/>
<path opacity="0.5" d="M114.852 148.27C114.115 147.832 113.285 147.571 112.429 147.508C111.958 148.453 111.728 149.5 111.759 150.556V182.286L121.047 187.62V159.426C121.047 155.273 118.274 150.259 114.852 148.27Z" fill="white"/>
<path d="M121.047 191.216V180.495L108.665 173.347V184.069L121.047 191.216Z" fill="#37474F"/>
<path d="M108.665 173.347L111.759 171.557L121.047 176.921V180.495L108.665 173.347Z" fill="#263238"/>
<path d="M127.235 194.79V191.216L142.711 200.155V203.728L127.235 194.79Z" fill="#37474F"/>
<path d="M127.235 191.216L130.336 189.433L142.711 196.581V200.155L127.235 191.216Z" fill="#263238"/>
<path d="M167.476 78.6308L235.576 39.3192L167.476 0L99.3762 39.3192L167.476 78.6308Z" fill="#C5F1FF"/>
<path opacity="0.7" d="M167.476 78.6308L235.576 39.3192L167.476 0L99.3762 39.3192L167.476 78.6308Z" fill="white"/>
<path d="M167.476 71.4832L223.194 39.3192L167.476 7.14755L111.759 39.3192L167.476 71.4832Z" fill="#C5F1FF"/>
<path d="M167.476 7.14755V17.8765L121.048 44.6761L111.759 39.3192L167.476 7.14755Z" fill="#C5F1FF"/>
<path opacity="0.2" d="M167.476 7.14755V17.8765L121.048 44.6761L111.759 39.3192L167.476 7.14755Z" fill="black"/>
<path d="M167.476 7.14755L223.194 39.3192L213.905 44.6761L167.476 17.8765V7.14755Z" fill="#C5F1FF"/>
<path opacity="0.5" d="M167.476 7.14755L223.194 39.3192L213.905 44.6761L167.476 17.8765V7.14755Z" fill="white"/>
<path d="M158.187 16.0858L142.711 25.0241L164.382 37.5285L179.859 28.5979L158.187 16.0858Z" fill="#455A64"/>
<path d="M142.711 25.0241V35.7454L164.382 48.2498V37.5285L142.711 25.0241Z" fill="#37474F"/>
<path d="M179.859 28.5979V39.3192L164.382 48.2498V37.5285L179.859 28.5979Z" fill="#263238"/>
<path d="M153.105 22.0828C150.293 23.7058 150.293 26.3347 153.105 27.9578C154.681 28.7583 156.424 29.1755 158.191 29.1755C159.959 29.1755 161.701 28.7583 163.278 27.9578C166.082 26.3347 166.082 23.7058 163.278 22.0828C161.701 21.2823 159.959 20.8651 158.191 20.8651C156.424 20.8651 154.681 21.2823 153.105 22.0828Z" fill="#37474F"/>
<path d="M155.81 23.7592C154.492 24.4526 154.492 25.588 155.81 26.2814C156.556 26.6278 157.369 26.8073 158.191 26.8073C159.014 26.8073 159.826 26.6278 160.572 26.2814C161.883 25.588 161.883 24.4526 160.572 23.7592C159.826 23.4127 159.014 23.2333 158.191 23.2333C157.369 23.2333 156.556 23.4127 155.81 23.7592Z" fill="#263238"/>
<path d="M169.168 38.3362L172.262 40.1193V47.2745" stroke="#455A64" stroke-width="2" stroke-linecap="round" stroke-linejoin="round"/>
<path d="M173.664 35.7454L176.757 37.5285V44.6761" stroke="#455A64" stroke-width="2" stroke-linecap="round" stroke-linejoin="round"/>
<path d="M77.9564 143.454V168.082C77.9712 168.257 78.0327 168.425 78.1345 168.569C78.2364 168.712 78.3749 168.826 78.5355 168.897C78.9751 169.119 79.4605 169.235 79.9529 169.235C80.4452 169.235 80.9306 169.119 81.3702 168.897C81.5308 168.826 81.6693 168.712 81.7712 168.569C81.873 168.425 81.9345 168.257 81.9493 168.082V143.469L77.9564 143.454Z" fill="#37474F"/>
<path d="M89.5693 150.617C89.5693 153.167 88.5562 155.613 86.7527 157.417C84.9493 159.22 82.5033 160.233 79.9529 160.233C77.4024 160.233 74.9565 159.22 73.153 157.417C71.3496 155.613 70.3364 153.167 70.3364 150.617C70.3364 140.787 74.6417 130.043 79.9529 130.043C85.264 130.043 89.5693 140.65 89.5693 150.617Z" fill="#C5F1FF"/>
<path d="M89.5693 150.617C89.5693 150.365 89.5693 150.114 89.5693 149.855V149.603C89.4949 150.651 89.0862 151.648 88.4034 152.446C86.5822 154.732 82.5665 157.216 78.4212 155.494C71.4565 152.575 71.266 144.338 72.8129 137.518C71.1886 141.697 70.3541 146.141 70.3516 150.625C70.3516 153.175 71.3648 155.621 73.1682 157.424C74.9716 159.228 77.4176 160.241 79.9681 160.241C82.5185 160.241 84.9645 159.228 86.7679 157.424C88.5714 155.621 89.5845 153.175 89.5845 150.625L89.5693 150.617Z" fill="#C5F1FF"/>
<path opacity="0.1" d="M89.5693 150.617C89.5693 150.365 89.5693 150.114 89.5693 149.855V149.603C89.4949 150.651 89.0862 151.648 88.4034 152.446C86.5822 154.732 82.5665 157.216 78.4212 155.494C71.4565 152.575 71.266 144.338 72.8129 137.518C71.1886 141.697 70.3541 146.141 70.3516 150.625C70.3516 153.175 71.3648 155.621 73.1682 157.424C74.9716 159.228 77.4176 160.241 79.9681 160.241C82.5185 160.241 84.9645 159.228 86.7679 157.424C88.5714 155.621 89.5845 153.175 89.5845 150.625L89.5693 150.617Z" fill="black"/>
<path d="M7.61621 100.264V124.884C7.632 125.064 7.69634 125.236 7.80235 125.383C7.90836 125.529 8.05209 125.644 8.21819 125.715C8.65641 125.936 9.14062 126.052 9.6317 126.052C10.1228 126.052 10.607 125.936 11.0452 125.715C11.2063 125.643 11.3455 125.53 11.4486 125.386C11.5517 125.243 11.6149 125.075 11.632 124.899V100.264H7.61621Z" fill="#37474F"/>
<path d="M19.2291 107.45C19.2653 108.735 19.0434 110.014 18.5766 111.212C18.1098 112.41 17.4075 113.502 16.5113 114.424C15.6151 115.346 14.5432 116.078 13.3589 116.579C12.1747 117.079 10.9021 117.337 9.61644 117.337C8.33081 117.337 7.05823 117.079 5.87396 116.579C4.68968 116.078 3.61775 115.346 2.72156 114.424C1.82537 113.502 1.1231 112.41 0.656298 111.212C0.189493 110.014 -0.032376 108.735 0.00381024 107.45C0.00381024 97.6198 4.30911 86.8756 9.61263 86.8756C14.9162 86.8756 19.2291 97.4598 19.2291 107.45Z" fill="#C5F1FF"/>
<path d="M327.336 100.264V124.884C327.319 125.06 327.256 125.228 327.153 125.371C327.05 125.514 326.911 125.628 326.749 125.7C326.311 125.921 325.827 126.037 325.336 126.037C324.845 126.037 324.361 125.921 323.922 125.7C323.761 125.628 323.622 125.514 323.519 125.371C323.416 125.228 323.353 125.06 323.336 124.884V100.264H327.336Z" fill="#37474F"/>
<path d="M315.723 107.45C315.687 108.735 315.909 110.014 316.376 111.212C316.843 112.41 317.545 113.502 318.441 114.424C319.337 115.346 320.409 116.078 321.593 116.579C322.778 117.079 324.05 117.337 325.336 117.337C326.622 117.337 327.894 117.079 329.078 116.579C330.263 116.078 331.335 115.346 332.231 114.424C333.127 113.502 333.829 112.41 334.296 111.212C334.763 110.014 334.985 108.735 334.949 107.45C334.949 97.6198 330.643 86.8756 325.34 86.8756C320.036 86.8756 315.723 97.4598 315.723 107.45Z" fill="#C5F1FF"/>
<path d="M274.156 169.987H280.839V162.618C280.839 162.179 280.752 161.745 280.584 161.339C280.416 160.934 280.169 160.566 279.859 160.256C279.548 159.946 279.179 159.7 278.773 159.533C278.368 159.365 277.933 159.28 277.494 159.281C276.609 159.281 275.76 159.633 275.134 160.258C274.508 160.884 274.156 161.733 274.156 162.618V169.987Z" fill="#C5F1FF"/>
<g opacity="0.5">
<path d="M274.156 169.987H280.839V162.618C280.839 162.179 280.752 161.745 280.584 161.339C280.416 160.934 280.169 160.566 279.859 160.256C279.548 159.946 279.179 159.7 278.773 159.533C278.368 159.365 277.933 159.28 277.494 159.281C276.609 159.281 275.76 159.633 275.134 160.258C274.508 160.884 274.156 161.733 274.156 162.618V169.987Z" fill="black"/>
</g>
<path d="M275.048 172.441C275.497 170.2 276.343 167.731 276.297 166.619L275.642 166.657C275.253 166.683 274.884 166.841 274.596 167.104C274.308 167.367 274.118 167.72 274.057 168.105C273.821 169.56 273.463 171.785 273.295 172.677C273.145 173.816 272.89 174.938 272.533 176.03C272.472 176.187 272.355 176.317 272.205 176.395C271.88 176.588 271.587 176.829 271.337 177.112C271.093 177.325 270.902 177.371 270.925 177.447C270.962 177.532 271.03 177.599 271.115 177.636C271.2 177.673 271.295 177.676 271.382 177.645C271.578 177.585 271.765 177.5 271.939 177.394C271.783 177.729 271.572 178.036 271.314 178.3C270.735 178.91 270.681 179.306 271.756 179.398C272.426 179.451 272.99 179.078 273.608 177.645C273.843 177.119 274.042 176.576 274.202 176.022C274.613 174.597 274.872 173.325 275.048 172.441Z" fill="#FFA8A7"/>
<path d="M284.938 191.704C285.19 191.567 285.358 191.894 285.586 192.154C285.784 192.345 285.94 192.576 286.043 192.832C286.035 193.037 285.984 193.239 285.892 193.423C285.8 193.607 285.67 193.769 285.51 193.899C285.128 194.133 284.855 194.508 284.748 194.942C284.719 195.211 284.615 195.465 284.448 195.677C284.281 195.888 284.057 196.049 283.803 196.139C283.507 196.262 283.19 196.326 282.87 196.326C282.549 196.326 282.232 196.262 281.936 196.139C281.578 195.91 281.936 195.651 282.409 194.935C283.064 193.998 283.574 193.327 283.574 192.451L284.938 191.704Z" fill="#263238"/>
<path d="M284.413 190.896L284.946 191.658C285.06 191.822 285.106 192.023 285.073 192.22C285.04 192.416 284.932 192.592 284.771 192.71C284.608 192.809 284.415 192.847 284.227 192.818C284.039 192.788 283.867 192.693 283.742 192.55L282.904 191.628L284.413 190.896Z" fill="#FFA8A7"/>
<path d="M274.156 176.586C274.234 178.605 274.614 180.601 275.284 182.507C275.687 183.601 276.197 184.653 276.808 185.646C277.029 186.027 283.331 192.161 283.331 192.161C283.632 192.136 283.916 192.013 284.141 191.811C284.365 191.608 284.517 191.338 284.573 191.041C284.573 191.041 281.99 186.652 281.426 185.753C280.689 184.878 279.835 184.109 278.888 183.467L279.071 175.588L274.156 176.586Z" fill="#37474F"/>
<path d="M276.356 194.981L275.026 194.678L274.585 196.617L275.915 196.92L276.356 194.981Z" fill="#FFA8A7"/>
<path d="M275.284 175.489L280.953 175.71C281.339 176.548 281.504 177.471 281.433 178.392C281.243 181.158 278.621 186.103 278.621 186.103C278.744 187.223 278.687 188.354 278.454 189.456C277.858 191.473 277.156 193.457 276.351 195.4C276.093 195.439 275.831 195.421 275.581 195.349C275.331 195.277 275.1 195.151 274.903 194.981C274.903 194.981 275.756 187.399 275.985 185.456C276.236 183.352 276.877 179.512 276.877 179.512C276.452 179.093 276.069 178.633 275.734 178.14C275.139 177.388 274.834 176.447 274.872 175.489" fill="#37474F"/>
<path d="M283.117 173.995C282.925 172.042 282.609 170.102 282.172 168.189C282.121 167.873 281.966 167.584 281.734 167.365C281.501 167.146 281.203 167.01 280.885 166.977C279.033 167.975 279.048 169.301 280.626 170.901C280.626 170.901 281.281 173.477 281.487 174.711C281.702 175.839 281.804 176.985 281.791 178.133C281.782 178.301 281.709 178.459 281.586 178.575C281.333 178.855 281.122 179.171 280.961 179.512C280.793 179.786 280.618 179.885 280.664 179.954C280.723 180.025 280.807 180.071 280.899 180.082C280.991 180.093 281.084 180.069 281.159 180.015C281.328 179.9 281.482 179.765 281.616 179.611C281.564 179.974 281.453 180.327 281.288 180.655C280.907 181.417 280.968 181.806 282.05 181.585C282.706 181.447 283.14 180.922 283.315 179.367C283.393 178.794 283.428 178.216 283.422 177.637C283.3 176.182 283.209 174.894 283.117 173.995Z" fill="#FFA8A7"/>
<path d="M274.728 195.964L274.766 195.773C274.629 195.773 274.004 196.794 273.432 197.228C272.861 197.663 272.221 197.99 271.908 198.189C271.596 198.387 272.084 199.057 273.036 199.111C273.597 199.143 274.155 199.013 274.644 198.737C274.911 198.486 275.101 198.067 275.314 197.884C275.528 197.701 275.954 197.548 276.076 197.312C276.155 197.082 276.181 196.837 276.153 196.596C276.153 196.345 276.153 196.07 276.054 196.078V196.223C275.801 196.348 275.52 196.409 275.238 196.398C275.032 196.39 274.613 196.337 274.728 195.964Z" fill="#263238"/>
<path d="M276.153 184.168C276.153 184.168 276.724 180.137 276.876 179.512C276.421 179.263 275.997 178.961 275.612 178.613C275.876 178.989 276.163 179.348 276.473 179.687L276.153 184.168Z" fill="#263238"/>
<path d="M279.574 184.031C279.3 184.741 278.982 185.433 278.621 186.103C278.621 186.103 278.69 187.399 278.682 187.627L279.041 187.94C279.049 187.354 278.996 186.769 278.881 186.195C279.19 185.501 279.423 184.775 279.574 184.031Z" fill="#263238"/>
<path d="M278.888 166.649C279.559 166.725 280.225 166.835 280.885 166.977C279.041 168.272 280.626 170.901 280.626 170.901L279.643 173.622C280.303 174.488 280.839 175.442 281.235 176.456C280.717 177.051 277.639 178.849 274.126 176.586C274.126 176.586 274.331 174.605 274.621 173.111C274.118 170.688 273.973 169.835 274.126 169.263C274.537 167.663 275.482 166.642 276.564 166.581L278.888 166.649Z" fill="#F5F5F5"/>
<path d="M275.284 160.63C274.933 160.835 274.522 161.727 274.522 163.586C274.56 165.164 275.071 165.552 275.33 165.666C275.736 165.751 276.156 165.738 276.556 165.628V166.558C276.556 166.558 275.894 167.32 275.939 167.77C275.985 168.219 276.899 168.303 277.517 167.884C277.969 167.533 278.358 167.108 278.667 166.627V164.455C278.667 164.455 278.957 164.729 279.429 164.31C279.622 164.172 279.753 163.964 279.795 163.73C279.836 163.497 279.784 163.256 279.65 163.06C279.57 162.985 279.472 162.93 279.366 162.9C279.261 162.87 279.149 162.866 279.041 162.887C278.933 162.909 278.832 162.956 278.746 163.024C278.659 163.093 278.591 163.181 278.545 163.281C277.916 163.256 277.302 163.073 276.762 162.748C276.367 162.536 276.027 162.233 275.77 161.865C275.513 161.497 275.347 161.074 275.284 160.63Z" fill="#FFA8A7"/>
<path d="M276.297 163.19C276.297 163.242 276.318 163.293 276.355 163.33C276.393 163.367 276.443 163.388 276.496 163.388C276.548 163.388 276.598 163.367 276.636 163.33C276.673 163.293 276.694 163.242 276.694 163.19C276.696 163.163 276.692 163.136 276.684 163.11C276.675 163.084 276.662 163.06 276.644 163.04C276.627 163.019 276.605 163.002 276.581 162.99C276.557 162.978 276.53 162.971 276.503 162.969C276.475 162.969 276.447 162.975 276.421 162.986C276.395 162.997 276.371 163.014 276.352 163.034C276.333 163.055 276.318 163.08 276.308 163.106C276.299 163.133 276.295 163.162 276.297 163.19Z" fill="#263238"/>
<path d="M276.244 164.531L275.787 164.676C275.795 164.707 275.809 164.736 275.828 164.761C275.848 164.786 275.872 164.807 275.9 164.823C275.927 164.839 275.958 164.849 275.99 164.852C276.021 164.856 276.054 164.853 276.084 164.843C276.146 164.823 276.198 164.778 276.228 164.72C276.257 164.661 276.263 164.594 276.244 164.531Z" fill="#F28F8F"/>
<path d="M274.674 162.58L275.071 162.306C275.054 162.279 275.033 162.256 275.007 162.238C274.982 162.219 274.952 162.207 274.922 162.2C274.891 162.194 274.859 162.194 274.828 162.2C274.798 162.207 274.769 162.219 274.743 162.237C274.716 162.255 274.692 162.278 274.674 162.305C274.655 162.332 274.643 162.362 274.636 162.394C274.63 162.426 274.63 162.459 274.636 162.491C274.643 162.523 274.656 162.553 274.674 162.58Z" fill="#263238"/>
<path d="M274.766 163.045C274.764 163.072 274.767 163.099 274.775 163.125C274.784 163.151 274.797 163.175 274.815 163.195C274.833 163.216 274.854 163.233 274.879 163.245C274.903 163.257 274.929 163.264 274.956 163.266C275.01 163.266 275.061 163.246 275.099 163.209C275.137 163.172 275.16 163.121 275.162 163.068C275.162 163.042 275.157 163.016 275.147 162.992C275.137 162.968 275.122 162.946 275.104 162.928C275.086 162.91 275.064 162.895 275.04 162.885C275.016 162.875 274.99 162.87 274.964 162.87C274.938 162.87 274.912 162.875 274.888 162.885C274.864 162.895 274.842 162.91 274.824 162.928C274.805 162.946 274.791 162.968 274.781 162.992C274.771 163.016 274.766 163.042 274.766 163.068V163.045Z" fill="#263238"/>
<path d="M275.703 162.931L275.673 164.127L275.04 163.937L275.703 162.931Z" fill="#F28F8F"/>
<path d="M276.572 165.628C277.082 165.567 278.096 165.263 278.286 164.866C278.221 165.075 278.094 165.259 277.92 165.392C277.498 165.641 277.044 165.833 276.572 165.964V165.628Z" fill="#F28F8F"/>
<path d="M280.168 172.174L278.781 174.056L279.635 173.622L280.168 172.174Z" fill="#E0E0E0"/>
<path d="M213.631 204.848C213.972 202.954 214.069 201.023 213.92 199.103C213.916 199.058 213.898 199.015 213.869 198.981C213.839 198.947 213.8 198.923 213.755 198.912C213.711 198.902 213.665 198.906 213.623 198.924C213.582 198.942 213.547 198.973 213.524 199.012L212.053 201.74C212.053 201.74 211.878 203.736 211.695 205.1C211.561 206.344 211.306 207.571 210.933 208.765C210.867 208.935 210.743 209.075 210.583 209.161C210.229 209.367 209.908 209.624 209.63 209.923C209.371 210.16 209.158 210.205 209.188 210.289C209.227 210.382 209.3 210.457 209.392 210.498C209.484 210.539 209.588 210.543 209.683 210.51C209.895 210.445 210.097 210.353 210.285 210.236C210.118 210.598 209.891 210.931 209.615 211.219C208.982 211.882 208.929 212.308 210.087 212.408C210.811 212.468 211.428 212.065 212.099 210.503C212.356 209.932 212.573 209.344 212.747 208.742C213.196 207.188 213.44 205.801 213.631 204.848Z" fill="#B16668"/>
<path d="M220.511 226.489C220.511 226.489 220.603 226.489 220.885 226.665C221.205 226.864 221.484 227.123 221.708 227.427C221.738 227.648 221.721 227.873 221.658 228.087C221.595 228.301 221.487 228.499 221.342 228.669C221.055 229.1 220.904 229.606 220.908 230.124C220.883 230.458 220.789 230.783 220.632 231.078C220.474 231.373 220.257 231.632 219.993 231.839C219.521 232.166 218.942 232.501 218.675 232.418C218.408 232.334 218.393 232.006 218.728 230.558C219.008 229.604 219.207 228.628 219.323 227.64L220.511 226.489Z" fill="#263238"/>
<path d="M220.306 226.215L220.618 226.634C220.667 226.698 220.702 226.773 220.719 226.852C220.736 226.931 220.735 227.012 220.717 227.091C220.67 227.374 220.524 227.63 220.306 227.815C220.181 227.909 220.027 227.955 219.871 227.945C219.764 227.937 219.66 227.906 219.565 227.855C219.471 227.804 219.388 227.733 219.323 227.648L219.079 227.32L220.306 226.215Z" fill="#B16668"/>
<path d="M212.724 208.148L216.244 211.668H216.145L215.337 218.039C215.976 218.471 216.52 219.028 216.938 219.677C217.608 220.713 220.275 226.215 220.275 226.215C220.275 226.215 219.963 227.442 219.048 227.32C219.048 227.32 217.631 225.552 216.107 223.617C214.438 221.491 212.594 219.189 212.495 218.77C211.985 216.484 212.724 208.148 212.724 208.148Z" fill="#455A64"/>
<path d="M217.006 219.677C217.677 220.713 220.344 226.215 220.344 226.215C220.344 226.215 220.031 227.442 219.117 227.32C219.117 227.32 217.7 225.552 216.176 223.617L217.006 219.677Z" fill="#37474F"/>
<path d="M216.724 230.139C216.33 229.753 215.887 229.42 215.406 229.149C215.173 229.133 214.938 229.133 214.705 229.149C214.495 229.149 214.285 229.126 214.08 229.08C213.659 228.927 213.252 228.741 212.861 228.524C212.695 228.423 212.515 228.346 212.327 228.295C212 228.234 211.741 228.227 211.626 228.592C211.591 228.703 211.578 228.82 211.588 228.935C211.584 229.274 211.661 229.609 211.812 229.913C211.963 230.216 212.184 230.479 212.457 230.68C212.708 230.848 213.044 230.977 213.31 231.13C213.716 231.298 214.107 231.502 214.476 231.739C215.025 232.212 215.535 232.677 216.305 232.372C216.458 232.328 216.598 232.247 216.711 232.135C216.824 232.023 216.908 231.884 216.953 231.732C217.06 231.328 216.679 230.566 216.724 230.139Z" fill="#263238"/>
<path d="M212.762 207.599L220.306 208.361C220.511 210.539 220.323 212.735 219.749 214.846C219.14 217.581 218.462 220.454 218.462 220.454C218.787 221.511 218.811 222.638 218.53 223.708C217.943 225.621 216.854 230.703 216.854 230.703C216.507 229.972 215.898 229.398 215.147 229.095C215.147 229.095 215.421 226.421 215.589 224.485C215.756 222.55 215.856 220.934 215.917 219.738C216.016 217.833 216.29 211.638 216.29 211.638H216.191C216.191 211.638 213.227 210.236 212.739 208.117L212.762 207.599Z" fill="#455A64"/>
<path d="M216.244 211.668C215.392 211.273 214.599 210.76 213.89 210.144L215.726 211.859L215.391 217.597L216.244 211.668Z" fill="#37474F"/>
<path d="M215.528 198.265C214.408 198.265 213.067 198.623 212.533 199.652C212.057 200.958 211.738 202.316 211.581 203.698C211.581 203.698 212 204.605 213.569 204.498L215.528 198.265Z" fill="#263238"/>
<path d="M222.805 206.532C222.493 203.309 221.327 200.955 221.189 200.147L220.245 204.132C220.558 205.184 220.812 206.252 221.007 207.333C221.238 208.561 221.351 209.809 221.342 211.059C221.328 211.24 221.249 211.41 221.121 211.539C220.841 211.839 220.61 212.181 220.435 212.552C220.252 212.857 220.062 212.956 220.115 213.032C220.179 213.109 220.269 213.158 220.368 213.171C220.467 213.184 220.567 213.159 220.648 213.101C220.833 212.977 221.002 212.831 221.151 212.667C221.099 213.06 220.986 213.443 220.816 213.802C220.405 214.617 220.473 215.052 221.578 214.808C222.294 214.655 222.767 214.092 222.957 212.4C223.038 211.778 223.076 211.152 223.072 210.525C223.026 208.902 222.896 207.5 222.805 206.532Z" fill="#B16668"/>
<path d="M217.821 198.333C219.147 198.653 220.961 199.095 221.487 200.513C221.923 201.884 222.287 203.278 222.576 204.688C222.287 204.968 221.934 205.175 221.548 205.29C221.163 205.406 220.755 205.427 220.359 205.351L220.054 204.277L220.306 208.384C219.269 209.52 214.972 209.809 212.724 208.148C212.724 208.148 213.112 202.052 213.112 200.917C213.091 200.582 213.137 200.247 213.247 199.931C213.358 199.615 213.531 199.325 213.757 199.078C213.982 198.83 214.255 198.63 214.56 198.491C214.864 198.351 215.193 198.274 215.528 198.265L217.821 198.333Z" fill="#37474F"/>
<path d="M220.054 204.277L219.384 202.174L220.115 205.321L220.054 204.277Z" fill="#263238"/>
<path d="M218.317 192.42C218.436 192.407 218.557 192.421 218.67 192.461C218.784 192.5 218.887 192.564 218.972 192.649C219.254 192.938 219.193 193.472 218.972 194.691L218.103 194.79L218.317 192.42Z" fill="#263238"/>
<path d="M213.257 192.07C213.068 192.07 212.881 192.031 212.708 191.955C212.442 191.803 212.373 192.108 212.518 192.367C212.615 192.557 212.759 192.718 212.936 192.836C213.114 192.953 213.319 193.023 213.531 193.037L213.775 192.359L213.257 192.07Z" fill="#263238"/>
<path d="M217.913 194.79C218.042 194.866 218.225 194.622 218.385 194.455C218.447 194.382 218.527 194.327 218.617 194.295C218.706 194.262 218.803 194.253 218.897 194.268C218.991 194.283 219.079 194.323 219.154 194.382C219.229 194.441 219.287 194.519 219.323 194.607C219.582 195.163 218.98 195.903 218.629 196.131C218.532 196.216 218.41 196.268 218.281 196.278C218.152 196.289 218.023 196.259 217.913 196.192L217.821 198.318C217.664 198.658 217.425 198.954 217.126 199.18C216.827 199.406 216.477 199.555 216.107 199.614C214.857 199.789 215.116 198.76 215.528 198.25V197.488C215.218 197.555 214.898 197.57 214.583 197.533C214.221 197.271 213.941 196.912 213.775 196.497C213.242 195.443 213.125 194.227 213.448 193.091C213.89 191.186 215.939 191.125 217.159 191.894C218.378 192.664 217.913 194.79 217.913 194.79Z" fill="#B16668"/>
<path d="M217.913 195.011C217.974 195.011 218.218 194.6 218.385 194.455C218.553 194.31 218.317 192.42 218.317 192.42C218.379 192.225 218.392 192.016 218.355 191.814C218.318 191.612 218.231 191.423 218.103 191.262C217.661 190.805 216.816 190.881 216.191 190.858C215.427 190.864 214.67 190.713 213.966 190.416C213.082 190.028 213.013 189.982 212.907 190.37C212.82 190.691 212.809 191.026 212.873 191.352C212.938 191.677 213.077 191.983 213.28 192.245L213.57 192.717C213.9 192.914 214.275 193.024 214.659 193.037C215.475 193.032 216.286 192.909 217.067 192.672C217.303 192.672 217.357 192.87 217.486 193.51C217.616 194.15 217.692 195.003 217.913 195.011Z" fill="#263238"/>
<path d="M218.317 192.565L219.079 192.146C219.054 192.093 219.02 192.046 218.977 192.008C218.933 191.969 218.883 191.939 218.828 191.921C218.773 191.902 218.715 191.895 218.657 191.9C218.599 191.904 218.543 191.921 218.492 191.948C218.389 192.008 218.313 192.106 218.281 192.221C218.248 192.336 218.261 192.459 218.317 192.565Z" fill="#263238"/>
<path d="M215.528 197.495C216.061 197.392 216.584 197.242 217.09 197.046C217.327 196.923 217.521 196.732 217.646 196.497C217.586 196.731 217.48 196.951 217.334 197.145C217.037 197.526 215.528 197.8 215.528 197.8V197.495Z" fill="#9A4A4D"/>
<path d="M215.482 194.752C215.482 194.815 215.507 194.875 215.551 194.919C215.596 194.963 215.656 194.988 215.718 194.988C215.775 194.978 215.826 194.949 215.862 194.905C215.899 194.861 215.919 194.805 215.919 194.748C215.919 194.691 215.899 194.636 215.862 194.592C215.826 194.548 215.775 194.518 215.718 194.508C215.687 194.508 215.655 194.514 215.626 194.527C215.597 194.539 215.571 194.557 215.549 194.58C215.527 194.603 215.509 194.63 215.498 194.659C215.487 194.689 215.481 194.72 215.482 194.752Z" fill="#263238"/>
<path d="M215.741 193.876L216.237 194.15C216.27 194.081 216.276 194.001 216.253 193.928C216.231 193.854 216.181 193.792 216.115 193.754C216.082 193.736 216.047 193.724 216.01 193.721C215.973 193.717 215.936 193.721 215.901 193.733C215.866 193.744 215.834 193.763 215.806 193.787C215.779 193.812 215.757 193.842 215.741 193.876Z" fill="#263238"/>
<path d="M215.635 196.276L215.101 196.474C215.127 196.545 215.18 196.604 215.248 196.636C215.317 196.669 215.395 196.674 215.467 196.649C215.537 196.62 215.594 196.566 215.625 196.496C215.656 196.427 215.66 196.348 215.635 196.276Z" fill="#9A4A4D"/>
<path d="M213.425 194.066L213.882 193.723C213.861 193.692 213.833 193.666 213.802 193.646C213.77 193.626 213.734 193.612 213.697 193.607C213.66 193.601 213.622 193.603 213.586 193.613C213.549 193.622 213.515 193.639 213.486 193.662C213.426 193.709 213.386 193.777 213.375 193.852C213.364 193.927 213.381 194.004 213.425 194.066Z" fill="#263238"/>
<path d="M213.57 194.683C213.57 194.744 213.594 194.802 213.636 194.845C213.679 194.888 213.738 194.912 213.798 194.912C213.859 194.912 213.917 194.888 213.96 194.845C214.003 194.802 214.027 194.744 214.027 194.683C214.028 194.652 214.023 194.621 214.012 194.592C214.001 194.563 213.984 194.537 213.963 194.514C213.942 194.491 213.916 194.473 213.888 194.46C213.86 194.448 213.829 194.441 213.798 194.44C213.767 194.441 213.737 194.448 213.708 194.46C213.68 194.473 213.655 194.491 213.633 194.514C213.612 194.537 213.596 194.563 213.585 194.592C213.574 194.621 213.569 194.652 213.57 194.683Z" fill="#263238"/>
<path d="M214.659 194.653L214.873 196.032L214.111 195.941L214.659 194.653Z" fill="#9A4A4D"/>
<path d="M105.594 192.154C104.632 192.154 103.71 191.771 103.029 191.091C102.349 190.411 101.967 189.488 101.967 188.526V188.374C101.967 187.566 102.288 186.79 102.86 186.219C103.431 185.647 104.207 185.326 105.015 185.326H106.12C106.928 185.326 107.704 185.647 108.275 186.219C108.847 186.79 109.168 187.566 109.168 188.374V188.526C109.168 189.479 108.793 190.394 108.125 191.072C107.456 191.751 106.547 192.14 105.594 192.154Z" fill="#263238"/>
<path d="M108.284 199.591C107.804 197.16 106.882 194.478 106.928 193.266L107.636 193.312C108.06 193.339 108.461 193.509 108.776 193.794C109.09 194.079 109.298 194.463 109.366 194.881C109.618 196.466 110.006 198.882 110.128 199.873C110.287 201.109 110.56 202.329 110.943 203.515C111.009 203.685 111.137 203.824 111.302 203.904C111.649 204.114 111.967 204.37 112.246 204.666C112.506 204.902 112.719 204.947 112.688 205.031C112.649 205.124 112.576 205.199 112.484 205.24C112.392 205.281 112.288 205.285 112.193 205.252C111.983 205.184 111.781 205.092 111.591 204.978C111.759 205.341 111.985 205.673 112.262 205.961C112.894 206.624 112.947 207.051 111.789 207.15C111.027 207.211 110.448 206.807 109.778 205.245C109.52 204.674 109.304 204.086 109.13 203.484C108.756 201.93 108.475 200.551 108.284 199.591Z" fill="#B16668"/>
<path d="M106.63 193.228C107.302 193.163 107.978 193.271 108.596 193.54C108.847 193.685 109.056 193.891 109.205 194.139C109.355 194.387 109.439 194.669 109.45 194.958C109.595 195.674 109.831 197.556 109.831 197.556C109.831 197.556 109.435 198.425 107.674 198.067L106.63 193.228Z" fill="#263238"/>
<path d="M101.609 221.239C101.609 221.239 101.518 221.239 101.236 221.414C100.915 221.614 100.636 221.873 100.413 222.176C100.383 222.397 100.4 222.622 100.463 222.836C100.526 223.05 100.633 223.249 100.778 223.418C101.065 223.849 101.216 224.356 101.213 224.874C101.237 225.208 101.331 225.532 101.489 225.828C101.646 226.123 101.864 226.382 102.127 226.588C102.6 226.916 103.186 227.251 103.445 227.167C103.704 227.084 103.727 226.756 103.392 225.308C103.112 224.354 102.913 223.377 102.798 222.39L101.609 221.239Z" fill="#263238"/>
<path d="M101.815 220.965L101.502 221.384C101.453 221.448 101.419 221.522 101.402 221.601C101.384 221.68 101.385 221.762 101.403 221.841C101.45 222.124 101.596 222.38 101.815 222.565C101.939 222.658 102.093 222.704 102.249 222.694C102.356 222.686 102.461 222.656 102.555 222.605C102.65 222.553 102.732 222.483 102.798 222.397L103.041 222.07L101.815 220.965Z" fill="#B16668"/>
<path d="M109.221 203.02L107.4 203.705L105.876 206.418H105.975L106.783 212.788C106.144 213.221 105.6 213.778 105.183 214.427C104.512 215.463 101.845 220.965 101.845 220.965C101.845 220.965 102.158 222.192 103.072 222.07C103.072 222.07 104.489 220.302 106.013 218.366C107.313 216.825 108.519 215.206 109.625 213.52C110.326 211.051 109.221 203.02 109.221 203.02Z" fill="#C5F1FF"/>
<path d="M105.152 214.427C104.482 215.463 101.815 220.965 101.815 220.965C101.815 220.965 102.127 222.192 103.041 222.07C103.041 222.07 104.459 220.302 105.983 218.366L105.152 214.427Z" fill="#C5F1FF"/>
<path opacity="0.2" d="M105.152 214.427C104.482 215.463 101.815 220.965 101.815 220.965C101.815 220.965 102.127 222.192 103.041 222.07C103.041 222.07 104.459 220.302 105.983 218.366L105.152 214.427Z" fill="black"/>
<path d="M105.373 224.912C105.812 224.581 106.294 224.311 106.806 224.112C107.04 224.117 107.275 224.138 107.507 224.173C107.714 224.196 107.924 224.196 108.132 224.173C108.571 224.078 109.001 223.948 109.419 223.784C109.598 223.703 109.788 223.652 109.983 223.632C110.311 223.632 110.57 223.632 110.639 224.013C110.658 224.129 110.658 224.247 110.639 224.363C110.602 224.701 110.486 225.025 110.299 225.309C110.112 225.592 109.86 225.827 109.564 225.994C109.298 226.123 108.947 226.215 108.665 226.322C108.239 226.435 107.823 226.585 107.423 226.771C106.821 227.16 106.25 227.533 105.533 227.152C105.387 227.091 105.258 226.993 105.161 226.867C105.063 226.742 105 226.593 104.977 226.436C104.878 225.994 105.366 225.316 105.373 224.912Z" fill="#263238"/>
<path d="M109 202.684L101.944 203.134C101.441 204.742 101.449 206.182 102.005 209.306C102.407 211.318 102.957 213.297 103.651 215.227C103.33 216.288 103.314 217.418 103.605 218.488C104.184 220.401 105.289 225.24 105.289 225.24C105.803 224.761 106.399 224.382 107.05 224.119C107.05 224.119 106.707 221.201 106.539 219.265C106.371 217.33 106.272 215.715 106.211 214.518C106.112 212.613 105.838 206.418 105.838 206.418H105.937C105.937 206.418 108.52 205.473 108.985 203.37L109 202.684Z" fill="#C5F1FF"/>
<path opacity="0.2" d="M105.846 206.418C106.697 206.021 107.489 205.508 108.2 204.894L106.371 206.609L106.699 212.347L105.846 206.418Z" fill="black"/>
<path d="M99.521 201.275C99.7833 199.127 100.175 196.997 100.695 194.897C100.75 194.586 100.901 194.301 101.127 194.079C101.352 193.858 101.64 193.713 101.952 193.662C103.956 194.744 103.941 196.184 102.234 197.914C102.234 197.914 101.517 200.718 101.296 202.082C101.064 203.311 100.952 204.559 100.961 205.809C100.975 205.99 101.054 206.16 101.182 206.289C101.462 206.589 101.693 206.931 101.868 207.302C102.051 207.607 102.241 207.706 102.188 207.782C102.124 207.859 102.034 207.908 101.935 207.921C101.836 207.933 101.736 207.908 101.655 207.851C101.47 207.727 101.301 207.581 101.152 207.416C101.212 207.809 101.332 208.189 101.51 208.544C101.921 209.359 101.853 209.786 100.748 209.55C100.032 209.398 99.5591 208.834 99.3686 207.142C99.2883 206.521 99.2502 205.894 99.2543 205.268C99.3001 203.652 99.4296 202.25 99.521 201.275Z" fill="#B16668"/>
<path d="M104.116 193.304L101.952 193.662C103.956 195.072 102.234 197.914 102.234 197.914L103.301 200.878C102.771 201.591 102.319 202.357 101.952 203.164C102.607 203.736 106.524 205.085 109.221 203.05C109.221 203.05 109.069 201.976 108.749 200.353C109.297 197.716 109.45 196.786 109.29 196.169C108.84 194.432 107.812 193.327 106.638 193.258L104.116 193.304Z" fill="#455A64"/>
<path d="M108.04 186.766C108.421 186.995 108.894 187.955 108.848 189.974C108.81 191.689 108.254 192.115 107.972 192.26C107.53 192.349 107.074 192.336 106.638 192.222V193.228C106.638 193.228 107.354 194.066 107.309 194.539C107.263 195.011 106.272 195.125 105.594 194.661C105.103 194.283 104.68 193.824 104.345 193.304V190.942C104.345 190.942 104.04 191.239 103.514 190.79C103.305 190.639 103.163 190.413 103.119 190.16C103.075 189.906 103.132 189.645 103.278 189.433C103.366 189.356 103.47 189.299 103.584 189.269C103.697 189.238 103.816 189.234 103.931 189.257C104.046 189.28 104.154 189.329 104.247 189.401C104.34 189.472 104.415 189.564 104.466 189.669C105.152 189.641 105.82 189.442 106.41 189.09C106.846 188.859 107.221 188.528 107.504 188.124C107.788 187.72 107.971 187.255 108.04 186.766Z" fill="#B16668"/>
<path d="M106.928 189.547C106.928 189.589 106.915 189.63 106.893 189.664C106.87 189.699 106.837 189.726 106.799 189.743C106.761 189.759 106.719 189.764 106.678 189.757C106.637 189.75 106.599 189.731 106.569 189.703C106.538 189.675 106.517 189.638 106.507 189.598C106.497 189.557 106.499 189.515 106.513 189.476C106.527 189.437 106.552 189.402 106.585 189.377C106.618 189.352 106.658 189.337 106.699 189.334C106.728 189.333 106.757 189.338 106.784 189.348C106.811 189.358 106.836 189.374 106.858 189.393C106.879 189.413 106.896 189.437 106.908 189.463C106.92 189.49 106.927 189.518 106.928 189.547Z" fill="#263238"/>
<path d="M106.989 191.003L107.484 191.155C107.475 191.189 107.46 191.221 107.438 191.249C107.417 191.277 107.39 191.3 107.359 191.317C107.329 191.334 107.295 191.345 107.26 191.348C107.225 191.352 107.19 191.349 107.156 191.338C107.09 191.316 107.035 191.268 107.004 191.205C106.972 191.142 106.967 191.07 106.989 191.003Z" fill="#9A4A4D"/>
<path d="M108.696 188.885L108.261 188.587C108.278 188.557 108.301 188.531 108.329 188.51C108.357 188.49 108.389 188.476 108.423 188.468C108.457 188.461 108.492 188.461 108.526 188.469C108.56 188.476 108.592 188.49 108.619 188.511C108.678 188.551 108.719 188.613 108.733 188.682C108.747 188.752 108.734 188.825 108.696 188.885Z" fill="#263238"/>
<path d="M108.596 189.418C108.602 189.45 108.601 189.483 108.593 189.514C108.585 189.546 108.57 189.575 108.549 189.6C108.529 189.625 108.503 189.645 108.473 189.659C108.444 189.673 108.412 189.68 108.379 189.68C108.347 189.68 108.315 189.673 108.285 189.659C108.256 189.645 108.23 189.625 108.209 189.6C108.188 189.575 108.174 189.546 108.165 189.514C108.157 189.483 108.156 189.45 108.162 189.418C108.16 189.389 108.164 189.361 108.173 189.333C108.182 189.306 108.197 189.281 108.216 189.26C108.236 189.239 108.259 189.221 108.285 189.209C108.311 189.197 108.339 189.19 108.368 189.189C108.398 189.188 108.428 189.193 108.457 189.205C108.485 189.216 108.51 189.232 108.532 189.254C108.553 189.275 108.57 189.301 108.581 189.329C108.592 189.357 108.598 189.388 108.596 189.418Z" fill="#263238"/>
<path d="M107.575 189.266L107.613 190.561L108.292 190.355L107.575 189.266Z" fill="#9A4A4D"/>
<path d="M106.631 192.199C106.074 192.123 104.947 191.795 104.771 191.353C104.839 191.581 104.978 191.782 105.167 191.925C105.625 192.195 106.117 192.403 106.631 192.542V192.199Z" fill="#9A4A4D"/>
<path d="M102.729 199.301L104.238 201.343L103.301 200.878L102.729 199.301Z" fill="#263238"/>
<path d="M103.217 184.953C103.503 185.115 103.732 185.361 103.874 185.657C104.016 185.954 104.064 186.287 104.011 186.611C103.957 186.936 103.806 187.236 103.577 187.472C103.348 187.708 103.052 187.868 102.729 187.93C102.406 187.992 102.072 187.954 101.772 187.821C101.471 187.688 101.219 187.465 101.048 187.184C100.878 186.903 100.798 186.576 100.819 186.248C100.841 185.92 100.962 185.606 101.167 185.349C101.394 185.034 101.732 184.818 102.113 184.745C102.494 184.671 102.889 184.745 103.217 184.953Z" fill="#263238"/>
<path d="M101.944 193.662C101.632 193.738 100.832 193.662 100.42 195.247C100.009 196.832 99.7496 198.356 99.7496 198.356C100.027 198.674 100.391 198.904 100.797 199.019C101.202 199.134 101.633 199.129 102.036 199.004C102.036 199.004 102.554 197.419 102.889 196.375C103.224 195.331 103.041 194.043 101.944 193.662Z" fill="#263238"/>
<path d="M49.29 167.716C48.9711 165.942 48.8789 164.134 49.0156 162.336C49.0175 162.293 49.0336 162.251 49.0615 162.218C49.0895 162.184 49.1277 162.161 49.1702 162.151C49.2127 162.142 49.2572 162.147 49.2968 162.165C49.3363 162.183 49.3688 162.214 49.389 162.253L50.7682 164.805C50.7682 164.805 50.9283 166.68 51.1035 167.96C51.2242 169.124 51.4616 170.273 51.8122 171.389C51.8734 171.549 51.9896 171.681 52.1398 171.762C52.4719 171.957 52.7725 172.201 53.0314 172.486C53.2752 172.707 53.4733 172.753 53.4505 172.829C53.4119 172.915 53.3432 172.983 53.2574 173.021C53.1716 173.059 53.0749 173.064 52.9857 173.035C52.7861 172.973 52.5944 172.889 52.4142 172.784C52.5752 173.12 52.7887 173.429 53.0466 173.698C53.641 174.323 53.6943 174.727 52.6047 174.818C51.9189 174.879 51.3474 174.498 50.7149 173.035C50.4761 172.498 50.2725 171.945 50.1053 171.381C49.7319 169.911 49.4728 168.615 49.29 167.716Z" fill="#FFA8A7"/>
<path d="M47.5145 161.552C48.5585 161.552 49.8005 161.887 50.3187 162.847C50.764 164.078 51.0632 165.357 51.2102 166.657C51.2102 166.657 50.814 167.51 49.3509 167.419L47.5145 161.552Z" fill="#C5F1FF"/>
<path opacity="0.2" d="M47.5145 161.552C48.5585 161.552 49.8005 161.887 50.3187 162.847C50.764 164.078 51.0632 165.357 51.2102 166.657C51.2102 166.657 50.814 167.51 49.3509 167.419L47.5145 161.552Z" fill="black"/>
<path d="M39.1706 187.277C38.9115 187.147 38.7439 187.475 38.5077 187.742C38.3026 187.933 38.1459 188.171 38.0505 188.435C38.0559 188.643 38.1063 188.848 38.1984 189.035C38.2905 189.221 38.422 189.386 38.5839 189.517C38.7744 189.635 38.9398 189.789 39.0706 189.971C39.2014 190.152 39.2949 190.358 39.3459 190.576C39.3734 190.851 39.4793 191.112 39.6508 191.328C39.8224 191.544 40.0525 191.706 40.3136 191.795C40.6129 191.921 40.9341 191.985 41.2585 191.985C41.5829 191.985 41.9041 191.921 42.2034 191.795C42.5691 191.559 42.2034 191.3 41.7233 190.569C41.0604 189.616 40.5422 188.93 40.5422 188.039L39.1706 187.277Z" fill="#263238"/>
<path d="M39.704 186.5L39.1554 187.3C39.0969 187.381 39.0552 187.474 39.0328 187.572C39.0103 187.67 39.0075 187.772 39.0245 187.871C39.0415 187.97 39.078 188.065 39.1318 188.15C39.1857 188.235 39.2558 188.309 39.3383 188.366C39.5042 188.466 39.6998 188.503 39.8907 188.472C40.0816 188.442 40.2556 188.345 40.3822 188.199L41.2433 187.269L39.704 186.5Z" fill="#FFA8A7"/>
<path d="M49.7776 170.81C49.7776 171.839 49.5186 175.976 48.8099 177.805C48.1012 179.634 47.6974 180.777 47.4764 181.158C47.2554 181.539 40.8394 187.787 40.8394 187.787C40.5337 187.761 40.2448 187.637 40.0166 187.432C39.7883 187.227 39.6331 186.953 39.5745 186.652C39.5745 186.652 42.2034 182.179 42.7749 181.265C43.5254 180.375 44.3946 179.593 45.358 178.94L45.1752 170.932L49.7776 170.81Z" fill="#37474F"/>
<path d="M48.3682 192.629L49.7208 192.323L49.2727 190.346L47.9202 190.652L48.3682 192.629Z" fill="#FFA8A7"/>
<path d="M49.7776 170.81H43.2702C43.1305 171.762 43.049 172.721 43.0263 173.683C42.973 176.502 45.6019 181.623 45.6019 181.623C45.4715 182.762 45.5281 183.915 45.7695 185.036C46.3754 187.09 47.0901 189.109 47.9107 191.087C48.1721 191.126 48.4389 191.108 48.6927 191.034C48.9465 190.96 49.1814 190.833 49.3814 190.66C49.3814 190.66 48.5127 182.941 48.2765 180.96C48.025 178.819 47.3773 174.909 47.3773 174.909C47.8066 174.48 48.1968 174.014 48.5432 173.515C49.1452 172.713 49.5664 171.79 49.7776 170.81Z" fill="#37474F"/>
<path d="M40.687 169.294C40.9842 166.284 42.0738 164.074 42.211 163.312L43.1025 167.046C42.7919 168.034 42.5375 169.039 42.3405 170.056C42.1206 171.206 42.0134 172.375 42.0205 173.546C42.0353 173.714 42.1112 173.871 42.2338 173.987C42.5008 174.269 42.7219 174.59 42.8892 174.94C43.0644 175.222 43.2397 175.321 43.194 175.382C43.1342 175.455 43.0492 175.502 42.9559 175.515C42.8627 175.528 42.7681 175.505 42.691 175.451C42.5186 175.332 42.3601 175.194 42.2186 175.039C42.2726 175.408 42.3858 175.765 42.5539 176.098C42.9425 176.86 42.8815 177.272 41.7919 177.043C41.1213 176.898 40.6794 176.373 40.5041 174.757C40.4266 174.174 40.3909 173.585 40.3974 172.997C40.4812 171.526 40.6032 170.208 40.687 169.294Z" fill="#FFA8A7"/>
<path d="M45.3656 161.613C44.116 161.917 42.4167 162.306 41.9214 163.655C41.5157 164.942 41.1749 166.25 40.9003 167.571C41.1732 167.832 41.5039 168.025 41.8655 168.133C42.227 168.242 42.6091 168.264 42.9806 168.196L43.2701 167.183V170.81C44.2455 171.877 47.644 172.372 49.7776 170.81V164.036C49.7983 163.721 49.7548 163.405 49.6498 163.107C49.5448 162.81 49.3804 162.536 49.1667 162.304C48.953 162.072 48.6943 161.885 48.4063 161.756C48.1184 161.627 47.8072 161.557 47.4916 161.552L45.3656 161.613Z" fill="#C5F1FF"/>
<path opacity="0.2" d="M43.2702 167.183L43.895 165.217L43.2702 168.067V167.183Z" fill="black"/>
<path d="M50.0062 157.056C50.0108 157.443 49.9002 157.822 49.6886 158.146C49.4771 158.47 49.174 158.723 48.818 158.874C48.462 159.025 48.069 159.067 47.6891 158.995C47.3092 158.922 46.9595 158.738 46.6844 158.466C46.4093 158.194 46.2213 157.847 46.1441 157.468C46.067 157.089 46.1042 156.695 46.2512 156.338C46.3981 155.98 46.6481 155.674 46.9694 155.458C47.2907 155.243 47.6687 155.128 48.0555 155.128C48.5689 155.128 49.0617 155.33 49.4269 155.691C49.792 156.052 50.0002 156.542 50.0062 157.056Z" fill="#263238"/>
<path d="M44.8932 156.073C44.7822 156.062 44.67 156.075 44.5647 156.112C44.4593 156.149 44.3634 156.208 44.2836 156.286C44.0169 156.561 44.0779 157.048 44.2836 158.199L45.0989 158.298L44.8932 156.073Z" fill="#263238"/>
<path d="M45.2743 158.298C45.16 158.366 44.9847 158.138 44.8323 157.978C44.7733 157.912 44.6985 157.862 44.615 157.832C44.5314 157.803 44.4418 157.795 44.3543 157.809C44.2669 157.824 44.1845 157.86 44.1149 157.915C44.0453 157.97 43.9906 158.041 43.956 158.123C43.7122 158.641 44.2684 159.334 44.6037 159.563C44.6941 159.644 44.8081 159.693 44.9289 159.704C45.0497 159.715 45.1708 159.687 45.2743 159.624L45.3657 161.613C45.5116 161.932 45.734 162.21 46.0131 162.423C46.2922 162.635 46.6195 162.776 46.9659 162.832C48.1394 162.992 47.8955 162.024 47.5145 161.552V160.828C47.8074 160.891 48.1084 160.906 48.4061 160.873C48.7449 160.625 49.0086 160.287 49.1681 159.898C49.6663 158.91 49.7777 157.771 49.4805 156.705C49.0614 154.922 47.1412 154.869 45.9982 155.585C44.8552 156.301 45.2743 158.298 45.2743 158.298Z" fill="#FFA8A7"/>
<path d="M45.2742 158.496C45.2209 158.496 44.9847 158.115 44.8323 157.978C44.6799 157.841 44.8932 156.073 44.8932 156.073C44.837 155.889 44.8264 155.695 44.8623 155.506C44.8981 155.318 44.9794 155.141 45.099 154.991C45.5105 154.556 46.3106 154.633 46.8897 154.61C47.7638 154.565 48.6399 154.586 49.511 154.671C49.658 154.667 49.8005 154.722 49.9072 154.823C49.9428 154.882 49.9653 154.948 49.9732 155.016C49.9811 155.085 49.9741 155.154 49.9529 155.219C49.872 155.602 49.6694 155.948 49.3756 156.207C49.0817 156.465 48.7122 156.621 48.3222 156.652C47.5476 156.649 46.7775 156.534 46.0362 156.309C45.8153 156.309 45.7695 156.492 45.6476 157.071C45.5257 157.65 45.48 158.496 45.2742 158.496Z" fill="#263238"/>
<path d="M44.9009 156.202L44.1389 155.814C44.1623 155.765 44.1953 155.722 44.2358 155.686C44.2763 155.651 44.3235 155.624 44.3746 155.607C44.4257 155.59 44.4798 155.583 44.5335 155.587C44.5872 155.591 44.6396 155.606 44.6875 155.631C44.791 155.679 44.8715 155.766 44.9114 155.873C44.9513 155.98 44.9475 156.098 44.9009 156.202Z" fill="#263238"/>
<path d="M47.5069 160.828C47.0102 160.732 46.5231 160.592 46.0515 160.409C45.8269 160.294 45.6432 160.113 45.5257 159.89C45.5818 160.112 45.6829 160.319 45.8229 160.5C46.0972 160.858 47.5069 161.117 47.5069 161.117V160.828Z" fill="#F28F8F"/>
<path d="M47.545 158.252C47.551 158.284 47.5499 158.317 47.5418 158.348C47.5336 158.38 47.5187 158.409 47.4979 158.434C47.4772 158.459 47.4512 158.479 47.4218 158.493C47.3924 158.507 47.3603 158.514 47.3278 158.514C47.2954 158.514 47.2633 158.507 47.2339 158.493C47.2045 158.479 47.1785 158.459 47.1578 158.434C47.137 158.409 47.1221 158.38 47.1139 158.348C47.1058 158.317 47.1047 158.284 47.1107 158.252C47.1047 158.22 47.1058 158.187 47.1139 158.156C47.1221 158.124 47.137 158.095 47.1578 158.07C47.1785 158.045 47.2045 158.025 47.2339 158.011C47.2633 157.997 47.2954 157.99 47.3278 157.99C47.3603 157.99 47.3924 157.997 47.4218 158.011C47.4512 158.025 47.4772 158.045 47.4979 158.07C47.5187 158.095 47.5336 158.124 47.5418 158.156C47.5499 158.187 47.551 158.22 47.545 158.252Z" fill="#263238"/>
<path d="M47.3164 157.414L46.8516 157.673C46.8181 157.609 46.8105 157.535 46.8304 157.465C46.8502 157.396 46.896 157.336 46.9582 157.3C46.9891 157.283 47.023 157.272 47.058 157.269C47.093 157.265 47.1284 157.269 47.1619 157.28C47.1954 157.291 47.2264 157.308 47.2529 157.331C47.2795 157.354 47.3011 157.382 47.3164 157.414Z" fill="#263238"/>
<path d="M47.4155 159.7L47.9108 159.883C47.8996 159.917 47.8818 159.948 47.8585 159.975C47.8351 160.001 47.8066 160.023 47.7746 160.039C47.7427 160.055 47.7079 160.064 47.6724 160.066C47.6369 160.068 47.6014 160.062 47.5679 160.05C47.5345 160.038 47.5041 160.019 47.4783 159.994C47.4525 159.97 47.4319 159.94 47.4177 159.907C47.4035 159.875 47.396 159.84 47.3956 159.804C47.3952 159.768 47.402 159.733 47.4155 159.7Z" fill="#F28F8F"/>
<path d="M49.4805 157.62L49.0538 157.292C49.0735 157.263 49.0991 157.238 49.1289 157.218C49.1588 157.199 49.1922 157.186 49.2272 157.181C49.2622 157.175 49.2981 157.176 49.3324 157.185C49.3668 157.194 49.3991 157.209 49.4272 157.231C49.4817 157.278 49.5172 157.344 49.5271 157.415C49.5369 157.487 49.5203 157.559 49.4805 157.62Z" fill="#263238"/>
<path d="M49.3662 158.176C49.3722 158.208 49.3711 158.241 49.363 158.272C49.3548 158.304 49.3398 158.333 49.3191 158.358C49.2984 158.383 49.2724 158.403 49.243 158.417C49.2136 158.431 49.1815 158.438 49.149 158.438C49.1165 158.438 49.0845 158.431 49.0551 158.417C49.0257 158.403 48.9997 158.383 48.9789 158.358C48.9582 158.333 48.9432 158.304 48.9351 158.272C48.9269 158.241 48.9258 158.208 48.9318 158.176C48.9258 158.144 48.9269 158.111 48.9351 158.08C48.9432 158.048 48.9582 158.019 48.9789 157.994C48.9997 157.969 49.0257 157.949 49.0551 157.935C49.0845 157.921 49.1165 157.914 49.149 157.914C49.1815 157.914 49.2136 157.921 49.243 157.935C49.2724 157.949 49.2984 157.969 49.3191 157.994C49.3398 158.019 49.3548 158.048 49.363 158.08C49.3711 158.111 49.3722 158.144 49.3662 158.176Z" fill="#263238"/>
<path d="M48.3299 158.168L48.1241 159.456L48.8404 159.372L48.3299 158.168Z" fill="#F28F8F"/>
<path d="M49.5643 191.658L49.5185 191.46C49.6633 191.46 50.2806 192.496 50.8749 192.938C51.4693 193.38 52.1094 193.7 52.3989 193.921C52.6885 194.142 52.2237 194.805 51.2483 194.859C50.6793 194.892 50.1128 194.76 49.6176 194.478C49.3433 194.226 49.1452 193.799 48.9318 193.609C48.7185 193.418 48.2841 193.266 48.1698 193.03C48.0774 192.787 48.0485 192.525 48.086 192.268C48.086 192.016 48.086 191.734 48.185 191.742V191.887C48.4398 192.016 48.7227 192.079 49.008 192.07C49.2519 192.093 49.6786 192.039 49.5643 191.658Z" fill="#263238"/>
<path d="M48.1089 179.649C48.1089 179.649 47.5297 175.55 47.3469 174.909C47.8105 174.66 48.2407 174.353 48.627 173.995C48.3589 174.379 48.0662 174.746 47.7507 175.092L48.1089 179.649Z" fill="#263238"/>
<path d="M44.6265 179.512C44.9067 180.235 45.2325 180.94 45.6019 181.623C45.6019 181.623 45.5257 182.941 45.5409 183.208L45.1752 183.52C45.1663 182.924 45.2199 182.329 45.3352 181.745C45.0192 181.028 44.7816 180.28 44.6265 179.512Z" fill="#263238"/>
</svg>
