<svg width="30" height="35" viewBox="0 0 30 35" fill="none" xmlns="http://www.w3.org/2000/svg">
<path d="M13.9875 28.7656H16.2375V26.3047H18.0375C18.4125 26.3047 18.7188 26.0859 18.9562 25.6484C19.1938 25.2109 19.3125 24.7188 19.3125 24.1719V17.8828C19.3125 17.2995 19.1938 16.7982 18.9562 16.3789C18.7188 15.9596 18.4125 15.75 18.0375 15.75H12.9375V11.9766H19.3125V8.69531H16.2375V6.23438H13.9875V8.69531H12.15C11.775 8.69531 11.4375 8.91406 11.1375 9.35156C10.8375 9.78906 10.6875 10.2995 10.6875 10.8828V17.1172C10.6875 17.7005 10.8375 18.1654 11.1375 18.5117C11.4375 18.8581 11.775 19.0312 12.15 19.0312H17.0625V23.0234H10.6875V26.3047H13.9875V28.7656ZM2.25 35C1.65 35 1.125 34.6719 0.675 34.0156C0.225 33.3594 0 32.5938 0 31.7188V3.28125C0 2.40625 0.225 1.64062 0.675 0.984375C1.125 0.328125 1.65 0 2.25 0H27.75C28.35 0 28.875 0.328125 29.325 0.984375C29.775 1.64062 30 2.40625 30 3.28125V31.7188C30 32.5938 29.775 33.3594 29.325 34.0156C28.875 34.6719 28.35 35 27.75 35H2.25ZM2.25 31.7188H27.75V3.28125H2.25V31.7188Z" fill="#1F1C1C"/>
</svg>
