<svg width="30" height="35" viewBox="0 0 30 35" fill="none" xmlns="http://www.w3.org/2000/svg">
<path d="M0 35V23.4659C0 21.3712 0.777778 19.5881 2.33333 18.1165C3.88889 16.6449 5.75 15.9091 7.91667 15.9091H10.4167V2.38636C10.4167 1.72348 10.6597 1.16004 11.1458 0.696023C11.6319 0.232008 12.2222 0 12.9167 0H17.0833C17.7778 0 18.3681 0.232008 18.8542 0.696023C19.3403 1.16004 19.5833 1.72348 19.5833 2.38636V15.9091H22.0833C24.2778 15.9091 26.1458 16.6449 27.6875 18.1165C29.2292 19.5881 30 21.3712 30 23.4659V35H0ZM2.5 32.6136H6.875V27.4432C6.875 27.0985 7 26.8134 7.25 26.5881C7.5 26.3627 7.80556 26.25 8.16667 26.25C8.5 26.25 8.78472 26.3627 9.02083 26.5881C9.25694 26.8134 9.375 27.0985 9.375 27.4432V32.6136H13.75V27.4432C13.75 27.0985 13.875 26.8134 14.125 26.5881C14.375 26.3627 14.6806 26.25 15.0417 26.25C15.375 26.25 15.6597 26.3627 15.8958 26.5881C16.1319 26.8134 16.25 27.0985 16.25 27.4432V32.6136H20.625V27.4432C20.625 27.0985 20.75 26.8134 21 26.5881C21.25 26.3627 21.5556 26.25 21.9167 26.25C22.25 26.25 22.5347 26.3627 22.7708 26.5881C23.0069 26.8134 23.125 27.0985 23.125 27.4432V32.6136H27.5V23.4659C27.5 22.0341 26.9722 20.8144 25.9167 19.8068C24.8611 18.7992 23.5833 18.2955 22.0833 18.2955H7.91667C6.41667 18.2955 5.13889 18.7992 4.08333 19.8068C3.02778 20.8144 2.5 22.0341 2.5 23.4659V32.6136ZM17.0833 15.9091V2.38636H12.9167V15.9091H17.0833Z" fill="#1F1C1C"/>
</svg>
