<svg width="30" height="35" viewBox="0 0 30 35" fill="none" xmlns="http://www.w3.org/2000/svg">
<path d="M6.66667 35V24.1062H3.70833C2.70833 24.1062 1.84028 23.749 1.10417 23.0344C0.368055 22.3198 0 21.4375 0 20.3875C0 19.6 0.1875 18.8635 0.5625 18.1781C0.9375 17.4927 1.47222 16.9896 2.16667 16.6687L13.875 11.4187V9.58125C12.8472 9.28958 12.0069 8.69896 11.3542 7.80938C10.7014 6.91979 10.375 5.92083 10.375 4.8125C10.375 3.47083 10.8333 2.33333 11.75 1.4C12.6667 0.466667 13.7639 0 15.0417 0C16.3194 0 17.4167 0.466667 18.3333 1.4C19.25 2.33333 19.7083 3.47083 19.7083 4.8125H17.2083C17.2083 4.2 16.9931 3.68229 16.5625 3.25937C16.1319 2.83646 15.625 2.625 15.0417 2.625C14.4583 2.625 13.9514 2.83646 13.5208 3.25937C13.0903 3.68229 12.875 4.2 12.875 4.8125C12.875 5.48333 13.0903 6.04479 13.5208 6.49688C13.9514 6.94896 14.4861 7.175 15.125 7.175C15.4583 7.175 15.75 7.29896 16 7.54688C16.25 7.79479 16.375 8.09375 16.375 8.44375V11.4187L27.8333 16.6687C28.5278 16.9896 29.0625 17.4927 29.4375 18.1781C29.8125 18.8635 30 19.6 30 20.3875C30 21.4375 29.6319 22.3198 28.8958 23.0344C28.1597 23.749 27.2917 24.1062 26.2917 24.1062H23.3333V35H6.66667ZM3.70833 21.4812H6.66667V19.25H23.3333V21.4812H26.2917C26.5972 21.4812 26.875 21.3719 27.125 21.1531C27.375 20.9344 27.5 20.6646 27.5 20.3438C27.5 20.0812 27.4306 19.8479 27.2917 19.6438C27.1528 19.4396 26.9722 19.2792 26.75 19.1625L15.125 13.65L3.25 19.1625C3.02778 19.2792 2.84722 19.4396 2.70833 19.6438C2.56944 19.8479 2.5 20.0667 2.5 20.3C2.5 20.6208 2.61806 20.8979 2.85417 21.1313C3.09028 21.3646 3.375 21.4812 3.70833 21.4812ZM9.16667 32.375H20.8333V21.875H9.16667V32.375Z" fill="#1F1C1C"/>
</svg>
