<svg width="30" height="35" viewBox="0 0 30 35" fill="none" xmlns="http://www.w3.org/2000/svg">
<path d="M24.7917 24.0625V20.7812H28.75C29.1111 20.7812 29.4097 20.9362 29.6458 21.2461C29.8819 21.556 30 21.9479 30 22.4219C30 22.8594 29.8819 23.2422 29.6458 23.5703C29.4097 23.8984 29.1111 24.0625 28.75 24.0625H24.7917ZM24.7917 32.8125V29.5312H28.75C29.1111 29.5312 29.4097 29.6862 29.6458 29.9961C29.8819 30.306 30 30.6979 30 31.1719C30 31.6094 29.8819 31.9922 29.6458 32.3203C29.4097 32.6484 29.1111 32.8125 28.75 32.8125H24.7917ZM18.3333 35C17.5278 35 16.8403 34.5716 16.2708 33.7148C15.7014 32.8581 15.4167 31.8281 15.4167 30.625H11.4583V22.9688H15.4167C15.4167 21.7656 15.7014 20.7357 16.2708 19.8789C16.8403 19.0221 17.5278 18.5938 18.3333 18.5938H23.5417V35H18.3333ZM6.45833 28.4375C4.59722 28.4375 3.05556 27.6445 1.83333 26.0586C0.611111 24.4727 0 22.4401 0 19.9609C0 17.4818 0.611111 15.4492 1.83333 13.8633C3.05556 12.2773 4.59722 11.4844 6.45833 11.4844H9.16667C10.0833 11.4844 10.8333 11.1016 11.4167 10.3359C12 9.57031 12.2917 8.58594 12.2917 7.38281C12.2917 6.17969 12 5.19531 11.4167 4.42969C10.8333 3.66406 10.0833 3.28125 9.16667 3.28125H2.91667C2.58333 3.28125 2.29167 3.11719 2.04167 2.78906C1.79167 2.46094 1.66667 2.07812 1.66667 1.64062C1.66667 1.16667 1.79167 0.77474 2.04167 0.464844C2.29167 0.154948 2.58333 0 2.91667 0H9.16667C10.7778 0 12.1181 0.701823 13.1875 2.10547C14.2569 3.50911 14.7917 5.26823 14.7917 7.38281C14.7917 9.4974 14.2569 11.2565 13.1875 12.6602C12.1181 14.0638 10.7778 14.7656 9.16667 14.7656H6.45833C5.29167 14.7656 4.34028 15.2396 3.60417 16.1875C2.86806 17.1354 2.5 18.3932 2.5 19.9609C2.5 21.5286 2.86806 22.7865 3.60417 23.7344C4.34028 24.6823 5.29167 25.1562 6.45833 25.1562H10.2083V28.4375H6.45833Z" fill="#1F1C1C"/>
</svg>
