<svg width="30" height="35" viewBox="0 0 30 35" fill="none" xmlns="http://www.w3.org/2000/svg">
<path d="M15 35C15 33.0556 15.4167 31.1806 16.25 29.375C17.0833 27.5694 18.1944 25.9722 19.5833 24.5833C20.9722 23.1944 22.5694 22.0833 24.375 21.25C26.1806 20.4167 28.0556 20 30 20C30 21.9444 29.5833 23.8194 28.75 25.625C27.9167 27.4306 26.8056 29.0278 25.4167 30.4167C24.0278 31.8056 22.4306 32.9167 20.625 33.75C18.8194 34.5833 16.9444 35 15 35ZM18.125 31.875C20.3472 31.1528 22.1944 30.0556 23.6667 28.5833C25.1389 27.1111 26.2361 25.2639 26.9583 23.0417C24.7361 23.7639 22.8889 24.8681 21.4167 26.3542C19.9444 27.8403 18.8472 29.6806 18.125 31.875ZM15 35C15 33.0556 14.5833 31.1806 13.75 29.375C12.9167 27.5694 11.8056 25.9722 10.4167 24.5833C9.02778 23.1944 7.43056 22.0833 5.625 21.25C3.81944 20.4167 1.94444 20 0 20C0 21.9444 0.416667 23.8194 1.25 25.625C2.08333 27.4306 3.19444 29.0278 4.58333 30.4167C5.97222 31.8056 7.56944 32.9167 9.375 33.75C11.1806 34.5833 13.0556 35 15 35ZM11.875 31.875C9.65278 31.1528 7.80556 30.0556 6.33333 28.5833C4.86111 27.1111 3.76389 25.2639 3.04167 23.0417C5.26389 23.7639 7.11111 24.8681 8.58333 26.3542C10.0556 27.8403 11.1528 29.6806 11.875 31.875ZM20.5833 16.7917C21.2222 16.7917 21.7708 16.5625 22.2292 16.1042C22.6875 15.6458 22.9167 15.0972 22.9167 14.4583C22.9167 13.9861 22.7917 13.5764 22.5417 13.2292C22.2917 12.8819 21.9583 12.5972 21.5417 12.375L19.5833 11.4167C19.4444 12.2222 19.2153 12.9236 18.8958 13.5208C18.5764 14.1181 18.1111 14.6528 17.5 15.125L19.25 16.375C19.4444 16.5139 19.6528 16.6181 19.875 16.6875C20.0972 16.7569 20.3333 16.7917 20.5833 16.7917ZM19.5833 11.0833L21.5417 10.125C21.9583 9.90278 22.2847 9.61111 22.5208 9.25C22.7569 8.88889 22.875 8.48611 22.875 8.04167C22.875 7.40278 22.6528 6.85417 22.2083 6.39583C21.7639 5.9375 21.2222 5.70833 20.5833 5.70833C20.3333 5.70833 20.1042 5.74306 19.8958 5.8125C19.6875 5.88194 19.4722 5.98611 19.25 6.125L17.4167 7.375C18.0556 7.84722 18.5417 8.375 18.875 8.95833C19.2083 9.54167 19.4444 10.25 19.5833 11.0833ZM12.9583 7.16667C13.3472 7 13.7153 6.875 14.0625 6.79167C14.4097 6.70833 14.7222 6.66667 15 6.66667C15.2778 6.66667 15.5903 6.70833 15.9375 6.79167C16.2847 6.875 16.6528 7 17.0417 7.16667L17.3333 4.58333C17.3889 4 17.1667 3.50694 16.6667 3.10417C16.1667 2.70139 15.625 2.5 15.0417 2.5C14.4306 2.5 13.8681 2.70833 13.3542 3.125C12.8403 3.54167 12.6111 4.02778 12.6667 4.58333L12.9583 7.16667ZM15.0417 13.3333C15.5972 13.3333 16.0764 13.125 16.4792 12.7083C16.8819 12.2917 17.0833 11.7917 17.0833 11.2083C17.0833 10.6528 16.8819 10.1736 16.4792 9.77083C16.0764 9.36806 15.5833 9.16667 15 9.16667C14.4444 9.16667 13.9583 9.36806 13.5417 9.77083C13.125 10.1736 12.9167 10.6667 12.9167 11.25C12.9167 11.8056 13.125 12.2917 13.5417 12.7083C13.9583 13.125 14.4583 13.3333 15.0417 13.3333ZM15.0417 20C15.625 20 16.1667 19.7986 16.6667 19.3958C17.1667 18.9931 17.3889 18.5 17.3333 17.9167L17.0417 15.3333C16.6528 15.5 16.2847 15.625 15.9375 15.7083C15.5903 15.7917 15.2778 15.8333 15 15.8333C14.7222 15.8333 14.4097 15.7917 14.0625 15.7083C13.7153 15.625 13.3472 15.5 12.9583 15.3333L12.6667 17.9167C12.6111 18.4722 12.8403 18.9583 13.3542 19.375C13.8681 19.7917 14.4306 20 15.0417 20ZM10.4167 11.0833C10.5556 10.25 10.7847 9.54167 11.1042 8.95833C11.4236 8.375 11.8889 7.84722 12.5 7.375L10.75 6.125C10.5556 5.98611 10.3472 5.88194 10.125 5.8125C9.90278 5.74306 9.66667 5.70833 9.41667 5.70833C8.77778 5.70833 8.22917 5.9375 7.77083 6.39583C7.3125 6.85417 7.08333 7.40278 7.08333 8.04167C7.08333 8.48611 7.20833 8.88889 7.45833 9.25C7.70833 9.61111 8.04167 9.90278 8.45833 10.125L10.4167 11.0833ZM9.41667 16.75C9.66667 16.75 9.89583 16.7153 10.1042 16.6458C10.3125 16.5764 10.5278 16.4722 10.75 16.3333L12.5833 15.125C11.9444 14.6528 11.4583 14.1181 11.125 13.5208C10.7917 12.9236 10.5556 12.2222 10.4167 11.4167L8.45833 12.375C8.04167 12.5972 7.71528 12.8889 7.47917 13.25C7.24306 13.6111 7.125 14.0139 7.125 14.4583C7.15278 15.0972 7.38194 15.6389 7.8125 16.0833C8.24306 16.5278 8.77778 16.75 9.41667 16.75ZM15 22.5C14 22.5 13.0903 22.2014 12.2708 21.6042C11.4514 21.0069 10.8472 20.2222 10.4583 19.25C10.2917 19.25 10.1181 19.2569 9.9375 19.2708C9.75694 19.2847 9.58333 19.2917 9.41667 19.2917C8.08333 19.2917 6.94444 18.8194 6 17.875C5.05556 16.9306 4.58333 15.7917 4.58333 14.4583C4.58333 13.9028 4.69444 13.3542 4.91667 12.8125C5.13889 12.2708 5.45833 11.75 5.875 11.25C5.48611 10.75 5.18056 10.2292 4.95833 9.6875C4.73611 9.14583 4.625 8.59722 4.625 8.04167C4.625 6.70833 5.09028 5.56944 6.02083 4.625C6.95139 3.68056 8.08333 3.20833 9.41667 3.20833C9.58333 3.20833 9.75694 3.21528 9.9375 3.22917C10.1181 3.24306 10.2917 3.25 10.4583 3.25C10.8472 2.27778 11.4514 1.49306 12.2708 0.895833C13.0903 0.298611 14 0 15 0C16 0 16.9097 0.298611 17.7292 0.895833C18.5486 1.49306 19.1528 2.27778 19.5417 3.25C19.7083 3.25 19.8819 3.24306 20.0625 3.22917C20.2431 3.21528 20.4167 3.20833 20.5833 3.20833C21.9167 3.20833 23.0486 3.68056 23.9792 4.625C24.9097 5.56944 25.375 6.70833 25.375 8.04167C25.375 8.59722 25.2708 9.14583 25.0625 9.6875C24.8542 10.2292 24.5417 10.75 24.125 11.25C24.5139 11.75 24.8194 12.2708 25.0417 12.8125C25.2639 13.3542 25.375 13.9028 25.375 14.4583C25.375 15.7917 24.9097 16.9306 23.9792 17.875C23.0486 18.8194 21.9167 19.2917 20.5833 19.2917C20.4167 19.2917 20.2431 19.2847 20.0625 19.2708C19.8819 19.2569 19.7083 19.25 19.5417 19.25C19.1528 20.2222 18.5486 21.0069 17.7292 21.6042C16.9097 22.2014 16 22.5 15 22.5Z" fill="#1F1C1C"/>
</svg>
