<svg width="30" height="35" viewBox="0 0 30 35" fill="none" xmlns="http://www.w3.org/2000/svg">
<path d="M0 35V12.0312C0 11.1562 0.225 10.3906 0.675 9.73438C1.125 9.07812 1.65 8.75 2.25 8.75H7.5V3.28125C7.5 2.40625 7.725 1.64062 8.175 0.984375C8.625 0.328125 9.15 0 9.75 0H20.25C20.85 0 21.375 0.328125 21.825 0.984375C22.275 1.64062 22.5 2.40625 22.5 3.28125V8.75H27.75C28.35 8.75 28.875 9.07812 29.325 9.73438C29.775 10.3906 30 11.1562 30 12.0312V35H0ZM2.25 31.7188H27.75V23.5156H23.625V25.7031H21.375V23.5156H8.625V25.7031H6.375V23.5156H2.25V31.7188ZM2.25 12.0312V20.2344H6.375V18.0469H8.625V20.2344H21.375V18.0469H23.625V20.2344H27.75V12.0312H2.25ZM9.75 8.75H20.25V3.28125H9.75V8.75Z" fill="#1F1C1C"/>
</svg>
