<svg width="30" height="35" viewBox="0 0 30 35" fill="none" xmlns="http://www.w3.org/2000/svg">
<path d="M13.125 27.2708H16.875V19.6875H23.375V15.3125H16.875V7.72917H13.125V15.3125H6.625V19.6875H13.125V27.2708ZM2.5 35C1.83333 35 1.25 34.7083 0.75 34.125C0.25 33.5417 0 32.8611 0 32.0833V2.91667C0 2.13889 0.25 1.45833 0.75 0.875C1.25 0.291667 1.83333 0 2.5 0H27.5C28.1667 0 28.75 0.291667 29.25 0.875C29.75 1.45833 30 2.13889 30 2.91667V32.0833C30 32.8611 29.75 33.5417 29.25 34.125C28.75 34.7083 28.1667 35 27.5 35H2.5ZM2.5 32.0833H27.5V2.91667H2.5V32.0833Z" fill="#1F1C1C"/>
</svg>
