<svg width="30" height="35" viewBox="0 0 30 35" fill="none" xmlns="http://www.w3.org/2000/svg">
<path d="M2.8125 35C2.03125 35 1.36719 34.7448 0.820312 34.2344C0.273438 33.724 0 33.1042 0 32.375V2.625C0 1.89583 0.273438 1.27604 0.820312 0.765625C1.36719 0.255208 2.03125 0 2.8125 0H27.1875C27.9688 0 28.6328 0.255208 29.1797 0.765625C29.7266 1.27604 30 1.89583 30 2.625V32.375C30 33.1042 29.7266 33.724 29.1797 34.2344C28.6328 34.7448 27.9688 35 27.1875 35H2.8125ZM2.8125 32.375H27.1875V2.625H2.8125V32.375ZM15 29.7937C17.5312 29.7937 19.6797 28.9698 21.4453 27.3219C23.2109 25.674 24.0938 23.6688 24.0938 21.3062C24.0938 18.9438 23.2109 16.9385 21.4453 15.2906C19.6797 13.6427 17.5312 12.8187 15 12.8187C12.4688 12.8187 10.3203 13.6427 8.55469 15.2906C6.78906 16.9385 5.90625 18.9438 5.90625 21.3062C5.90625 23.6688 6.78906 25.674 8.55469 27.3219C10.3203 28.9698 12.4688 29.7937 15 29.7937ZM15 26.1187C14.2812 26.1187 13.5937 26.0021 12.9375 25.7688C12.2812 25.5354 11.6875 25.1854 11.1562 24.7188L18.6094 17.7625C19.1406 18.2 19.5312 18.7323 19.7812 19.3594C20.0312 19.9865 20.1562 20.6354 20.1562 21.3062C20.1562 22.6479 19.6562 23.7854 18.6562 24.7188C17.6562 25.6521 16.4375 26.1187 15 26.1187ZM6.75 7.525C7.15625 7.525 7.49219 7.40104 7.75781 7.15313C8.02344 6.90521 8.15625 6.59167 8.15625 6.2125C8.15625 5.83333 8.02344 5.51979 7.75781 5.27187C7.49219 5.02396 7.15625 4.9 6.75 4.9C6.34375 4.9 6.00781 5.02396 5.74219 5.27187C5.47656 5.51979 5.34375 5.83333 5.34375 6.2125C5.34375 6.59167 5.47656 6.90521 5.74219 7.15313C6.00781 7.40104 6.34375 7.525 6.75 7.525ZM13.0312 7.525C13.4375 7.525 13.7734 7.40104 14.0391 7.15313C14.3047 6.90521 14.4375 6.59167 14.4375 6.2125C14.4375 5.83333 14.3047 5.51979 14.0391 5.27187C13.7734 5.02396 13.4375 4.9 13.0312 4.9C12.625 4.9 12.2891 5.02396 12.0234 5.27187C11.7578 5.51979 11.625 5.83333 11.625 6.2125C11.625 6.59167 11.7578 6.90521 12.0234 7.15313C12.2891 7.40104 12.625 7.525 13.0312 7.525Z" fill="#1F1C1C"/>
</svg>
