<svg width="30" height="35" viewBox="0 0 30 35" fill="none" xmlns="http://www.w3.org/2000/svg">
<path d="M15.0939 35C12.6909 35 10.6258 33.9954 8.89862 31.9861C7.17146 29.9769 6.20776 27.4815 6.00751 24.5C4.30538 23.9491 2.8786 22.8634 1.72716 21.2431C0.57572 19.6227 0 17.6944 0 15.4583C0 12.8333 0.750939 10.6539 2.25282 8.92014C3.75469 7.18634 5.53192 6.31944 7.58448 6.31944H11.5645C11.9149 6.31944 12.2028 6.14931 12.428 5.80903C12.6533 5.46875 12.766 5.07176 12.766 4.61806C12.766 4.16435 12.6533 3.76736 12.428 3.42708C12.2028 3.08681 11.9149 2.91667 11.5645 2.91667H9.1239C8.77347 2.91667 8.47935 2.77893 8.24155 2.50347C8.00375 2.22801 7.88486 1.87963 7.88486 1.45833C7.88486 1.03704 8.00375 0.688658 8.24155 0.413195C8.47935 0.137732 8.76095 0 9.08636 0H11.4518C12.428 0 13.2666 0.453704 13.9675 1.36111C14.6683 2.26852 15.0188 3.35417 15.0188 4.61806C15.0188 5.91435 14.6683 7.0081 13.9675 7.89931C13.2666 8.79051 12.4155 9.23611 11.4143 9.23611H7.43429C6.00751 9.23611 4.78723 9.84375 3.77347 11.059C2.7597 12.2743 2.25282 13.7731 2.25282 15.5556C2.25282 17.0139 2.62203 18.2778 3.36045 19.3472C4.09887 20.4167 5.00626 21.162 6.0826 21.5833C6.40801 18.7315 7.39675 16.3657 9.04881 14.4861C10.7009 12.6065 12.6283 11.6667 14.831 11.6667C15.3567 11.6667 15.8824 11.7153 16.408 11.8125C16.9337 11.9097 17.4093 12.0556 17.8348 12.25C18.035 12.1528 18.2353 12.0637 18.4355 11.9826C18.6358 11.9016 18.8423 11.8368 19.0551 11.7882C19.2678 11.7396 19.4743 11.7072 19.6746 11.691C19.8748 11.6748 20.0876 11.6667 20.3129 11.6667C22.1652 11.6667 23.7484 12.5012 25.0626 14.1701C26.3767 15.8391 27.0338 17.8727 27.0338 20.2708V20.8542C27.0338 21.081 27.0088 21.3241 26.9587 21.5833L28.3104 23.2847C28.8611 23.9653 29.2803 24.7188 29.5682 25.5451C29.8561 26.3715 30 27.2546 30 28.1944C30 30.1065 29.4994 31.7187 28.4981 33.0312C27.4969 34.3437 26.2703 35 24.8185 35H15.0939ZM15.0939 32.0833H24.7434C25.5444 32.0833 26.2516 31.6944 26.8648 30.9167C27.4781 30.1389 27.7847 29.2315 27.7847 28.1944C27.7847 27.6759 27.6971 27.1898 27.5219 26.7361C27.3467 26.2824 27.0839 25.8287 26.7334 25.375L24.5181 22.5556C24.6183 22.1667 24.6871 21.7859 24.7247 21.4132C24.7622 21.0405 24.781 20.6759 24.781 20.3194C24.781 18.7315 24.3492 17.3785 23.4856 16.2604C22.622 15.1424 21.5645 14.5833 20.3129 14.5833C19.1615 14.5833 18.179 15.1262 17.3655 16.2118C16.5519 17.2975 16.1452 18.6181 16.1452 20.1736C16.1452 20.8542 16.2203 21.5104 16.3705 22.1424C16.5206 22.7743 16.7584 23.3495 17.0839 23.8681L15.5069 25.9097C14.9312 25.1319 14.5181 24.2326 14.2678 23.2118C14.0175 22.191 13.8924 21.1458 13.8924 20.0764C13.8924 19.0718 14.0175 18.0995 14.2678 17.1597C14.5181 16.2199 14.8936 15.3773 15.3942 14.6319C15.194 14.5671 15.025 14.5428 14.8874 14.559C14.7497 14.5752 14.6183 14.5833 14.4931 14.5833C12.816 14.5833 11.3454 15.4745 10.0814 17.2569C8.81727 19.0394 8.18523 21.1134 8.18523 23.4792C8.18523 24.6458 8.36671 25.7477 8.72966 26.7847C9.09262 27.8218 9.59324 28.7373 10.2315 29.5312C10.8698 30.3252 11.6083 30.9491 12.4468 31.4028C13.2854 31.8565 14.1677 32.0833 15.0939 32.0833ZM22.5282 28.6806C22.2278 28.6806 21.965 28.5347 21.7397 28.2431C21.5144 27.9514 21.4018 27.5949 21.4018 27.1736C21.4018 26.7847 21.5144 26.4525 21.7397 26.1771C21.965 25.9016 22.2403 25.7639 22.5657 25.7639C22.8661 25.7639 23.1227 25.9016 23.3354 26.1771C23.5482 26.4525 23.6546 26.8009 23.6546 27.2222C23.6546 27.6111 23.5482 27.9514 23.3354 28.2431C23.1227 28.5347 22.8536 28.6806 22.5282 28.6806Z" fill="#1F1C1C"/>
</svg>
