<svg width="30" height="35" viewBox="0 0 30 35" fill="none" xmlns="http://www.w3.org/2000/svg">
<path d="M28.8434 12.2343L22.8171 6.36364L17.9869 11.114L13.3406 6.58771L19.1829 0.896287C19.5203 0.567648 19.8729 0.336107 20.241 0.201664C20.609 0.0672214 21.0077 0 21.437 0C21.8664 0 22.2727 0.0672214 22.6561 0.201664C23.0394 0.336107 23.3998 0.567648 23.7371 0.896287L28.5214 5.55698C28.9814 6.00512 29.3341 6.51302 29.5794 7.08067C29.8248 7.64831 29.9628 8.2309 29.9934 8.82843C30.0241 9.42595 29.9474 10.016 29.7634 10.5986C29.5794 11.1812 29.2727 11.7264 28.8434 12.2343ZM3.86418 20.3457C3.25082 19.7482 2.94414 18.9789 2.94414 18.0378C2.94414 17.0967 3.25082 16.3274 3.86418 15.7298L8.05038 11.6069L12.7886 16.2228L8.55641 20.3457C7.88171 21.003 7.08434 21.3167 6.16429 21.2868C5.24425 21.2569 4.47755 20.9432 3.86418 20.3457ZM0.920044 34.1037C0.613362 33.805 0.383352 33.4614 0.230011 33.073C0.0766703 32.6846 0 32.2813 0 31.863C0 31.4447 0.0766703 31.0414 0.230011 30.653C0.383352 30.2646 0.613362 29.921 0.920044 29.6223L14.7207 16.2228L8.09639 9.72471C7.63636 9.27657 7.40635 8.75374 7.40635 8.15621C7.40635 7.55869 7.63636 7.03585 8.09639 6.58771C8.55641 6.13957 9.10077 5.91549 9.72946 5.91549C10.3582 5.91549 10.9025 6.13957 11.3625 6.58771L17.9869 13.041L20.609 10.4866L25.4392 15.2817C25.7152 15.5506 25.8532 15.8643 25.8532 16.2228C25.8532 16.5813 25.7152 16.895 25.4392 17.1639C25.0405 17.5523 24.6495 17.6793 24.2662 17.5448C23.8828 17.4104 23.5225 17.1788 23.1851 16.8502L5.47426 34.1037C5.16758 34.4025 4.82256 34.6265 4.43921 34.7759C4.05586 34.9253 3.64951 35 3.22015 35C2.7908 35 2.37678 34.9253 1.97809 34.7759C1.57941 34.6265 1.22672 34.4025 0.920044 34.1037Z" fill="#1F1C1C"/>
</svg>
